<?xml version="1.0" encoding="utf-8" standalone="no"?>
<!DOCTYPE svg PUBLIC "-//W3C//DTD SVG 1.1//EN" "http://www.w3.org/Graphics/SVG/1.1/DTD/svg11.dtd">
<!-- Created with matplotlib (https://matplotlib.org/) -->
<svg xmlns="http://www.w3.org/2000/svg" xmlns:xlink="http://www.w3.org/1999/xlink" height="270.906562pt" version="1.1" viewBox="0 0 401.4725 270.906562" width="401.4725pt">
 <metadata>
  <rdf:RDF xmlns:cc="http://creativecommons.org/ns#" xmlns:dc="http://purl.org/dc/elements/1.1/" xmlns:rdf="http://www.w3.org/1999/02/22-rdf-syntax-ns#">
   <cc:Work>
    <dc:type rdf:resource="http://purl.org/dc/dcmitype/StillImage"/>
    <dc:date>2020-09-11T16:43:54.091681</dc:date>
    <dc:format>image/svg+xml</dc:format>
    <dc:creator>
     <cc:Agent>
      <dc:title>Matplotlib v3.3.1, https://matplotlib.org/</dc:title>
     </cc:Agent>
    </dc:creator>
   </cc:Work>
  </rdf:RDF>
 </metadata>
 <defs>
  <style type="text/css">*{stroke-linecap:butt;stroke-linejoin:round;}</style>
 </defs>
 <g id="figure_1">
  <g id="patch_1">
   <path d="M 0 270.906562  L 401.4725 270.906562  L 401.4725 0  L 0 0  z " style="fill:#ffffff;"/>
  </g>
  <g id="axes_1">
   <g id="patch_2">
    <path d="M 7.2 224.64  L 342 224.64  L 342 7.2  L 7.2 7.2  z " style="fill:#f0f0f0;"/>
   </g>
   <g id="matplotlib.axis_1">
    <g id="xtick_1">
     <g id="line2d_1">
      <defs>
       <path d="M 0 0  L 0 3.5  " id="m5916e44a1d" style="stroke:#000000;stroke-width:0.8;"/>
      </defs>
      <g>
       <use style="stroke:#000000;stroke-width:0.8;" x="327.166341" xlink:href="#m5916e44a1d" y="224.64"/>
      </g>
     </g>
     <g id="text_1">
      <switch style="font-family:DejaVu Sans;font-size:14px;font-stretch:normal;font-style:normal;font-weight:normal;text-anchor:middle;"><text style="font-family:DejaVu Sans;font-size:14px;font-stretch:normal;font-style:normal;font-weight:normal;text-anchor:middle;" transform="rotate(-0, 327.166341, 242.277812)" x="327.166341" y="242.277812" id="trsvg26"><tspan id="trsvg1">0</tspan></text></switch>
     </g>
    </g>
    <g id="xtick_2">
     <g id="line2d_2">
      <g>
       <use style="stroke:#000000;stroke-width:0.8;" x="251.023274" xlink:href="#m5916e44a1d" y="224.64"/>
      </g>
     </g>
     <g id="text_2">
      <switch style="font-family:DejaVu Sans;font-size:14px;font-stretch:normal;font-style:normal;font-weight:normal;text-anchor:middle;"><text style="font-family:DejaVu Sans;font-size:14px;font-stretch:normal;font-style:normal;font-weight:normal;text-anchor:middle;" transform="rotate(-0, 251.023274, 242.277812)" x="251.023274" y="242.277812" id="trsvg27"><tspan id="trsvg2">200</tspan></text></switch>
     </g>
    </g>
    <g id="xtick_3">
     <g id="line2d_3">
      <g>
       <use style="stroke:#000000;stroke-width:0.8;" x="174.880206" xlink:href="#m5916e44a1d" y="224.64"/>
      </g>
     </g>
     <g id="text_3">
      <switch style="font-family:DejaVu Sans;font-size:14px;font-stretch:normal;font-style:normal;font-weight:normal;text-anchor:middle;"><text style="font-family:DejaVu Sans;font-size:14px;font-stretch:normal;font-style:normal;font-weight:normal;text-anchor:middle;" transform="rotate(-0, 174.880206, 242.277812)" x="174.880206" y="242.277812" id="trsvg28"><tspan id="trsvg3">400</tspan></text></switch>
     </g>
    </g>
    <g id="xtick_4">
     <g id="line2d_4">
      <g>
       <use style="stroke:#000000;stroke-width:0.8;" x="98.737139" xlink:href="#m5916e44a1d" y="224.64"/>
      </g>
     </g>
     <g id="text_4">
      <switch style="font-family:DejaVu Sans;font-size:14px;font-stretch:normal;font-style:normal;font-weight:normal;text-anchor:middle;"><text style="font-family:DejaVu Sans;font-size:14px;font-stretch:normal;font-style:normal;font-weight:normal;text-anchor:middle;" transform="rotate(-0, 98.737139, 242.277812)" x="98.737139" y="242.277812" id="trsvg29"><tspan id="trsvg4">600</tspan></text></switch>
     </g>
    </g>
    <g id="xtick_5">
     <g id="line2d_5">
      <g>
       <use style="stroke:#000000;stroke-width:0.8;" x="22.594072" xlink:href="#m5916e44a1d" y="224.64"/>
      </g>
     </g>
     <g id="text_5">
      <switch style="font-family:DejaVu Sans;font-size:14px;font-stretch:normal;font-style:normal;font-weight:normal;text-anchor:middle;"><text style="font-family:DejaVu Sans;font-size:14px;font-stretch:normal;font-style:normal;font-weight:normal;text-anchor:middle;" transform="rotate(-0, 22.594072, 242.277812)" x="22.594072" y="242.277812" id="trsvg30"><tspan id="trsvg5">800</tspan></text></switch>
     </g>
    </g>
    <g id="text_6">
     <switch style="font-family:DejaVu Sans;font-size:15px;font-stretch:normal;font-style:normal;font-weight:normal;text-anchor:middle;"><text style="font-family:DejaVu Sans;font-size:15px;font-stretch:normal;font-style:normal;font-weight:normal;text-anchor:middle;" transform="rotate(-0, 174.6, 260.587031)" x="174.6" y="260.587031" id="trsvg31-pt-br" systemLanguage="pt-br"><tspan id="trsvg6-pt-br">Milhares de anos atrás</tspan></text><text style="font-family:DejaVu Sans;font-size:15px;font-stretch:normal;font-style:normal;font-weight:normal;text-anchor:middle;" transform="rotate(-0, 174.6, 260.587031)" x="174.6" y="260.587031" id="trsvg31-nl" systemLanguage="nl"><tspan id="trsvg6-nl">Duizenden jaren geleden</tspan></text><text style="font-family:DejaVu Sans;font-size:15px;font-stretch:normal;font-style:normal;font-weight:normal;text-anchor:middle;" transform="rotate(-0, 174.6, 260.587031)" x="174.6" y="260.587031" id="trsvg31-ja" systemLanguage="ja"><tspan id="trsvg6-ja">年前 (単位: 1,000年)</tspan></text><text style="font-family:DejaVu Sans;font-size:15px;font-stretch:normal;font-style:normal;font-weight:normal;text-anchor:middle;" transform="rotate(-0, 174.6, 260.587031)" x="174.6" y="260.587031" id="trsvg31-id" systemLanguage="id"><tspan id="trsvg6-id">Ribu tahun yang lalu</tspan></text><text style="font-family:DejaVu Sans;font-size:15px;font-stretch:normal;font-style:normal;font-weight:normal;text-anchor:middle;" transform="rotate(-0, 174.6, 260.587031)" x="174.6" y="260.587031" id="trsvg31-de" systemLanguage="de"><tspan id="trsvg6-de">vergangene Jahrtausende</tspan></text><text style="font-family:DejaVu Sans;font-size:15px;font-stretch:normal;font-style:normal;font-weight:normal;text-anchor:middle;" transform="rotate(-0, 174.6, 260.587031)" x="174.6" y="260.587031" id="trsvg31-el" systemLanguage="el"><tspan id="trsvg6-el">Χιλιάδες χρόνια πριν</tspan></text><text style="font-family:DejaVu Sans;font-size:15px;font-stretch:normal;font-style:normal;font-weight:normal;text-anchor:middle;" transform="rotate(-0, 174.6, 260.587031)" x="174.6" y="260.587031" id="trsvg31"><tspan id="trsvg6">Thousands of years ago</tspan></text></switch>
    </g>
   </g>
   <g id="matplotlib.axis_2">
    <g id="ytick_1">
     <g id="line2d_6">
      <defs>
       <path d="M 0 0  L 3.5 0  " id="m48fbb4c5bb" style="stroke:#000000;stroke-width:0.8;"/>
      </defs>
      <g>
       <use style="stroke:#000000;stroke-width:0.8;" x="342" xlink:href="#m48fbb4c5bb" y="191.354771"/>
      </g>
     </g>
     <g id="text_7">
      <switch style="font-family:DejaVu Sans;font-size:14px;font-stretch:normal;font-style:normal;font-weight:normal;text-anchor:start;"><text style="font-family:DejaVu Sans;font-size:14px;font-stretch:normal;font-style:normal;font-weight:normal;text-anchor:start;" transform="rotate(-0, 349, 196.673678)" x="349" y="196.673678" id="trsvg32"><tspan id="trsvg7">200</tspan></text></switch>
     </g>
    </g>
    <g id="ytick_2">
     <g id="line2d_7">
      <g>
       <use style="stroke:#000000;stroke-width:0.8;" x="342" xlink:href="#m48fbb4c5bb" y="150.154785"/>
      </g>
     </g>
     <g id="text_8">
      <switch style="font-family:DejaVu Sans;font-size:14px;font-stretch:normal;font-style:normal;font-weight:normal;text-anchor:start;"><text style="font-family:DejaVu Sans;font-size:14px;font-stretch:normal;font-style:normal;font-weight:normal;text-anchor:start;" transform="rotate(-0, 349, 155.473691)" x="349" y="155.473691" id="trsvg33"><tspan id="trsvg8">250</tspan></text></switch>
     </g>
    </g>
    <g id="ytick_3">
     <g id="line2d_8">
      <g>
       <use style="stroke:#000000;stroke-width:0.8;" x="342" xlink:href="#m48fbb4c5bb" y="108.954799"/>
      </g>
     </g>
     <g id="text_9">
      <switch style="font-family:DejaVu Sans;font-size:14px;font-stretch:normal;font-style:normal;font-weight:normal;text-anchor:start;"><text style="font-family:DejaVu Sans;font-size:14px;font-stretch:normal;font-style:normal;font-weight:normal;text-anchor:start;" transform="rotate(-0, 349, 114.273705)" x="349" y="114.273705" id="trsvg34"><tspan id="trsvg9">300</tspan></text></switch>
     </g>
    </g>
    <g id="ytick_4">
     <g id="line2d_9">
      <g>
       <use style="stroke:#000000;stroke-width:0.8;" x="342" xlink:href="#m48fbb4c5bb" y="67.754813"/>
      </g>
     </g>
     <g id="text_10">
      <switch style="font-family:DejaVu Sans;font-size:14px;font-stretch:normal;font-style:normal;font-weight:normal;text-anchor:start;"><text style="font-family:DejaVu Sans;font-size:14px;font-stretch:normal;font-style:normal;font-weight:normal;text-anchor:start;" transform="rotate(-0, 349, 73.073719)" x="349" y="73.073719" id="trsvg35"><tspan id="trsvg10">350</tspan></text></switch>
     </g>
    </g>
    <g id="ytick_5">
     <g id="line2d_10">
      <g>
       <use style="stroke:#000000;stroke-width:0.8;" x="342" xlink:href="#m48fbb4c5bb" y="26.554827"/>
      </g>
     </g>
     <g id="text_11">
      <switch style="font-family:DejaVu Sans;font-size:14px;font-stretch:normal;font-style:normal;font-weight:normal;text-anchor:start;"><text style="font-family:DejaVu Sans;font-size:14px;font-stretch:normal;font-style:normal;font-weight:normal;text-anchor:start;" transform="rotate(-0, 349, 31.873733)" x="349" y="31.873733" id="trsvg36"><tspan id="trsvg11">400</tspan></text></switch>
     </g>
    </g>
    <g id="text_12">
     <!-- CO$_2$  concentration (ppmv) -->
     <g transform="translate(391.1225 216.945)rotate(-90)">
      <switch><text id="trsvg37-pt-br" systemLanguage="pt-br"><tspan style="font-family:DejaVu Sans;font-size:15px;font-style:book;font-weight:book;" x="0 10.473633 29.514404 34.282471 39.050537 47.297607 56.474854 65.981689 74.22876 83.457275 92.964111 98.845459 105.012451 114.204346 120.085693 124.253174 133.43042 142.937256 147.705322 153.557373 163.078857 172.600342 187.212158 196.089111" y="-0.609375" id="trsvg12-pt-br">CO (concentração em PPMV)</tspan>
       <tspan style="font-family:DejaVu Sans;font-size:10.5px;font-style:book;font-weight:book;" x="22.423828" y="1.8515625" id="trsvg13-pt-br">2</tspan>
      </text><text id="trsvg37-nl" systemLanguage="nl"><tspan style="font-family:DejaVu Sans;font-size:15px;font-style:book;font-weight:book;" x="0 10.473633 29.514404 34.282471 39.050537 47.297607 56.474854 65.981689 74.22876 83.457275 92.964111 98.845459 105.012451 114.204346 120.085693 124.253174 133.43042 142.937256 147.705322 153.557373 163.078857 172.600342 187.212158 196.089111" y="-0.609375" id="trsvg12-nl">CO  concentratie (ppmv)</tspan>
       <tspan style="font-family:DejaVu Sans;font-size:10.5px;font-style:book;font-weight:book;" x="22.423828" y="1.8515625" id="trsvg13-nl">2</tspan>
      </text><text id="trsvg37-ja" systemLanguage="ja"><tspan style="font-family:DejaVu Sans;font-size:15px;font-style:book;font-weight:book;" x="0 10.473633 29.514404 34.282471 39.050537 47.297607 56.474854 65.981689 74.22876 83.457275 92.964111 98.845459 105.012451 114.204346 120.085693 124.253174 133.43042 142.937256 147.705322 153.557373 163.078857 172.600342 187.212158 196.089111" y="-0.609375" id="trsvg12-ja">CO 濃度 (ppmv) </tspan>
       <tspan style="font-family:DejaVu Sans;font-size:10.5px;font-style:book;font-weight:book;" x="22.423828" y="1.8515625" id="trsvg13-ja">2</tspan>
      </text><text id="trsvg37-id" systemLanguage="id"><tspan style="font-family:DejaVu Sans;font-size:15px;font-style:book;font-weight:book;" x="0 10.473633 29.514404 34.282471 39.050537 47.297607 56.474854 65.981689 74.22876 83.457275 92.964111 98.845459 105.012451 114.204346 120.085693 124.253174 133.43042 142.937256 147.705322 153.557373 163.078857 172.600342 187.212158 196.089111" y="-0.609375" id="trsvg12-id">Konsentrasi CO₂ (ppm)</tspan>
       <tspan style="font-family:DejaVu Sans;font-size:10.5px;font-style:book;font-weight:book;" x="22.423828" y="1.8515625" id="trsvg13-id"> </tspan>
      </text><text id="trsvg37-de" systemLanguage="de"><tspan style="font-family:DejaVu Sans;font-size:15px;font-style:book;font-weight:book;" x="0 10.473633 29.514404 34.282471 39.050537 47.297607 56.474854 65.981689 74.22876 83.457275 92.964111 98.845459 105.012451 114.204346 120.085693 124.253174 133.43042 142.937256 147.705322 153.557373 163.078857 172.600342 187.212158 196.089111" y="-0.609375" id="trsvg12-de">CO    Konzentration (ppmv)</tspan>
       <tspan style="font-family:DejaVu Sans;font-size:10.5px;font-style:book;font-weight:book;" x="22.423828" y="1.8515625" id="trsvg13-de">2</tspan>
      </text><text id="trsvg37-el" systemLanguage="el"><tspan style="font-family:DejaVu Sans;font-size:15px;font-style:book;font-weight:book;" x="0 10.473633 29.514404 34.282471 39.050537 47.297607 56.474854 65.981689 74.22876 83.457275 92.964111 98.845459 105.012451 114.204346 120.085693 124.253174 133.43042 142.937256 147.705322 153.557373 163.078857 172.600342 187.212158 196.089111" y="-0.609375" id="trsvg12-el">Συγκεντρώσεις CO2</tspan>
       <tspan style="font-family:DejaVu Sans;font-size:10.5px;font-style:book;font-weight:book;" x="22.423828" y="1.8515625" id="trsvg13-el">2</tspan>
      </text><text id="trsvg37"><tspan style="font-family:DejaVu Sans;font-size:15px;font-style:book;font-weight:book;" x="0 10.473633 29.514404 34.282471 39.050537 47.297607 56.474854 65.981689 74.22876 83.457275 92.964111 98.845459 105.012451 114.204346 120.085693 124.253174 133.43042 142.937256 147.705322 153.557373 163.078857 172.600342 187.212158 196.089111" y="-0.609375" id="trsvg12">CO  concentration (ppmv)</tspan>
       <tspan style="font-family:DejaVu Sans;font-size:10.5px;font-style:book;font-weight:book;" x="22.423828" y="1.8515625" id="trsvg13">2</tspan>
      </text></switch>
     </g>
    </g>
   </g>
   <g id="line2d_11">
    <path clip-path="url(#pa82904d392)" d="M 326.420519 95.78591  L 326.420139 95.020964  L 326.419758 94.416011  L 326.419377 93.748571  L 326.418996 93.304984  L 326.418616 92.790671  L 326.418235 92.444591  L 326.417854 91.346612  L 326.417474 90.677798  L 326.417093 89.961605  L 326.416712 88.665866  L 326.416331 87.793113  L 326.415951 87.267126  L 326.41557 86.330513  L 326.415189 84.500547  L 326.414809 84.033614  L 326.414428 83.285148  L 326.414047 82.461835  L 326.413666 81.020522  L 326.413286 79.698689  L 326.412905 78.589722  L 326.412524 77.079056  L 326.412144 76.049743  L 326.411763 75.062317  L 326.411382 73.702717  L 326.411001 72.352045  L 326.410621 71.131152  L 326.41024 70.100465  L 326.409859 68.633746  L 326.409479 66.531173  L 326.409098 65.35766  L 326.408717 64.305687  L 326.408336 63.147968  L 326.407956 62.503188  L 326.407575 61.952481  L 326.407194 60.432889  L 326.406814 58.793129  L 326.406433 57.33877  L 326.406052 56.41383  L 326.405671 54.051697  L 326.405291 52.665318  L 326.40491 51.707418  L 326.404529 50.435025  L 326.404149 48.723852  L 326.403768 46.630206  L 326.403387 45.207434  L 326.403006 43.363048  L 326.402626 41.545442  L 326.402245 40.074602  L 326.401864 38.544709  L 326.401484 36.970183  L 326.401103 34.877224  L 326.400722 33.436598  L 326.400341 31.605945  L 326.399961 29.383892  L 326.39958 27.696753  L 326.399199 25.825587  L 326.398819 23.030168  L 326.398438 21.128788  L 326.398057 19.478729  L 326.397676 17.083636  " style="fill:none;stroke:#000000;stroke-linecap:square;stroke-width:1.5;"/>
   </g>
   <g id="line2d_12">
    <path clip-path="url(#pa82904d392)" d="M 326.781818 126.258793  L 326.774204 126.258793  L 326.715193 122.138795  L 326.658086 123.786794  L 326.652375 123.786794  L 326.543871 129.554792  L 326.587653 122.962794  L 326.530546 128.730792  L 326.515317 128.730792  L 326.414428 85.058807  L 326.414428 85.058807  " style="fill:none;stroke:#2ca02c;stroke-linecap:square;stroke-width:1.5;"/>
   </g>
   <g id="line2d_13">
    <path clip-path="url(#pa82904d392)" d="M 319.226142 199.182769  L 317.28259 200.418768  L 316.777761 201.489968  L 315.951609 195.30997  L 315.847293 196.21637  L 315.563279 194.56837  L 315.292591 196.29877  L 315.089289 198.688369  L 314.847535 196.71077  L 314.50451 191.684371  L 314.35527 192.096371  L 314.206791 191.025172  L 313.799045 191.272371  L 313.730516 190.036372  L 313.639525 190.613172  L 313.341044 186.987573  L 312.69497 184.103574  L 312.574283 180.642775  L 312.453597 182.043575  L 312.382022 180.972375  L 312.129988 180.148375  L 311.97618 183.197174  L 311.900036 182.620374  L 311.698257 182.867574  L 311.375411 194.32117  L 311.032767 192.837971  L 310.876674 190.201172  L 310.818424 192.261171  L 310.473877 190.036372  L 310.384028 189.541972  L 310.303697 189.789172  L 309.957246 191.437171  L 309.820189 189.953972  L 309.40597 178.005976  L 309.287949 179.324375  L 309.207237 178.417976  L 308.972336 185.916373  L 308.4637 192.096371  L 308.18159 189.624372  L 307.963821 185.669173  L 307.7293 185.669173  L 307.034875 179.571575  L 306.867741 176.522776  L 306.391466 177.429176  L 306.006182 181.713975  L 305.770139 182.455574  L 305.464424 184.762774  L 304.54157 176.357976  L 304.003239 174.545177  L 303.781282 178.994776  L 303.598158 179.077176  L 303.416937 181.054775  L 303.109319 187.564373  L 302.533678 193.497171  L 302.360833 188.388372  L 302.360833 188.388372  " style="fill:none;stroke:#000080;stroke-linecap:square;"/>
   </g>
   <g id="line2d_14">
    <path clip-path="url(#pa82904d392)" d="M 325.399822 121.561995  L 324.853876 135.24039  L 323.859828 140.101989  L 323.426574 146.446786  L 323.123144 142.244388  L 322.553213 140.596388  L 322.242549 138.865989  L 322.075415 154.439584  L 321.900667 159.795582  L 321.339112 161.525981  L 321.090124 170.589978  L 318.800883 206.021967  L 317.733357 200.253968  L 316.527631 198.276369  L 315.359216 200.830768  L 314.994871 198.193969  L 313.095483 186.987573  L 312.158161 183.856374  L 309.862829 183.856374  L 308.402405 200.171569  L 307.824479 200.913168  L 307.506201 183.032374  L 307.135765 178.417976  L 306.481315 199.265169  L 304.689669 173.473977  L 304.473042 182.785174  L 302.49256 195.22757  L 301.700673 198.441169  L 301.319957 195.55717  L 299.374502 168.859579  L 298.545304 167.376379  L 297.051758 177.264376  L 296.658479 173.473977  L 295.73296 165.89318  L 295.04653 157.488383  L 294.697795 161.361181  L 294.055528 179.653975  L 293.613517 177.346776  L 292.952596 184.762774  L 291.684052 168.035579  L 290.502312 164.98678  L 288.4099 170.095579  L 288.033753 165.97558  L 287.686541 160.949182  L 287.033234 168.200379  L 286.561527 160.949182  L 286.206701 166.14038  L 285.466971 159.877982  L 285.24844 153.780384  L 284.619879 149.165986  L 283.836367 144.633987  L 283.303365 136.72359  L 282.985849 140.761188  L 282.793588 129.966792  L 282.596758 131.037992  L 282.070228 139.854789  L 281.594715 135.65239  L 281.252452 130.625992  L 280.86298 132.109191  L 280.592672 137.629989  L 280.350918 127.412393  L 279.845709 131.944391  L 279.569309 128.401192  L 278.91486 136.72359  L 278.803691 125.681993  L 278.734781 131.202792  L 278.669298 127.824393  L 278.321705 130.625992  L 278.1165 139.854789  L 278.022844 139.772389  L 277.727789 129.060392  L 277.561417 130.378792  L 277.550757 119.584395  L 277.460527 119.831595  L 277.362683 123.292394  L 277.182224 139.113189  L 277.063441 143.645187  L 277.031461 142.738788  L 276.424981 154.274784  L 276.273076 167.541179  L 275.98221 171.990778  L 275.762537 171.661178  L 275.626241 182.620374  L 275.361263 184.021174  L 275.298826 188.305972  L 275.042604 187.646773  L 274.948567 193.002771  L 274.797804 193.002771  L 274.691204 189.953972  L 274.642472 190.777972  L 274.551101 189.377172  L 274.430795 194.81557  L 274.397292 190.448372  L 274.024952 196.79317  L 273.892082 196.13397  L 273.814797 199.429969  L 273.399817 197.699569  L 273.269613 194.23877  L 272.781536 194.98037  L 272.758312 194.32117  L 272.340287 199.265169  L 271.082022 193.909171  L 269.761702 188.882772  L 269.346722 200.501168  L 268.774888 190.860372  L 267.262686 203.302767  L 265.676245 187.811573  L 265.531193 194.23877  L 264.661258 199.512369  L 264.101607 204.703567  L 263.819497 194.156371  L 262.774814 193.167571  L 261.895742 193.249971  L 261.187992 194.65077  L 260.775678 199.347569  L 260.508796 200.089169  L 260.410191 199.512369  L 259.682263 185.009974  L 258.984412 180.477975  L 258.588468 176.769976  L 258.231357 192.920371  L 257.116242 188.553172  L 256.111534 182.537974  L 255.345535 165.56358  L 254.683471 165.48118  L 254.439813 174.627577  L 253.95402 176.522776  L 252.98015 169.518779  L 252.762762 174.874777  L 252.177983 169.601179  L 251.928234 157.405983  L 250.672254 149.413185  L 250.312097 159.136382  L 249.838107 152.132385  L 249.362213 154.769184  L 249.186703 165.06918  L 249.018046 164.82198  L 248.820074 167.788379  L 248.575274 169.683579  L 248.014861 159.960382  L 247.941764 160.701982  L 247.688207 166.63478  L 247.570185 157.982783  L 246.929442 152.461984  L 246.856344 148.506786  L 246.543396 158.806782  L 246.415095 144.057187  L 246.164204 155.593183  L 245.766356 149.165986  L 245.439702 157.241183  L 245.228786 158.147583  L 244.776116 148.753986  L 244.648576 149.248386  L 244.424715 154.027584  L 244.055422 157.982783  L 243.290564 179.736375  L 243.003124 178.088376  L 242.64449 185.504373  L 242.385223 184.103574  L 241.89372 186.740373  L 241.041298 188.635572  L 240.416925 162.102781  L 240.111591 162.926781  L 239.991285 164.080381  L 239.70613 171.166778  L 239.079091 164.65718  L 238.698757 163.421181  L 238.453576 157.076383  L 237.025513 154.109984  L 236.773099 148.424386  L 236.531725 157.241183  L 236.295682 152.297185  L 235.86395 159.136382  L 235.601257 153.780384  L 235.428031 153.615584  L 235.251379 152.297185  L 235.062545 147.847586  L 234.532208 139.277989  L 234.159107 125.269994  L 233.397296 161.113982  L 233.200466 166.30518  L 232.980793 175.369177  L 232.127991 179.241976  L 231.194477 191.189972  L 230.862493 179.901175  L 230.535459 195.14517  L 230.202333 194.073971  L 229.860831 195.14517  L 229.151939 192.178771  L 228.542033 188.058773  L 227.947736 188.141173  L 227.303566 183.444374  L 227.089223 186.657973  L 226.641502 184.021174  L 226.322463 179.324375  L 225.721313 168.200379  L 225.285775 191.437171  L 225.029553 181.713975  L 224.604675 200.665968  L 224.323326 201.901968  L 223.95289 196.13397  L 223.546286 192.343571  L 223.152627 203.961967  L 222.750972 199.265169  L 222.370637 196.38117  L 221.985734 196.21637  L 221.593978 192.673171  L 221.2224 196.95797  L 220.82836 189.541972  L 220.451832 187.646773  L 220.082538 182.290774  L 219.721239 178.747576  L 219.154354 171.825978  L 218.382644 165.56358  L 217.490628 169.601179  L 217.144939 165.48118  L 216.95382 166.30518  L 216.689222 165.81078  L 215.958249 162.597181  L 215.738576 174.545177  L 215.496061 177.264376  L 215.100878 185.092374  L 214.852652 186.410773  L 214.577775 185.833973  L 214.277391 180.889975  L 213.758857 180.560375  L 213.000852 177.264376  L 212.353636 165.81078  L 212.029647 161.608381  L 211.675582 159.218782  L 211.341314 161.690781  L 210.981157 158.229983  L 210.598158 157.817983  L 210.343459 149.989985  L 210.0564 151.308385  L 209.716802 154.439584  L 209.355884 170.095579  L 208.88037 168.447579  L 208.634809 169.765979  L 208.338232 163.997981  L 208.016527 160.207582  L 207.691016 159.218782  L 207.383398 156.829183  L 207.10243 148.836386  L 206.824507 144.633987  L 206.54925 144.304387  L 206.280846 152.791584  L 206.041757 131.532391  L 205.776398 148.836386  L 205.457739 154.109984  L 205.143649 163.833181  L 204.79301 145.375587  L 204.458742 150.813985  L 203.541599 141.585188  L 203.252636 141.667588  L 202.965577 141.502788  L 202.702502 136.80599  L 202.417347 138.618789  L 202.188537 136.88839  L 201.940691 133.592391  L 201.705409 132.109191  L 201.465178 129.472392  L 200.987761 137.794789  L 200.708696 132.273991  L 200.506156 131.532391  L 200.240416 131.120392  L 199.676577 110.108399  L 199.501067 127.000393  L 199.306902 120.655595  L 198.534812 156.829183  L 198.227574 158.724382  L 197.974018 163.173981  L 197.247994 150.072385  L 196.807126 190.777972  L 196.294683 187.069973  L 195.731224 187.399573  L 194.704054 174.627577  L 193.821556 173.968377  L 193.292362 178.005976  L 192.821417 183.609174  L 192.307451 183.773974  L 191.155026 197.12277  L 190.547404 202.808368  L 189.856786 203.055568  L 189.00208 190.365972  L 188.077704 186.163573  L 186.992665 189.789172  L 186.375525 191.437171  L 185.770188 179.241976  L 185.144292 171.084378  L 184.551899 166.96438  L 183.058733 169.106779  L 182.477 158.394782  L 181.867856 159.136382  L 181.321149 152.791584  L 180.735608 153.615584  L 179.697017 138.124389  L 179.413003 142.573988  L 178.682791 145.869987  L 177.965524 150.072385  L 177.223129 136.72359  L 176.577816 129.884392  L 175.997225 127.824393  L 175.418538 127.082793  L 174.933126 118.101196  L 173.715598 125.764393  L 173.083611 124.445994  L 172.76381 122.468394  L 172.246418 128.565992  L 171.304528 120.902795  L 170.911249 119.749195  L 170.425837 127.412393  L 169.396764 129.884392  L 168.363502 128.977992  L 167.838876 125.517193  L 167.314251 128.483592  L 167.077826 128.318793  L 166.548632 136.47639  L 165.974133 130.378792  L 165.302551 131.037992  L 163.32778 166.88198  L 161.222044 192.178771  L 159.830529 190.118772  L 159.822534 184.927574  L 159.295244 186.493173  L 159.295244 186.493173  " style="fill:none;stroke:#1f77b4;stroke-linecap:square;"/>
   </g>
   <g id="line2d_15">
    <path clip-path="url(#pa82904d392)" d="M 177.223129 136.72359  L 176.976425 142.326788  L 176.582385 130.708392  L 176.208903 141.337988  L 174.866501 128.483592  L 174.24365 127.824393  L 173.945931 122.797994  L 173.376381 122.880394  L 173.098078 128.977992  L 172.546041 128.318793  L 172.262027 125.022794  L 171.713416 125.764393  L 171.437398 120.820395  L 170.86366 121.726795  L 170.56556 130.213992  L 170.252231 123.292394  L 169.922912 122.550794  L 169.202979 129.637192  L 168.827594 137.877189  L 168.154109 128.401192  L 167.972888 132.273991  L 167.592934 130.873192  L 167.399912 132.191591  L 167.19166 129.884392  L 166.805234 130.625992  L 166.596602 132.685991  L 166.390255 130.543592  L 165.733901 136.64119  L 165.51499 133.180391  L 165.090492 135.56999  L 164.874246 135.07559  L 164.680843 133.015591  L 164.527795 133.674791  L 164.403301 137.465189  L 164.248731 145.787587  L 163.749994 151.637985  L 163.643013 156.334783  L 163.094783 175.121977  L 162.76356 168.941979  L 162.166218 185.092374  L 161.726872 183.279574  L 161.317603 185.174774  L 160.887395 191.107572  L 160.436247 189.953972  L 159.993475 190.283572  L 159.535094 189.706772  L 159.074809 192.096371  L 158.444725 190.448372  L 157.991293 188.470772  L 157.55309 184.680374  L 157.138872 189.953972  L 156.690008 190.365972  L 156.250282 187.317173  L 155.389866 192.673171  L 154.928819 196.87557  L 154.495565 197.534769  L 154.037945 187.811573  L 153.764211 188.635572  L 153.570427 184.515574  L 152.037667 199.017969  L 151.511899 195.96917  L 150.993365 191.437171  L 150.652625 187.069973  L 150.482826 183.114774  L 149.979139 184.680374  L 149.442331 187.729173  L 148.90971 188.553172  L 148.126198 185.998773  L 147.940789 178.582776  L 147.689517 175.945977  L 147.5102 167.293979  L 147.260451 164.40998  L 147.08951 155.345983  L 146.816537 155.181184  L 146.690139 153.780384  L 146.306759 157.405983  L 145.903201 164.080381  L 145.501165 164.32758  L 144.761055 159.136382  L 144.548996 161.278782  L 144.006477 175.863577  L 143.639467 171.743578  L 143.286544 172.073178  L 142.61344 165.48118  L 142.291354 165.48118  L 141.980691 165.64598  L 141.671931 164.162781  L 141.379922 164.245181  L 141.085629 165.56358  L 140.53283 156.746783  L 140.372549 157.653183  L 140.25567 147.847586  L 140.073307 150.731585  L 139.97927 156.252383  L 139.704013 155.675583  L 139.419999 152.873984  L 138.831033 158.641982  L 138.232168 159.795582  L 137.937494 159.630782  L 137.357664 161.361181  L 137.069082 161.278782  L 136.788114 164.32758  L 136.49839 166.14038  L 136.214757 165.97558  L 135.928078 168.117979  L 135.63607 165.97558  L 135.355863 165.64598  L 135.0669 164.98678  L 134.781364 164.82198  L 134.511817 163.256381  L 134.247601 163.421181  L 133.966252 162.102781  L 133.672721 161.690781  L 133.397083 159.877982  L 133.12944 160.866782  L 132.839335 158.147583  L 132.545803 163.833181  L 132.256079 161.361181  L 131.967877 162.349981  L 131.682341 156.746783  L 131.395282 159.877982  L 131.118121 159.053982  L 130.572936 155.922783  L 130.312527 152.461984  L 129.816074 153.862784  L 129.567848 154.027584  L 129.325332 152.049985  L 128.846012 155.510783  L 128.112373 156.829183  L 127.861101 161.031582  L 127.608306 161.855581  L 127.33914 163.585981  L 126.485957 171.001978  L 125.916026 173.885977  L 125.614119 174.627577  L 125.306501 174.297977  L 124.638727 191.354771  L 124.250778 196.46357  L 124.012069 199.182769  L 123.838082 191.519571  L 123.409016 191.849171  L 122.983376 187.234773  L 122.557356 186.081173  L 122.123721 180.725175  L 121.68666 182.125975  L 121.233989 187.234773  L 120.779034 188.388372  L 120.325602 184.680374  L 119.885115 182.867574  L 119.438155 183.444374  L 119.008708 183.361974  L 118.570124 187.564373  L 118.167708 189.294772  L 117.802602 180.148375  L 117.436735 178.829976  L 117.095233 174.957177  L 116.602587 172.979578  L 116.477713 169.683579  L 116.173902 174.627577  L 115.903213 171.908378  L 115.650037 171.331578  L 115.410948 169.353979  L 114.807514 150.896385  L 114.691777 155.098784  L 114.607639 149.742785  L 114.218929 159.960382  L 114.027809 162.926781  L 113.915118 166.88198  L 113.835167 166.46998  L 113.631104 166.38758  L 113.428563 168.035579  L 113.234018 165.31638  L 113.04861 165.06918  L 112.869293 162.844381  L 112.725002 163.256381  L 112.358373 156.499583  L 112.199234 153.697984  L 112.03743 153.615584  L 111.884382 152.132385  L 111.582094 148.177186  L 111.434377 148.012386  L 111.290466 149.001186  L 110.995792 146.611586  L 110.850359 146.941186  L 110.703403 146.446786  L 110.555686 147.517986  L 110.413298 146.941186  L 110.262535 147.847586  L 110.114056 147.682786  L 109.965957 149.989985  L 109.817479 149.083586  L 109.670903 150.154785  L 109.363285 148.671586  L 109.207573 148.671586  L 109.052621 150.484385  L 108.895767 148.836386  L 108.740435 149.907585  L 108.582438 153.203584  L 108.259972 150.813985  L 108.098168 151.225985  L 107.930653 148.671586  L 107.587629 148.424386  L 107.411738 151.061185  L 107.234706 148.094786  L 107.047394 147.765186  L 106.856655 149.083586  L 106.659064 149.083586  L 106.458427 149.248386  L 106.254364 150.896385  L 106.044209 147.765186  L 105.824155 148.918786  L 105.344454 166.38758  L 104.453961 185.833973  L 104.30967 182.620374  L 102.98478 169.930779  L 102.097333 149.989985  L 101.852152 151.720385  L 100.934248 170.177979  L 100.328529 159.960382  L 100.035759 160.042782  L 99.826366 164.245181  L 99.321537 177.841176  L 98.968234 177.923576  L 98.769119 175.698777  L 98.210229 167.12918  L 97.658954 164.57478  L 97.127475 160.125182  L 96.596377 159.136382  L 94.595337 142.573988  L 94.135814 143.809987  L 93.685428 142.244388  L 92.775518 145.210787  L 92.31333 148.094786  L 91.315475 148.259586  L 90.778285 151.885185  L 89.710379 155.922783  L 89.156819 159.548382  L 88.594883 160.619582  L 88.259853 163.091581  L 87.635099 179.077176  L 87.335096 187.234773  L 86.784201 192.425971  L 86.460973 191.437171  L 85.811473 191.766771  L 85.485961 194.98037  L 84.82504 197.864369  L 84.483538 196.38117  L 83.924648 197.12277  L 83.479211 196.05157  L 82.824 201.489968  L 82.476787 200.336368  L 81.850511 199.429969  L 81.546319 199.265169  L 80.991236 196.21637  L 80.683618 195.80437  L 80.206582 200.748368  L 79.877263 199.182769  L 79.360252 197.864369  L 79.112025 195.63957  L 78.61976 201.407568  L 78.366585 197.946769  L 77.892213 203.055568  L 77.646271 203.467567  L 77.256038 198.523569  L 76.978497 196.95797  L 76.565801 192.673171  L 76.338895 192.425971  L 75.732796 200.253968  L 75.333045 205.857167  L 74.778343 202.396368  L 74.523644 199.759569  L 74.135695 201.407568  L 73.931251 200.418768  L 73.555866 200.336368  L 73.002686 209.317965  L 72.801288 209.070766  L 72.488721 213.849964  L 72.27019 214.756364  L 71.750514 209.070766  L 71.277665 200.171569  L 70.855071 195.80437  L 70.611413 197.534769  L 70.166357 192.425971  L 69.216853 174.874777  L 68.995657 177.017176  L 68.860884 179.818775  L 68.653775 178.500376  L 68.534992 177.017176  L 68.18816 166.63478  L 67.950975 165.97558  L 67.822293 166.38758  L 67.639549 172.402778  L 67.50668 170.754778  L 67.18726 178.005976  L 66.954642 177.099576  L 66.606288 172.732378  L 66.162374 176.934776  L 65.960595 176.934776  L 65.855137 175.369177  L 65.653357 175.286777  L 65.551326 175.121977  L 65.26084 171.249178  L 65.091422 171.331578  L 64.976826 168.859579  L 64.693574 167.623579  L 64.243569 161.855581  L 64.156385 162.597181  L 63.995342 161.855581  L 63.881508 158.477182  L 63.618434 162.679581  L 63.436833 158.394782  L 63.35003 163.338781  L 63.093808 161.196382  L 62.947233 162.102781  L 62.840252 161.773181  L 62.677686 164.245181  L 62.592025 162.679581  L 62.344941 163.256381  L 62.181614 162.185181  L 62.093288 163.009181  L 61.84925 160.949182  L 61.680974 161.113982  L 61.591506 160.372382  L 61.422468 162.844381  L 61.336807 162.679581  L 61.173099 162.185181  L 61.079443 164.245181  L 60.638956 165.81078  L 60.537685 168.282779  L 60.349612 169.601179  L 60.265093 168.529979  L 60.062933 168.612379  L 59.957856 169.930779  L 59.775113 167.705979  L 59.639959 168.612379  L 59.101627 167.21158  L 58.785634 164.65718  L 58.63487 164.32758  L 58.320019 165.64598  L 58.029914 163.421181  L 57.863541 167.870779  L 57.585238 167.788379  L 57.483206 168.200379  L 56.237886 175.121977  L 56.025828 174.709977  L 55.575061 175.945977  L 55.037491 176.110777  L 54.652969 172.979578  L 54.48355 173.473977  L 54.143952 176.769976  L 53.926944 173.144378  L 53.426304 187.234773  L 52.773758 204.291567  L 52.387332 201.407568  L 51.807121 186.163573  L 51.532626 182.043575  L 51.116123 180.313175  L 50.990106 180.477975  L 50.616625 182.867574  L 50.382865 186.163573  L 50.048597 185.916373  L 49.902022 184.680374  L 49.5708 187.646773  L 49.365213 186.822773  L 49.046935 187.152373  L 48.912543 186.905173  L 48.387917 188.058773  L 48.140452 187.976373  L 47.99578 187.317173  L 47.686639 188.223573  L 47.531688 186.493173  L 47.260238 188.141173  L 46.89399 186.987573  L 46.748937 185.257173  L 46.423426 190.283572  L 46.187382 187.976373  L 46.04233 183.361974  L 45.823799 184.680374  L 45.735473 182.043575  L 45.498288 182.620374  L 45.023155 193.167571  L 44.589139 208.741166  L 44.305887 208.988366  L 44.197003 210.636365  L 43.904613 209.565165  L 43.720728 205.939567  L 43.463745 206.433966  L 43.32821 207.505166  L 42.850793 206.186767  L 42.472743 207.669966  L 42.165506 205.280367  L 41.987711 207.175566  L 41.740627 207.175566  L 41.610423 207.505166  L 41.301282 206.681166  L 40.813585 203.879567  L 40.706224 204.538767  L 40.392134 202.725968  L 40.190735 199.512369  L 39.895681 201.242768  L 39.753674 194.23877  L 39.370674 198.358769  L 39.214581 194.81557  L 38.271549 182.537974  L 37.856189 175.533977  L 37.743116 178.747576  L 37.660882 176.852376  L 37.50555 176.605176  L 36.889933 185.669173  L 36.527111 186.328373  L 36.294494 181.466775  L 35.987257 178.170776  L 35.816697 178.994776  L 35.676974 170.177979  L 35.582557 173.721177  L 35.462631 171.496378  L 35.240294 172.732378  L 34.75412 178.417976  L 34.378735 180.230775  L 33.7852 172.897178  L 33.634817 173.721177  L 33.458165 168.200379  L 33.35423 169.930779  L 32.9975 159.877982  L 32.894706 162.020381  L 32.793436 160.289982  L 32.622876 167.04678  L 32.482772 165.89318  L 32.114621 166.63478  L 31.350144 157.982783  L 30.974759 159.383582  L 30.74671 155.181184  L 30.396452 153.203584  L 30.265486 153.368384  L 29.923604 153.615584  L 29.708119 155.181184  L 29.363952 151.390785  L 29.232986 156.087583  L 28.881586 151.225985  L 28.682091 153.285984  L 28.22371 148.424386  L 27.887158 152.709184  L 27.679668 149.577985  L 27.262023 145.705187  L 26.958212 141.667588  L 26.772042 144.469187  L 26.407698 151.885185  L 26.082567 167.04678  L 25.894494 169.683579  L 25.600581 176.357976  L 25.454006 173.803577  L 25.091184 178.665176  L 24.866562 187.152373  L 24.538386 188.058773  L 24.417699 183.938774  L 23.67835 195.30997  L 23.196745 200.171569  L 22.956133 200.913168  L 22.418182 198.770769  L 22.418182 198.770769  " style="fill:none;stroke:#17becf;stroke-linecap:square;"/>
   </g>
   <g id="line2d_16">
    <path clip-path="url(#pa82904d392)" d="M 0 0  " style="fill:none;stroke:#17becf;stroke-linecap:square;"/>
   </g>
   <g id="patch_3">
    <path d="M 7.2 224.64  L 7.2 7.2  " style="fill:none;stroke:#000000;stroke-linecap:square;stroke-linejoin:miter;stroke-width:0.8;"/>
   </g>
   <g id="patch_4">
    <path d="M 342 224.64  L 342 7.2  " style="fill:none;stroke:#000000;stroke-linecap:square;stroke-linejoin:miter;stroke-width:0.8;"/>
   </g>
   <g id="patch_5">
    <path d="M 7.2 224.64  L 342 224.64  " style="fill:none;stroke:#000000;stroke-linecap:square;stroke-linejoin:miter;stroke-width:0.8;"/>
   </g>
   <g id="patch_6">
    <path d="M 7.2 7.2  L 342 7.2  " style="fill:none;stroke:#000000;stroke-linecap:square;stroke-linejoin:miter;stroke-width:0.8;"/>
   </g>
   <g id="patch_7">
    <path d="M 305.813543 68.886987  Q 316.052144 99.065876 326.290744 129.244764  " style="fill:none;opacity:0.9;stroke:#000000;stroke-dasharray:3.33,1.44;stroke-dashoffset:0;stroke-linecap:round;stroke-width:0.9;"/>
   </g>
   <g id="patch_8">
    <path d="M 307.151088 18.862582  Q 316.054847 17.528123 324.958607 16.193664  " style="fill:none;opacity:0.9;stroke:#000000;stroke-dasharray:3.33,1.44;stroke-dashoffset:0;stroke-linecap:round;stroke-width:0.9;"/>
   </g>
   <g id="text_13">
    <switch style="font-family:DejaVu Sans;font-size:13px;font-stretch:normal;font-style:normal;font-weight:normal;"><text style="font-family:DejaVu Sans;font-size:13px;font-stretch:normal;font-style:normal;font-weight:normal;" transform="translate(31.688125 129.630044)" id="trsvg38-pt-br" systemLanguage="pt-br"><tspan id="trsvg14-pt-br">Era do Gelo</tspan></text><text style="font-family:DejaVu Sans;font-size:13px;font-stretch:normal;font-style:normal;font-weight:normal;" transform="translate(31.688125 129.630044)" id="trsvg38-nl" systemLanguage="nl"><tspan id="trsvg14-nl">IJstijd-</tspan></text><text style="font-family:DejaVu Sans;font-size:13px;font-stretch:normal;font-style:normal;font-weight:normal;" transform="translate(31.688125 129.630044)" id="trsvg38-ja" systemLanguage="ja"><tspan id="trsvg14-ja">氷河期</tspan></text><text style="font-family:DejaVu Sans;font-size:13px;font-stretch:normal;font-style:normal;font-weight:normal;" transform="translate(31.688125 129.630044)" id="trsvg38-id" systemLanguage="id"><tspan id="trsvg14-id">Siklus</tspan></text><text style="font-family:DejaVu Sans;font-size:13px;font-stretch:normal;font-style:normal;font-weight:normal;" transform="translate(31.688125 129.630044)" id="trsvg38-de" systemLanguage="de"><tspan id="trsvg14-de">Eiszeit</tspan></text><text style="font-family:DejaVu Sans;font-size:13px;font-stretch:normal;font-style:normal;font-weight:normal;" transform="translate(31.688125 129.630044)" id="trsvg38-el" systemLanguage="el"><tspan id="trsvg14-el">Κύκλοι</tspan></text><text style="font-family:DejaVu Sans;font-size:13px;font-stretch:normal;font-style:normal;font-weight:normal;" transform="translate(31.688125 129.630044)" id="trsvg38"><tspan id="trsvg14">Ice age </tspan></text></switch>
    <switch style="font-family:DejaVu Sans;font-size:13px;font-stretch:normal;font-style:normal;font-weight:normal;"><text style="font-family:DejaVu Sans;font-size:13px;font-stretch:normal;font-style:normal;font-weight:normal;" transform="translate(35.167656 144.1872)" id="trsvg39-pt-br" systemLanguage="pt-br"><tspan id="trsvg15-pt-br">Ciclos</tspan></text><text style="font-family:DejaVu Sans;font-size:13px;font-stretch:normal;font-style:normal;font-weight:normal;" transform="translate(35.167656 144.1872)" id="trsvg39-nl" systemLanguage="nl"><tspan id="trsvg15-nl">cycli</tspan></text><text style="font-family:DejaVu Sans;font-size:13px;font-stretch:normal;font-style:normal;font-weight:normal;" transform="translate(35.167656 144.1872)" id="trsvg39-ja" systemLanguage="ja"><tspan id="trsvg15-ja">サイクル</tspan></text><text style="font-family:DejaVu Sans;font-size:13px;font-stretch:normal;font-style:normal;font-weight:normal;" transform="translate(35.167656 144.1872)" id="trsvg39-id" systemLanguage="id"><tspan id="trsvg15-id">zaman es</tspan></text><text style="font-family:DejaVu Sans;font-size:13px;font-stretch:normal;font-style:normal;font-weight:normal;" transform="translate(35.167656 144.1872)" id="trsvg39-de" systemLanguage="de"><tspan id="trsvg15-de">Zyklen</tspan></text><text style="font-family:DejaVu Sans;font-size:13px;font-stretch:normal;font-style:normal;font-weight:normal;" transform="translate(35.167656 144.1872)" id="trsvg39-el" systemLanguage="el"><tspan id="trsvg15-el">Παγετώνων</tspan></text><text style="font-family:DejaVu Sans;font-size:13px;font-stretch:normal;font-style:normal;font-weight:normal;" transform="translate(35.167656 144.1872)" id="trsvg39"><tspan id="trsvg15"> cycles</tspan></text></switch>
   </g>
  </g>
  <g id="axes_2">
   <g id="patch_9">
    <path d="M 39.3 68.54  L 305.7 68.54  L 305.7 18.14  L 39.3 18.14  z " style="fill:#ffffff;"/>
   </g>
   <g id="matplotlib.axis_3">
    <g id="xtick_6">
     <g id="line2d_17">
      <defs>
       <path d="M 0 0  L 0 -3.5  " id="m1dc79ce284" style="stroke:#000000;stroke-width:0.8;"/>
      </defs>
      <g>
       <use style="stroke:#000000;stroke-width:0.8;" x="39.3" xlink:href="#m1dc79ce284" y="68.54"/>
      </g>
     </g>
     <g id="text_14">
      <switch style="font-family:DejaVu Sans;font-size:13px;font-stretch:normal;font-style:normal;font-weight:normal;text-anchor:middle;"><text style="font-family:DejaVu Sans;font-size:13px;font-stretch:normal;font-style:normal;font-weight:normal;text-anchor:middle;" transform="rotate(-0, 39.3, 81.917969)" x="39.3" y="81.917969" id="trsvg40"><tspan id="trsvg16">1000</tspan></text></switch>
     </g>
    </g>
    <g id="xtick_7">
     <g id="line2d_18">
      <g>
       <use style="stroke:#000000;stroke-width:0.8;" x="101.542991" xlink:href="#m1dc79ce284" y="68.54"/>
      </g>
     </g>
     <g id="text_15">
      <switch style="font-family:DejaVu Sans;font-size:13px;font-stretch:normal;font-style:normal;font-weight:normal;text-anchor:middle;"><text style="font-family:DejaVu Sans;font-size:13px;font-stretch:normal;font-style:normal;font-weight:normal;text-anchor:middle;" transform="rotate(-0, 101.542991, 81.917969)" x="101.542991" y="81.917969" id="trsvg41"><tspan id="trsvg17">1250</tspan></text></switch>
     </g>
    </g>
    <g id="xtick_8">
     <g id="line2d_19">
      <g>
       <use style="stroke:#000000;stroke-width:0.8;" x="163.785981" xlink:href="#m1dc79ce284" y="68.54"/>
      </g>
     </g>
     <g id="text_16">
      <switch style="font-family:DejaVu Sans;font-size:13px;font-stretch:normal;font-style:normal;font-weight:normal;text-anchor:middle;"><text style="font-family:DejaVu Sans;font-size:13px;font-stretch:normal;font-style:normal;font-weight:normal;text-anchor:middle;" transform="rotate(-0, 163.785981, 81.917969)" x="163.785981" y="81.917969" id="trsvg42"><tspan id="trsvg18">1500</tspan></text></switch>
     </g>
    </g>
    <g id="xtick_9">
     <g id="line2d_20">
      <g>
       <use style="stroke:#000000;stroke-width:0.8;" x="226.028972" xlink:href="#m1dc79ce284" y="68.54"/>
      </g>
     </g>
     <g id="text_17">
      <switch style="font-family:DejaVu Sans;font-size:13px;font-stretch:normal;font-style:normal;font-weight:normal;text-anchor:middle;"><text style="font-family:DejaVu Sans;font-size:13px;font-stretch:normal;font-style:normal;font-weight:normal;text-anchor:middle;" transform="rotate(-0, 226.028972, 81.917969)" x="226.028972" y="81.917969" id="trsvg43"><tspan id="trsvg19">1750</tspan></text></switch>
     </g>
    </g>
    <g id="xtick_10">
     <g id="line2d_21">
      <g>
       <use style="stroke:#000000;stroke-width:0.8;" x="288.271963" xlink:href="#m1dc79ce284" y="68.54"/>
      </g>
     </g>
     <g id="text_18">
      <switch style="font-family:DejaVu Sans;font-size:13px;font-stretch:normal;font-style:normal;font-weight:normal;text-anchor:middle;"><text style="font-family:DejaVu Sans;font-size:13px;font-stretch:normal;font-style:normal;font-weight:normal;text-anchor:middle;" transform="rotate(-0, 288.271963, 81.917969)" x="288.271963" y="81.917969" id="trsvg44"><tspan id="trsvg20">2000</tspan></text></switch>
     </g>
    </g>
    <g id="text_19">
     <switch style="font-family:DejaVu Sans;font-size:13px;font-stretch:normal;font-style:normal;font-weight:normal;text-anchor:middle;"><text style="font-family:DejaVu Sans;font-size:13px;font-stretch:normal;font-style:normal;font-weight:normal;text-anchor:middle;" transform="rotate(-0, 172.5, 94.299531)" x="172.5" y="94.299531" id="trsvg45-pt-br" systemLanguage="pt-br"><tspan id="trsvg21-pt-br">ano (EC)</tspan></text><text style="font-family:DejaVu Sans;font-size:13px;font-stretch:normal;font-style:normal;font-weight:normal;text-anchor:middle;" transform="rotate(-0, 172.5, 94.299531)" x="172.5" y="94.299531" id="trsvg45-nl" systemLanguage="nl"><tspan id="trsvg21-nl">jaar (CE)</tspan></text><text style="font-family:DejaVu Sans;font-size:13px;font-stretch:normal;font-style:normal;font-weight:normal;text-anchor:middle;" transform="rotate(-0, 172.5, 94.299531)" x="172.5" y="94.299531" id="trsvg45-ja" systemLanguage="ja"><tspan id="trsvg21-ja">年 (西暦)</tspan></text><text style="font-family:DejaVu Sans;font-size:13px;font-stretch:normal;font-style:normal;font-weight:normal;text-anchor:middle;" transform="rotate(-0, 172.5, 94.299531)" x="172.5" y="94.299531" id="trsvg45-id" systemLanguage="id"><tspan id="trsvg21-id">tahun</tspan></text><text style="font-family:DejaVu Sans;font-size:13px;font-stretch:normal;font-style:normal;font-weight:normal;text-anchor:middle;" transform="rotate(-0, 172.5, 94.299531)" x="172.5" y="94.299531" id="trsvg45-de" systemLanguage="de"><tspan id="trsvg21-de">Jahr (n. Chr.)</tspan></text><text style="font-family:DejaVu Sans;font-size:13px;font-stretch:normal;font-style:normal;font-weight:normal;text-anchor:middle;" transform="rotate(-0, 172.5, 94.299531)" x="172.5" y="94.299531" id="trsvg45-el" systemLanguage="el"><tspan id="trsvg21-el">Έτη (CE)</tspan></text><text style="font-family:DejaVu Sans;font-size:13px;font-stretch:normal;font-style:normal;font-weight:normal;text-anchor:middle;" transform="rotate(-0, 172.5, 94.299531)" x="172.5" y="94.299531" id="trsvg45"><tspan id="trsvg21">year (CE)</tspan></text></switch>
    </g>
   </g>
   <g id="matplotlib.axis_4">
    <g id="ytick_6">
     <g id="line2d_22">
      <g>
       <use style="stroke:#000000;stroke-width:0.8;" x="39.3" xlink:href="#m48fbb4c5bb" y="56.81907"/>
      </g>
     </g>
     <g id="text_20">
      <switch style="font-family:DejaVu Sans;font-size:13px;font-stretch:normal;font-style:normal;font-weight:normal;text-anchor:end;"><text style="font-family:DejaVu Sans;font-size:13px;font-stretch:normal;font-style:normal;font-weight:normal;text-anchor:end;" transform="rotate(-0, 35.8, 61.758054)" x="35.8" y="61.758054" id="trsvg46"><tspan id="trsvg22">300</tspan></text></switch>
     </g>
    </g>
    <g id="ytick_7">
     <g id="line2d_23">
      <g>
       <use style="stroke:#000000;stroke-width:0.8;" x="39.3" xlink:href="#m48fbb4c5bb" y="42.167907"/>
      </g>
     </g>
     <g id="text_21">
      <switch style="font-family:DejaVu Sans;font-size:13px;font-stretch:normal;font-style:normal;font-weight:normal;text-anchor:end;"><text style="font-family:DejaVu Sans;font-size:13px;font-stretch:normal;font-style:normal;font-weight:normal;text-anchor:end;" transform="rotate(-0, 35.8, 47.106891)" x="35.8" y="47.106891" id="trsvg47"><tspan id="trsvg23">350</tspan></text></switch>
     </g>
    </g>
    <g id="ytick_8">
     <g id="line2d_24">
      <g>
       <use style="stroke:#000000;stroke-width:0.8;" x="39.3" xlink:href="#m48fbb4c5bb" y="27.516744"/>
      </g>
     </g>
     <g id="text_22">
      <switch style="font-family:DejaVu Sans;font-size:13px;font-stretch:normal;font-style:normal;font-weight:normal;text-anchor:end;"><text style="font-family:DejaVu Sans;font-size:13px;font-stretch:normal;font-style:normal;font-weight:normal;text-anchor:end;" transform="rotate(-0, 35.8, 32.455729)" x="35.8" y="32.455729" id="trsvg48"><tspan id="trsvg24">400</tspan></text></switch>
     </g>
    </g>
   </g>
   <g id="line2d_25">
    <path clip-path="url(#p280991e1ae)" d="M 41.78972 62.972558  L 46.769159 62.972558  L 48.014019 62.679535  L 54.238318 62.679535  L 55.483178 62.386512  L 60.462617 62.386512  L 61.707477 62.093488  L 66.686916 62.093488  L 67.931776 61.800465  L 76.645794 61.800465  L 77.890654 61.507442  L 85.359813 61.507442  L 86.604673 61.800465  L 92.828972 61.800465  L 94.073832 62.093488  L 99.053271 62.093488  L 100.298131 62.386512  L 102.78785 62.386512  L 104.03271 62.093488  L 112.746729 62.093488  L 113.991589 61.800465  L 121.460748 61.800465  L 122.705607 62.093488  L 126.440187 62.093488  L 127.685047 62.386512  L 131.419626 62.386512  L 132.664486 62.679535  L 157.561682 62.679535  L 158.806542 62.386512  L 162.541121 62.386512  L 163.785981 62.093488  L 167.520561 62.093488  L 168.765421 61.800465  L 174.98972 61.800465  L 176.234579 62.093488  L 178.724299 62.093488  L 179.969159 62.386512  L 181.214019 62.386512  L 184.948598 63.265581  L 186.193458 63.265581  L 189.928037 64.144651  L 197.397196 64.144651  L 198.642056 63.851628  L 216.070093 63.851628  L 217.314953 63.558605  L 221.049533 63.558605  L 222.294393 63.851628  L 224.784112 63.851628  L 226.028972 63.558605  L 228.518692 63.558605  L 229.763551 63.265581  L 231.008411 63.265581  L 233.498131 62.679535  L 234.742991 62.679535  L 237.23271 62.093488  L 238.47757 62.093488  L 239.72243 61.800465  L 240.96729 61.800465  L 242.21215 61.507442  L 249.681308 61.507442  L 250.926168 61.214419  L 252.171028 61.214419  L 258.395327 59.749302  L 259.640187 59.163256  L 260.885047 58.870233  L 262.129907 58.284186  L 263.374766 57.991163  L 264.619626 57.405116  L 265.864486 57.112093  L 268.354206 55.94  L 269.599065 55.646977  L 272.088785 54.474884  L 274.578505 53.888837  L 278.313084 52.130698  L 280.802804 49.786512  L 282.047664 48.321395  L 282.047664 48.321395  " style="fill:none;stroke:#2ca02c;stroke-linecap:square;stroke-width:1.9;"/>
   </g>
   <g id="line2d_26">
    <path clip-path="url(#p280991e1ae)" d="M 278.064112 52.13607  L 278.313084 51.864047  L 278.562056 51.648919  L 278.811028 51.41157  L 279.06 51.253826  L 279.308972 51.07093  L 279.557944 50.94786  L 279.806916 50.557407  L 280.055888 50.31957  L 280.30486 50.064884  L 280.553832 49.604105  L 280.802804 49.293744  L 281.051776 49.106698  L 281.300748 48.773628  L 281.54972 48.122872  L 281.798692 47.956826  L 282.047664 47.690663  L 282.296636 47.397884  L 282.545607 46.885337  L 282.794579 46.415279  L 283.043551 46.020919  L 283.292523 45.483709  L 283.541495 45.117674  L 283.790467 44.766535  L 284.039439 44.283047  L 284.288411 43.802733  L 284.537383 43.36857  L 284.786355 43.002047  L 285.035327 42.480465  L 285.284299 41.732767  L 285.533271 41.315453  L 285.782243 40.94136  L 286.031215 40.529663  L 286.280187 40.300372  L 286.529159 40.104535  L 286.778131 39.564151  L 287.027103 38.981035  L 287.276075 38.463849  L 287.525047 38.13493  L 287.774019 37.29493  L 288.022991 36.801919  L 288.271963 36.461279  L 288.520935 36.008802  L 288.769907 35.400291  L 289.018879 34.655767  L 289.26785 34.149814  L 289.516822 33.49393  L 289.765794 32.84757  L 290.014766 32.324523  L 290.263738 31.780477  L 290.51271 31.220558  L 290.761682 30.476279  L 291.010654 29.963977  L 291.259626 29.312977  L 291.508598 28.522791  L 291.75757 27.922826  L 292.006542 27.257419  L 292.255514 26.263337  L 292.504486 25.587186  L 292.753458 25.000407  L 293.00243 24.148686  " style="fill:none;stroke:#000000;stroke-linecap:square;stroke-width:1.7;"/>
   </g>
   <g id="patch_10">
    <path d="M 39.3 68.54  L 39.3 18.14  " style="fill:none;stroke:#000000;stroke-linecap:square;stroke-linejoin:miter;stroke-width:0.8;"/>
   </g>
   <g id="patch_11">
    <path d="M 305.7 68.54  L 305.7 18.14  " style="fill:none;stroke:#000000;stroke-linecap:square;stroke-linejoin:miter;stroke-width:0.8;"/>
   </g>
   <g id="patch_12">
    <path d="M 39.3 68.54  L 305.7 68.54  " style="fill:none;stroke:#000000;stroke-linecap:square;stroke-linejoin:miter;stroke-width:0.8;"/>
   </g>
   <g id="patch_13">
    <path d="M 39.3 18.14  L 305.7 18.14  " style="fill:none;stroke:#000000;stroke-linecap:square;stroke-linejoin:miter;stroke-width:0.8;"/>
   </g>
   <g id="patch_14">
    <path d="M 193.310535 41.906297  Q 208.777105 49.648408 222.744019 56.639835  " style="fill:none;opacity:0.7;stroke:#000000;stroke-linecap:round;stroke-width:1.5;"/>
    <path d="M 219.257876 51.987222  L 222.744019 56.639835  L 216.930243 56.637182  " style="fill:none;opacity:0.7;stroke:#000000;stroke-linecap:round;stroke-width:1.5;"/>
   </g>
   <g id="text_23">
    <switch style="font-family:DejaVu Sans;font-size:13px;font-stretch:normal;font-style:normal;font-weight:normal;text-anchor:start;"><text style="font-family:DejaVu Sans;font-size:13px;font-stretch:normal;font-style:normal;font-weight:normal;text-anchor:start;" transform="rotate(-0, 89.094393, 36.307442)" x="89.094393" y="36.307442" id="trsvg49-pt-br" systemLanguage="pt-br"><tspan id="trsvg25-pt-br">Começo da Rev. Industrial</tspan></text><text style="font-family:DejaVu Sans;font-size:13px;font-stretch:normal;font-style:normal;font-weight:normal;text-anchor:start;" transform="rotate(-0, 89.094393, 36.307442)" x="89.094393" y="36.307442" id="trsvg49-nl" systemLanguage="nl"><tspan id="trsvg25-nl">Start Industriële revolutie</tspan></text><text style="font-family:DejaVu Sans;font-size:13px;font-stretch:normal;font-style:normal;font-weight:normal;text-anchor:start;" transform="rotate(-0, 89.094393, 36.307442)" x="89.094393" y="36.307442" id="trsvg49-ja" systemLanguage="ja"><tspan id="trsvg25-ja">産業革命の開始</tspan></text><text style="font-family:DejaVu Sans;font-size:13px;font-stretch:normal;font-style:normal;font-weight:normal;text-anchor:start;" transform="rotate(-0, 89.094393, 36.307442)" x="89.094393" y="36.307442" id="trsvg49-id" systemLanguage="id"><tspan id="trsvg25-id">Revolusi industri mulai</tspan></text><text style="font-family:DejaVu Sans;font-size:13px;font-stretch:normal;font-style:normal;font-weight:normal;text-anchor:start;" transform="rotate(-0, 89.094393, 36.307442)" x="89.094393" y="36.307442" id="trsvg49-de" systemLanguage="de"><tspan id="trsvg25-de">industrielle Revolution startet</tspan></text><text style="font-family:DejaVu Sans;font-size:13px;font-stretch:normal;font-style:normal;font-weight:normal;text-anchor:start;" transform="rotate(-0, 89.094393, 36.307442)" x="89.094393" y="36.307442" id="trsvg49-el" systemLanguage="el"><tspan id="trsvg25-el">Έναρξη βιομηχανικής επανάστασης</tspan></text><text style="font-family:DejaVu Sans;font-size:13px;font-stretch:normal;font-style:normal;font-weight:normal;text-anchor:start;" transform="rotate(-0, 89.094393, 36.307442)" x="89.094393" y="36.307442" id="trsvg49"><tspan id="trsvg25">Industrial revolution starts</tspan></text></switch>
   </g>
  </g>
 </g>
 <defs>
  <clipPath id="pa82904d392">
   <rect height="217.44" width="334.8" x="7.2" y="7.2"/>
  </clipPath>
  <clipPath id="p280991e1ae">
   <rect height="50.4" width="266.4" x="39.3" y="18.14"/>
  </clipPath>
 </defs>
</svg>
