<svg width="628" height="715" viewBox="0 0 628 715" fill="none" xmlns="http://www.w3.org/2000/svg">
<g clip-path="url(#clip0_1001_1925)">
<path d="M76.7273 159.89C14.704 263.705 79.8951 363.519 114.742 404.553C169.962 351.62 257.462 368.135 294.309 383.01C368.737 417.478 423.357 411.734 441.364 404.553C580.616 314.689 566.744 204.001 542.402 159.89C485.18 24.8893 368.17 0.0297596 316.817 4.47507C151.955 18.0162 84.3968 116.463 76.7273 159.89Z" fill="#80B2FF" stroke="#545454" stroke-width="10"/>
<path d="M436.827 235.054C401 268.5 346.994 247.72 324.539 242.192C302.149 172.921 340.327 145.054 376.827 124.054C413.327 103.054 458.827 117.554 490.827 112.554C484.827 186.554 453 219.956 436.827 235.054Z" fill="#9ACE96" stroke="#FFFFF0" stroke-width="5"/>
<path d="M116 410C135.833 387.5 200.6 350.1 301 380.5C372.5 418 524.9 434.8 564.5 230" stroke="#545454" stroke-width="10"/>
<path d="M380.516 492.679C236.907 523.801 147.168 448.693 119.5 407C161.903 352.241 250.664 366.525 294.5 379C471.311 467.244 550.193 324.595 563.527 244C572.728 393.306 445.353 471.997 380.516 492.679Z" fill="#E6ECCC" stroke="#545454"/>
<path d="M297 280.5C300.134 295.203 305.364 334.15 301.363 374.31" stroke="#FFFFF0" stroke-width="7"/>
<path d="M133.819 54.3871C12.0075 184.459 60.7858 343.667 105.678 401C146.282 367.541 229.088 386.71 256.057 387.582C44.1934 187.665 288.888 79.4806 444 51.9467C310.128 -44.2477 182.899 1.9333 133.819 54.3871Z" fill="#488EF8" stroke="#488EF8" stroke-width="10"/>
<path d="M349.97 396.994C222.514 336.83 140.883 381.624 116 406.692C261.091 523.283 418.883 432.751 477 379.5C441.328 409.769 375.688 404.935 349.97 396.994Z" fill="#2E4E3F" stroke="#545454" stroke-width="10"/>
<path d="M158.5 226.103C193.3 260.903 264.667 252.167 287.5 248.5C315.5 181.301 285.5 150.5 266 135C232 107 173 127 122.5 122C122.5 179.2 145.5 211.5 158.5 226.103Z" fill="#9ACE96" stroke="#FFFFF0" stroke-width="5"/>
<path d="M190 167C233 180.5 279.3 191.7 296.5 282.5C313.5 248.5 366 187 438.5 145.5" stroke="#FFFFF0" stroke-width="5"/>
</g>
<rect x="62" y="5" width="501" height="496" rx="248" stroke="#545454" stroke-width="10"/>
<path d="M163.816 594.264V603.96H189.448V594.264H163.816ZM153.064 584.472H200.776V613.656H153.064V584.472ZM186.472 621.912L196.072 617.112C201.16 622.968 206.728 630.936 209.416 636.216L199.432 641.88C196.936 636.504 191.368 628.056 186.472 621.912ZM145.768 568.536H207.4V579.192H145.768V568.536ZM170.44 557.496H182.152V574.008H170.44V557.496ZM171.4 609.816H182.632V635.736C182.632 641.016 181.768 643.992 178.12 645.72C174.472 647.448 169.672 647.448 163.144 647.448C162.76 644.28 161.416 639.768 159.976 636.696C163.912 636.888 168.424 636.888 169.672 636.888C171.016 636.888 171.4 636.504 171.4 635.448V609.816ZM154.888 617.592L165.832 620.856C162.28 628.536 156.424 637.176 151.528 642.552C149.416 640.632 144.904 637.464 142.312 635.928C147.112 631.224 152.008 624.216 154.888 617.592ZM123.496 566.424L129.832 557.88C135.784 560.184 143.368 564.12 147.208 567.384L140.392 576.984C136.936 573.528 129.448 569.112 123.496 566.424ZM117.832 592.44L124.168 583.608C130.024 585.816 137.896 589.56 141.832 592.824L135.112 602.52C131.56 599.256 123.88 594.936 117.832 592.44ZM120.616 639.096C125.416 631.8 132.232 619.704 137.512 608.472L146.44 615.864C141.736 626.04 136.168 637.08 130.792 646.488L120.616 639.096ZM219.304 580.44H245.896V591H219.304V580.44ZM227.752 558.84H238.408V623.16H227.752V558.84ZM217.768 624.6C224.872 622.488 235.528 618.648 245.8 614.904L247.912 625.176C238.888 629.016 229.288 632.856 221.32 636.024L217.768 624.6ZM253.48 570.84H307.144V581.304H253.48V570.84ZM255.208 591.672H271.048V600.984H255.208V591.672ZM248.776 570.84H259.336V602.904C259.336 617.016 257.704 636.312 246.952 648.024C245.32 646.008 241 642.264 238.6 640.92C247.912 630.456 248.776 615.096 248.776 602.808V570.84ZM266.92 591.672H276.424C276.424 591.672 276.424 594.264 276.328 595.416C276.04 617.016 275.656 625.56 273.736 628.344C272.2 630.36 270.664 631.224 268.36 631.608C266.44 631.992 263.368 632.088 260.2 631.992C259.912 629.112 259.048 625.08 257.704 622.584C260.104 622.872 262.024 622.872 263.08 622.872C264.136 622.872 264.808 622.584 265.48 621.72C266.44 620.184 266.728 613.368 266.92 593.304V591.672ZM277.672 557.4H288.52C287.752 596.376 292.84 635.832 298.792 635.832C300.136 635.832 301 631.32 301.288 621.432C303.4 623.928 306.76 626.328 309.352 627.48C307.912 642.456 304.936 646.584 297.352 646.584C281.224 646.584 277.96 600.312 277.672 557.4ZM288.616 561.624L296.488 557.016C300.04 560.376 304.168 565.08 305.896 568.344L297.448 573.336C295.912 570.168 292.072 565.176 288.616 561.624ZM296.488 590.808L306.856 592.728C301 617.592 289.768 636.408 272.68 647.832C271.048 645.816 267.016 641.784 264.712 640.056C281.512 630.264 291.688 613.176 296.488 590.808ZM329.512 580.824H354.856V591H329.512V580.824ZM324.328 562.2H335.272V633.528L324.328 635.448V562.2ZM317.704 631.224C326.92 629.4 341.128 625.944 354.472 622.584L355.816 633.432C343.912 636.888 330.952 640.44 321.064 643.128L317.704 631.224ZM341.416 615.864L350.728 611.352C356.68 619.608 363.112 630.456 365.416 637.848L355.336 643.032C353.224 635.64 347.176 624.312 341.416 615.864ZM329.416 562.2H361.768V609.432H329.416V598.776H351.112V572.856H329.416V562.2ZM392.488 562.008H404.392V620.28C404.392 625.848 403.528 629.496 399.976 631.608C396.52 633.816 392.008 634.104 385.672 634.104C385.384 630.552 383.56 624.792 381.736 621.432C385.48 621.72 389.512 621.624 390.856 621.624C392.104 621.624 392.488 621.24 392.488 619.992V562.008ZM367.048 562.008H398.632V573.624H378.856V647.544H367.048V562.008ZM455.848 567.672H504.904V577.656H455.848V567.672ZM452.584 586.104H507.784V596.28H452.584V586.104ZM452.776 604.44H507.112V614.52H452.776V604.44ZM474.376 557.4H485.704V592.632H474.376V557.4ZM486.568 595.704H497.8V635.448C497.8 641.016 496.744 643.992 493 645.624C489.16 647.352 483.976 647.544 476.776 647.544C476.392 644.376 474.664 639.768 473.128 636.792C477.832 636.984 483.112 636.984 484.552 636.888C486.088 636.888 486.568 636.6 486.568 635.256V595.704ZM456.616 620.952L465.832 615.672C470.344 620.376 475.432 626.712 477.544 631.416L467.656 637.176C465.832 632.664 461.032 625.848 456.616 620.952ZM426.184 563.352H450.952V629.016H426.184V618.744H440.2V573.624H426.184V563.352ZM426.76 590.616H445.384V600.696H426.76V590.616ZM420.808 563.352H431.464V637.56H420.808V563.352Z" fill="#FFFFF0"/>
<line y1="694" x2="143" y2="694" stroke="#FFFFF0" stroke-width="10"/>
<mask id="path-14-outside-1_1001_1925" maskUnits="userSpaceOnUse" x="194" y="679" width="243" height="32" fill="black">
<rect fill="white" x="194" y="679" width="243" height="32"/>
<path d="M195.198 709V681H206.678C208.624 681 210.264 681.307 211.598 681.92C212.931 682.533 213.931 683.387 214.598 684.48C215.291 685.547 215.638 686.787 215.638 688.2C215.638 689.613 215.331 690.8 214.718 691.76C214.104 692.72 213.291 693.467 212.278 694C211.291 694.507 210.198 694.8 208.998 694.88L209.638 694.44C210.918 694.493 212.051 694.84 213.038 695.48C214.051 696.093 214.838 696.92 215.398 697.96C215.984 699 216.278 700.133 216.278 701.36C216.278 702.853 215.918 704.173 215.198 705.32C214.478 706.467 213.438 707.373 212.078 708.04C210.718 708.68 209.051 709 207.078 709H195.198ZM200.598 704.6H206.198C207.664 704.6 208.798 704.267 209.598 703.6C210.398 702.933 210.798 701.973 210.798 700.72C210.798 699.467 210.384 698.493 209.558 697.8C208.731 697.08 207.584 696.72 206.118 696.72H200.598V704.6ZM200.598 692.68H205.798C207.211 692.68 208.278 692.36 208.998 691.72C209.744 691.08 210.118 690.173 210.118 689C210.118 687.853 209.744 686.96 208.998 686.32C208.278 685.653 207.198 685.32 205.758 685.32H200.598V692.68ZM230.265 709.48C228.239 709.48 226.439 709.053 224.865 708.2C223.319 707.32 222.105 706.107 221.225 704.56C220.372 702.987 219.945 701.173 219.945 699.12C219.945 697.013 220.372 695.16 221.225 693.56C222.105 691.933 223.319 690.667 224.865 689.76C226.412 688.827 228.212 688.36 230.265 688.36C232.265 688.36 234.012 688.8 235.505 689.68C236.999 690.56 238.159 691.747 238.985 693.24C239.812 694.733 240.225 696.427 240.225 698.32C240.225 698.587 240.225 698.893 240.225 699.24C240.225 699.56 240.199 699.893 240.145 700.24H223.785V696.96H234.785C234.705 695.653 234.239 694.627 233.385 693.88C232.559 693.133 231.519 692.76 230.265 692.76C229.359 692.76 228.519 692.973 227.745 693.4C226.972 693.8 226.359 694.427 225.905 695.28C225.479 696.133 225.265 697.213 225.265 698.52V699.68C225.265 700.773 225.465 701.733 225.865 702.56C226.292 703.36 226.879 703.987 227.625 704.44C228.372 704.867 229.239 705.08 230.225 705.08C231.212 705.08 232.025 704.867 232.665 704.44C233.332 704.013 233.825 703.467 234.145 702.8H239.665C239.292 704.053 238.665 705.187 237.785 706.2C236.905 707.213 235.825 708.013 234.545 708.6C233.265 709.187 231.839 709.48 230.265 709.48ZM266.742 709.48C263.942 709.48 261.529 708.88 259.502 707.68C257.502 706.453 255.955 704.76 254.862 702.6C253.795 700.413 253.262 697.893 253.262 695.04C253.262 692.187 253.795 689.667 254.862 687.48C255.955 685.293 257.502 683.587 259.502 682.36C261.529 681.133 263.942 680.52 266.742 680.52C270.129 680.52 272.902 681.36 275.062 683.04C277.222 684.72 278.569 687.093 279.102 690.16H273.222C272.875 688.667 272.142 687.507 271.022 686.68C269.929 685.827 268.489 685.4 266.702 685.4C265.049 685.4 263.622 685.8 262.422 686.6C261.249 687.373 260.342 688.48 259.702 689.92C259.062 691.333 258.742 693.04 258.742 695.04C258.742 697.013 259.062 698.72 259.702 700.16C260.342 701.6 261.249 702.707 262.422 703.48C263.622 704.253 265.049 704.64 266.702 704.64C268.489 704.64 269.929 704.253 271.022 703.48C272.115 702.68 272.835 701.573 273.182 700.16H279.102C278.569 703.067 277.222 705.347 275.062 707C272.902 708.653 270.129 709.48 266.742 709.48ZM293.113 709.48C291.193 709.48 289.46 709.04 287.913 708.16C286.393 707.253 285.18 706.013 284.273 704.44C283.393 702.84 282.953 701.013 282.953 698.96C282.953 696.853 283.393 695.013 284.273 693.44C285.18 691.84 286.406 690.6 287.953 689.72C289.5 688.813 291.233 688.36 293.153 688.36C295.1 688.36 296.833 688.813 298.353 689.72C299.9 690.6 301.113 691.84 301.993 693.44C302.9 695.013 303.353 696.84 303.353 698.92C303.353 701 302.9 702.84 301.993 704.44C301.113 706.013 299.9 707.253 298.353 708.16C296.806 709.04 295.06 709.48 293.113 709.48ZM293.113 704.8C294.02 704.8 294.82 704.587 295.513 704.16C296.233 703.733 296.793 703.08 297.193 702.2C297.62 701.32 297.833 700.227 297.833 698.92C297.833 697.613 297.62 696.533 297.193 695.68C296.793 694.8 296.233 694.147 295.513 693.72C294.82 693.267 294.033 693.04 293.153 693.04C292.3 693.04 291.513 693.267 290.793 693.72C290.073 694.147 289.5 694.8 289.073 695.68C288.673 696.533 288.473 697.613 288.473 698.92C288.473 700.227 288.673 701.32 289.073 702.2C289.5 703.08 290.06 703.733 290.753 704.16C291.473 704.587 292.26 704.8 293.113 704.8ZM317.527 709.48C315.607 709.48 313.874 709.04 312.327 708.16C310.807 707.253 309.594 706.013 308.687 704.44C307.807 702.84 307.367 701.013 307.367 698.96C307.367 696.853 307.807 695.013 308.687 693.44C309.594 691.84 310.821 690.6 312.367 689.72C313.914 688.813 315.647 688.36 317.567 688.36C319.514 688.36 321.247 688.813 322.767 689.72C324.314 690.6 325.527 691.84 326.407 693.44C327.314 695.013 327.767 696.84 327.767 698.92C327.767 701 327.314 702.84 326.407 704.44C325.527 706.013 324.314 707.253 322.767 708.16C321.221 709.04 319.474 709.48 317.527 709.48ZM317.527 704.8C318.434 704.8 319.234 704.587 319.927 704.16C320.647 703.733 321.207 703.08 321.607 702.2C322.034 701.32 322.247 700.227 322.247 698.92C322.247 697.613 322.034 696.533 321.607 695.68C321.207 694.8 320.647 694.147 319.927 693.72C319.234 693.267 318.447 693.04 317.567 693.04C316.714 693.04 315.927 693.267 315.207 693.72C314.487 694.147 313.914 694.8 313.487 695.68C313.087 696.533 312.887 697.613 312.887 698.92C312.887 700.227 313.087 701.32 313.487 702.2C313.914 703.08 314.474 703.733 315.167 704.16C315.887 704.587 316.674 704.8 317.527 704.8ZM332.421 709V680.2H337.821V709H332.421ZM352.619 709V681H358.019L370.899 700.32V681H376.299V709H370.899L358.019 689.72V709H352.619ZM391.16 709.48C389.24 709.48 387.507 709.04 385.96 708.16C384.44 707.253 383.227 706.013 382.32 704.44C381.44 702.84 381 701.013 381 698.96C381 696.853 381.44 695.013 382.32 693.44C383.227 691.84 384.453 690.6 386 689.72C387.547 688.813 389.28 688.36 391.2 688.36C393.147 688.36 394.88 688.813 396.4 689.72C397.947 690.6 399.16 691.84 400.04 693.44C400.947 695.013 401.4 696.84 401.4 698.92C401.4 701 400.947 702.84 400.04 704.44C399.16 706.013 397.947 707.253 396.4 708.16C394.853 709.04 393.107 709.48 391.16 709.48ZM391.16 704.8C392.067 704.8 392.867 704.587 393.56 704.16C394.28 703.733 394.84 703.08 395.24 702.2C395.667 701.32 395.88 700.227 395.88 698.92C395.88 697.613 395.667 696.533 395.24 695.68C394.84 694.8 394.28 694.147 393.56 693.72C392.867 693.267 392.08 693.04 391.2 693.04C390.347 693.04 389.56 693.267 388.84 693.72C388.12 694.147 387.547 694.8 387.12 695.68C386.72 696.533 386.52 697.613 386.52 698.92C386.52 700.227 386.72 701.32 387.12 702.2C387.547 703.08 388.107 703.733 388.8 704.16C389.52 704.587 390.307 704.8 391.16 704.8ZM409.35 709L403.43 688.84H408.75L412.67 705.2L411.67 705.16L416.15 688.84H422.15L426.63 705.16L425.59 705.2L429.55 688.84H434.87L428.95 709H423.35L418.59 692.2H419.71L414.95 709H409.35Z"/>
</mask>
<path d="M195.198 709V681H206.678C208.624 681 210.264 681.307 211.598 681.92C212.931 682.533 213.931 683.387 214.598 684.48C215.291 685.547 215.638 686.787 215.638 688.2C215.638 689.613 215.331 690.8 214.718 691.76C214.104 692.72 213.291 693.467 212.278 694C211.291 694.507 210.198 694.8 208.998 694.88L209.638 694.44C210.918 694.493 212.051 694.84 213.038 695.48C214.051 696.093 214.838 696.92 215.398 697.96C215.984 699 216.278 700.133 216.278 701.36C216.278 702.853 215.918 704.173 215.198 705.32C214.478 706.467 213.438 707.373 212.078 708.04C210.718 708.68 209.051 709 207.078 709H195.198ZM200.598 704.6H206.198C207.664 704.6 208.798 704.267 209.598 703.6C210.398 702.933 210.798 701.973 210.798 700.72C210.798 699.467 210.384 698.493 209.558 697.8C208.731 697.08 207.584 696.72 206.118 696.72H200.598V704.6ZM200.598 692.68H205.798C207.211 692.68 208.278 692.36 208.998 691.72C209.744 691.08 210.118 690.173 210.118 689C210.118 687.853 209.744 686.96 208.998 686.32C208.278 685.653 207.198 685.32 205.758 685.32H200.598V692.68ZM230.265 709.48C228.239 709.48 226.439 709.053 224.865 708.2C223.319 707.32 222.105 706.107 221.225 704.56C220.372 702.987 219.945 701.173 219.945 699.12C219.945 697.013 220.372 695.16 221.225 693.56C222.105 691.933 223.319 690.667 224.865 689.76C226.412 688.827 228.212 688.36 230.265 688.36C232.265 688.36 234.012 688.8 235.505 689.68C236.999 690.56 238.159 691.747 238.985 693.24C239.812 694.733 240.225 696.427 240.225 698.32C240.225 698.587 240.225 698.893 240.225 699.24C240.225 699.56 240.199 699.893 240.145 700.24H223.785V696.96H234.785C234.705 695.653 234.239 694.627 233.385 693.88C232.559 693.133 231.519 692.76 230.265 692.76C229.359 692.76 228.519 692.973 227.745 693.4C226.972 693.8 226.359 694.427 225.905 695.28C225.479 696.133 225.265 697.213 225.265 698.52V699.68C225.265 700.773 225.465 701.733 225.865 702.56C226.292 703.36 226.879 703.987 227.625 704.44C228.372 704.867 229.239 705.08 230.225 705.08C231.212 705.08 232.025 704.867 232.665 704.44C233.332 704.013 233.825 703.467 234.145 702.8H239.665C239.292 704.053 238.665 705.187 237.785 706.2C236.905 707.213 235.825 708.013 234.545 708.6C233.265 709.187 231.839 709.48 230.265 709.48ZM266.742 709.48C263.942 709.48 261.529 708.88 259.502 707.68C257.502 706.453 255.955 704.76 254.862 702.6C253.795 700.413 253.262 697.893 253.262 695.04C253.262 692.187 253.795 689.667 254.862 687.48C255.955 685.293 257.502 683.587 259.502 682.36C261.529 681.133 263.942 680.52 266.742 680.52C270.129 680.52 272.902 681.36 275.062 683.04C277.222 684.72 278.569 687.093 279.102 690.16H273.222C272.875 688.667 272.142 687.507 271.022 686.68C269.929 685.827 268.489 685.4 266.702 685.4C265.049 685.4 263.622 685.8 262.422 686.6C261.249 687.373 260.342 688.48 259.702 689.92C259.062 691.333 258.742 693.04 258.742 695.04C258.742 697.013 259.062 698.72 259.702 700.16C260.342 701.6 261.249 702.707 262.422 703.48C263.622 704.253 265.049 704.64 266.702 704.64C268.489 704.64 269.929 704.253 271.022 703.48C272.115 702.68 272.835 701.573 273.182 700.16H279.102C278.569 703.067 277.222 705.347 275.062 707C272.902 708.653 270.129 709.48 266.742 709.48ZM293.113 709.48C291.193 709.48 289.46 709.04 287.913 708.16C286.393 707.253 285.18 706.013 284.273 704.44C283.393 702.84 282.953 701.013 282.953 698.96C282.953 696.853 283.393 695.013 284.273 693.44C285.18 691.84 286.406 690.6 287.953 689.72C289.5 688.813 291.233 688.36 293.153 688.36C295.1 688.36 296.833 688.813 298.353 689.72C299.9 690.6 301.113 691.84 301.993 693.44C302.9 695.013 303.353 696.84 303.353 698.92C303.353 701 302.9 702.84 301.993 704.44C301.113 706.013 299.9 707.253 298.353 708.16C296.806 709.04 295.06 709.48 293.113 709.48ZM293.113 704.8C294.02 704.8 294.82 704.587 295.513 704.16C296.233 703.733 296.793 703.08 297.193 702.2C297.62 701.32 297.833 700.227 297.833 698.92C297.833 697.613 297.62 696.533 297.193 695.68C296.793 694.8 296.233 694.147 295.513 693.72C294.82 693.267 294.033 693.04 293.153 693.04C292.3 693.04 291.513 693.267 290.793 693.72C290.073 694.147 289.5 694.8 289.073 695.68C288.673 696.533 288.473 697.613 288.473 698.92C288.473 700.227 288.673 701.32 289.073 702.2C289.5 703.08 290.06 703.733 290.753 704.16C291.473 704.587 292.26 704.8 293.113 704.8ZM317.527 709.48C315.607 709.48 313.874 709.04 312.327 708.16C310.807 707.253 309.594 706.013 308.687 704.44C307.807 702.84 307.367 701.013 307.367 698.96C307.367 696.853 307.807 695.013 308.687 693.44C309.594 691.84 310.821 690.6 312.367 689.72C313.914 688.813 315.647 688.36 317.567 688.36C319.514 688.36 321.247 688.813 322.767 689.72C324.314 690.6 325.527 691.84 326.407 693.44C327.314 695.013 327.767 696.84 327.767 698.92C327.767 701 327.314 702.84 326.407 704.44C325.527 706.013 324.314 707.253 322.767 708.16C321.221 709.04 319.474 709.48 317.527 709.48ZM317.527 704.8C318.434 704.8 319.234 704.587 319.927 704.16C320.647 703.733 321.207 703.08 321.607 702.2C322.034 701.32 322.247 700.227 322.247 698.92C322.247 697.613 322.034 696.533 321.607 695.68C321.207 694.8 320.647 694.147 319.927 693.72C319.234 693.267 318.447 693.04 317.567 693.04C316.714 693.04 315.927 693.267 315.207 693.72C314.487 694.147 313.914 694.8 313.487 695.68C313.087 696.533 312.887 697.613 312.887 698.92C312.887 700.227 313.087 701.32 313.487 702.2C313.914 703.08 314.474 703.733 315.167 704.16C315.887 704.587 316.674 704.8 317.527 704.8ZM332.421 709V680.2H337.821V709H332.421ZM352.619 709V681H358.019L370.899 700.32V681H376.299V709H370.899L358.019 689.72V709H352.619ZM391.16 709.48C389.24 709.48 387.507 709.04 385.96 708.16C384.44 707.253 383.227 706.013 382.32 704.44C381.44 702.84 381 701.013 381 698.96C381 696.853 381.44 695.013 382.32 693.44C383.227 691.84 384.453 690.6 386 689.72C387.547 688.813 389.28 688.36 391.2 688.36C393.147 688.36 394.88 688.813 396.4 689.72C397.947 690.6 399.16 691.84 400.04 693.44C400.947 695.013 401.4 696.84 401.4 698.92C401.4 701 400.947 702.84 400.04 704.44C399.16 706.013 397.947 707.253 396.4 708.16C394.853 709.04 393.107 709.48 391.16 709.48ZM391.16 704.8C392.067 704.8 392.867 704.587 393.56 704.16C394.28 703.733 394.84 703.08 395.24 702.2C395.667 701.32 395.88 700.227 395.88 698.92C395.88 697.613 395.667 696.533 395.24 695.68C394.84 694.8 394.28 694.147 393.56 693.72C392.867 693.267 392.08 693.04 391.2 693.04C390.347 693.04 389.56 693.267 388.84 693.72C388.12 694.147 387.547 694.8 387.12 695.68C386.72 696.533 386.52 697.613 386.52 698.92C386.52 700.227 386.72 701.32 387.12 702.2C387.547 703.08 388.107 703.733 388.8 704.16C389.52 704.587 390.307 704.8 391.16 704.8ZM409.35 709L403.43 688.84H408.75L412.67 705.2L411.67 705.16L416.15 688.84H422.15L426.63 705.16L425.59 705.2L429.55 688.84H434.87L428.95 709H423.35L418.59 692.2H419.71L414.95 709H409.35Z" fill="#FFFFF0"/>
<path d="M195.198 709H194.198V710H195.198V709ZM195.198 681V680H194.198V681H195.198ZM211.598 681.92L212.015 681.012L211.598 681.92ZM214.597 684.48L213.744 685.001L213.751 685.013L213.759 685.025L214.597 684.48ZM214.718 691.76L213.875 691.222L214.718 691.76ZM212.278 694L212.734 694.89L212.743 694.885L212.278 694ZM208.998 694.88L208.431 694.056L205.429 696.12L209.064 695.878L208.998 694.88ZM209.638 694.44L209.679 693.441L209.346 693.427L209.071 693.616L209.638 694.44ZM213.038 695.48L212.493 696.319L212.506 696.327L212.52 696.335L213.038 695.48ZM215.397 697.96L214.517 698.434L214.522 698.443L214.527 698.451L215.397 697.96ZM215.198 705.32L214.351 704.788L214.351 704.788L215.198 705.32ZM212.078 708.04L212.503 708.945L212.511 708.941L212.518 708.938L212.078 708.04ZM200.598 704.6H199.598V705.6H200.598V704.6ZM209.597 703.6L210.238 704.368H210.238L209.597 703.6ZM209.558 697.8L208.901 698.554L208.908 698.56L208.915 698.566L209.558 697.8ZM200.598 696.72V695.72H199.598V696.72H200.598ZM200.598 692.68H199.598V693.68H200.598V692.68ZM208.998 691.72L208.347 690.961L208.34 690.967L208.333 690.973L208.998 691.72ZM208.998 686.32L208.318 687.054L208.332 687.067L208.347 687.079L208.998 686.32ZM200.598 685.32V684.32H199.598V685.32H200.598ZM196.198 709V681H194.198V709H196.198ZM195.198 682H206.677V680H195.198V682ZM206.677 682C208.525 682 210.013 682.292 211.18 682.828L212.015 681.012C210.516 680.322 208.724 680 206.677 680V682ZM211.18 682.828C212.359 683.371 213.195 684.101 213.744 685.001L215.451 683.959C214.667 682.672 213.502 681.695 212.015 681.012L211.18 682.828ZM213.759 685.025C214.335 685.912 214.638 686.958 214.638 688.2H216.638C216.638 686.615 216.246 685.182 215.436 683.935L213.759 685.025ZM214.638 688.2C214.638 689.468 214.363 690.457 213.875 691.222L215.56 692.298C216.298 691.143 216.638 689.758 216.638 688.2H214.638ZM213.875 691.222C213.355 692.035 212.672 692.662 211.812 693.115L212.743 694.885C213.909 694.271 214.853 693.405 215.56 692.298L213.875 691.222ZM211.821 693.11C210.965 693.55 210.006 693.811 208.931 693.882L209.064 695.878C210.389 695.789 211.616 695.464 212.734 694.89L211.821 693.11ZM209.564 695.704L210.204 695.264L209.071 693.616L208.431 694.056L209.564 695.704ZM209.596 695.439C210.714 695.486 211.67 695.785 212.493 696.319L213.582 694.641C212.432 693.895 211.121 693.501 209.679 693.441L209.596 695.439ZM212.52 696.335C213.381 696.857 214.042 697.552 214.517 698.434L216.278 697.486C215.633 696.288 214.721 695.33 213.555 694.624L212.52 696.335ZM214.527 698.451C215.026 699.337 215.278 700.301 215.278 701.36H217.278C217.278 699.966 216.942 698.663 216.268 697.469L214.527 698.451ZM215.278 701.36C215.278 702.685 214.96 703.817 214.351 704.788L216.044 705.852C216.875 704.53 217.278 703.021 217.278 701.36H215.278ZM214.351 704.788C213.741 705.759 212.851 706.547 211.637 707.142L212.518 708.938C214.024 708.199 215.214 707.174 216.044 705.852L214.351 704.788ZM211.652 707.135C210.46 707.696 208.948 708 207.078 708V710C209.154 710 210.975 709.664 212.503 708.945L211.652 707.135ZM207.078 708H195.198V710H207.078V708ZM200.598 705.6H206.198V703.6H200.598V705.6ZM206.198 705.6C207.804 705.6 209.197 705.236 210.238 704.368L208.957 702.832C208.398 703.298 207.524 703.6 206.198 703.6V705.6ZM210.238 704.368C211.312 703.473 211.798 702.204 211.798 700.72H209.798C209.798 701.743 209.483 702.394 208.957 702.832L210.238 704.368ZM211.798 700.72C211.798 699.224 211.291 697.949 210.2 697.034L208.915 698.566C209.477 699.038 209.798 699.709 209.798 700.72H211.798ZM210.214 697.046C209.152 696.12 207.743 695.72 206.118 695.72V697.72C207.425 697.72 208.31 698.04 208.901 698.554L210.214 697.046ZM206.118 695.72H200.598V697.72H206.118V695.72ZM199.598 696.72V704.6H201.598V696.72H199.598ZM200.598 693.68H205.798V691.68H200.598V693.68ZM205.798 693.68C207.344 693.68 208.689 693.332 209.662 692.467L208.333 690.973C207.866 691.388 207.078 691.68 205.798 691.68V693.68ZM209.648 692.479C210.66 691.612 211.118 690.403 211.118 689H209.118C209.118 689.943 208.829 690.548 208.347 690.961L209.648 692.479ZM211.118 689C211.118 687.615 210.654 686.423 209.648 685.561L208.347 687.079C208.834 687.497 209.118 688.092 209.118 689H211.118ZM209.677 685.586C208.702 684.683 207.333 684.32 205.757 684.32V686.32C207.062 686.32 207.853 686.623 208.318 687.054L209.677 685.586ZM205.757 684.32H200.598V686.32H205.757V684.32ZM199.598 685.32V692.68H201.598V685.32H199.598ZM224.865 708.2L224.371 709.069L224.38 709.074L224.389 709.079L224.865 708.2ZM221.225 704.56L220.346 705.037L220.351 705.046L220.356 705.055L221.225 704.56ZM221.225 693.56L220.346 693.084L220.343 693.089L221.225 693.56ZM224.865 689.76L225.371 690.623L225.382 690.616L224.865 689.76ZM235.505 689.68L234.998 690.542L235.505 689.68ZM238.985 693.24L238.11 693.724L238.985 693.24ZM240.145 700.24V701.24H241.003L241.134 700.392L240.145 700.24ZM223.785 700.24H222.785V701.24H223.785V700.24ZM223.785 696.96V695.96H222.785V696.96H223.785ZM234.785 696.96V697.96H235.848L235.783 696.899L234.785 696.96ZM233.385 693.88L232.715 694.622L232.721 694.627L232.727 694.633L233.385 693.88ZM227.745 693.4L228.205 694.288L228.217 694.282L228.228 694.276L227.745 693.4ZM225.905 695.28L225.022 694.811L225.016 694.822L225.011 694.833L225.905 695.28ZM225.865 702.56L224.965 702.996L224.974 703.013L224.983 703.031L225.865 702.56ZM227.625 704.44L227.106 705.295L227.118 705.302L227.129 705.308L227.625 704.44ZM232.665 704.44L232.126 703.598L232.118 703.603L232.111 703.608L232.665 704.44ZM234.145 702.8V701.8H233.516L233.244 702.367L234.145 702.8ZM239.665 702.8L240.624 703.085L241.007 701.8H239.665V702.8ZM237.785 706.2L237.03 705.544L237.785 706.2ZM230.265 708.48C228.383 708.48 226.751 708.085 225.342 707.321L224.389 709.079C226.127 710.022 228.094 710.48 230.265 710.48V708.48ZM225.36 707.331C223.969 706.54 222.886 705.456 222.094 704.065L220.356 705.055C221.325 706.757 222.668 708.1 224.371 709.069L225.36 707.331ZM222.104 704.083C221.341 702.677 220.945 701.032 220.945 699.12H218.945C218.945 701.315 219.403 703.297 220.346 705.037L222.104 704.083ZM220.945 699.12C220.945 697.151 221.343 695.464 222.108 694.031L220.343 693.089C219.401 694.856 218.945 696.876 218.945 699.12H220.945ZM222.105 694.036C222.901 692.565 223.987 691.434 225.371 690.623L224.36 688.897C222.65 689.899 221.31 691.302 220.346 693.084L222.105 694.036ZM225.382 690.616C226.752 689.789 228.369 689.36 230.265 689.36V687.36C228.055 687.36 226.072 687.864 224.349 688.904L225.382 690.616ZM230.265 689.36C232.115 689.36 233.68 689.765 234.998 690.542L236.013 688.818C234.343 687.835 232.416 687.36 230.265 687.36V689.36ZM234.998 690.542C236.34 691.332 237.372 692.39 238.11 693.724L239.86 692.756C238.946 691.104 237.658 689.788 236.013 688.818L234.998 690.542ZM238.11 693.724C238.846 695.054 239.225 696.577 239.225 698.32H241.225C241.225 696.276 240.778 694.413 239.86 692.756L238.11 693.724ZM239.225 698.32C239.225 698.321 239.225 698.321 239.225 698.322C239.225 698.322 239.225 698.323 239.225 698.323C239.225 698.324 239.225 698.324 239.225 698.325C239.225 698.325 239.225 698.326 239.225 698.326C239.225 698.327 239.225 698.327 239.225 698.328C239.225 698.328 239.225 698.329 239.225 698.329C239.225 698.33 239.225 698.33 239.225 698.331C239.225 698.331 239.225 698.332 239.225 698.333C239.225 698.333 239.225 698.334 239.225 698.334C239.225 698.335 239.225 698.335 239.225 698.336C239.225 698.336 239.225 698.337 239.225 698.337C239.225 698.338 239.225 698.338 239.225 698.339C239.225 698.339 239.225 698.34 239.225 698.34C239.225 698.341 239.225 698.341 239.225 698.342C239.225 698.342 239.225 698.343 239.225 698.344C239.225 698.344 239.225 698.345 239.225 698.345C239.225 698.346 239.225 698.346 239.225 698.347C239.225 698.347 239.225 698.348 239.225 698.348C239.225 698.349 239.225 698.349 239.225 698.35C239.225 698.35 239.225 698.351 239.225 698.351C239.225 698.352 239.225 698.352 239.225 698.353C239.225 698.354 239.225 698.354 239.225 698.355C239.225 698.355 239.225 698.356 239.225 698.356C239.225 698.357 239.225 698.357 239.225 698.358C239.225 698.358 239.225 698.359 239.225 698.359C239.225 698.36 239.225 698.36 239.225 698.361C239.225 698.361 239.225 698.362 239.225 698.363C239.225 698.363 239.225 698.364 239.225 698.364C239.225 698.365 239.225 698.365 239.225 698.366C239.225 698.366 239.225 698.367 239.225 698.367C239.225 698.368 239.225 698.368 239.225 698.369C239.225 698.369 239.225 698.37 239.225 698.37C239.225 698.371 239.225 698.372 239.225 698.372C239.225 698.373 239.225 698.373 239.225 698.374C239.225 698.374 239.225 698.375 239.225 698.375C239.225 698.376 239.225 698.376 239.225 698.377C239.225 698.377 239.225 698.378 239.225 698.378C239.225 698.379 239.225 698.38 239.225 698.38C239.225 698.381 239.225 698.381 239.225 698.382C239.225 698.382 239.225 698.383 239.225 698.383C239.225 698.384 239.225 698.384 239.225 698.385C239.225 698.385 239.225 698.386 239.225 698.386C239.225 698.387 239.225 698.387 239.225 698.388C239.225 698.389 239.225 698.389 239.225 698.39C239.225 698.39 239.225 698.391 239.225 698.391C239.225 698.392 239.225 698.392 239.225 698.393C239.225 698.393 239.225 698.394 239.225 698.394C239.225 698.395 239.225 698.396 239.225 698.396C239.225 698.397 239.225 698.397 239.225 698.398C239.225 698.398 239.225 698.399 239.225 698.399C239.225 698.4 239.225 698.4 239.225 698.401C239.225 698.401 239.225 698.402 239.225 698.402C239.225 698.403 239.225 698.404 239.225 698.404C239.225 698.405 239.225 698.405 239.225 698.406C239.225 698.406 239.225 698.407 239.225 698.407C239.225 698.408 239.225 698.408 239.225 698.409C239.225 698.409 239.225 698.41 239.225 698.411C239.225 698.411 239.225 698.412 239.225 698.412C239.225 698.413 239.225 698.413 239.225 698.414C239.225 698.414 239.225 698.415 239.225 698.415C239.225 698.416 239.225 698.416 239.225 698.417C239.225 698.418 239.225 698.418 239.225 698.419C239.225 698.419 239.225 698.42 239.225 698.42C239.225 698.421 239.225 698.421 239.225 698.422C239.225 698.422 239.225 698.423 239.225 698.423C239.225 698.424 239.225 698.425 239.225 698.425C239.225 698.426 239.225 698.426 239.225 698.427C239.225 698.427 239.225 698.428 239.225 698.428C239.225 698.429 239.225 698.429 239.225 698.43C239.225 698.431 239.225 698.431 239.225 698.432C239.225 698.432 239.225 698.433 239.225 698.433C239.225 698.434 239.225 698.434 239.225 698.435C239.225 698.435 239.225 698.436 239.225 698.437C239.225 698.437 239.225 698.438 239.225 698.438C239.225 698.439 239.225 698.439 239.225 698.44C239.225 698.44 239.225 698.441 239.225 698.441C239.225 698.442 239.225 698.442 239.225 698.443C239.225 698.444 239.225 698.444 239.225 698.445C239.225 698.445 239.225 698.446 239.225 698.446C239.225 698.447 239.225 698.447 239.225 698.448C239.225 698.448 239.225 698.449 239.225 698.45C239.225 698.45 239.225 698.451 239.225 698.451C239.225 698.452 239.225 698.452 239.225 698.453C239.225 698.453 239.225 698.454 239.225 698.454C239.225 698.455 239.225 698.456 239.225 698.456C239.225 698.457 239.225 698.457 239.225 698.458C239.225 698.458 239.225 698.459 239.225 698.459C239.225 698.46 239.225 698.46 239.225 698.461C239.225 698.462 239.225 698.462 239.225 698.463C239.225 698.463 239.225 698.464 239.225 698.464C239.225 698.465 239.225 698.465 239.225 698.466C239.225 698.467 239.225 698.467 239.225 698.468C239.225 698.468 239.225 698.469 239.225 698.469C239.225 698.47 239.225 698.47 239.225 698.471C239.225 698.471 239.225 698.472 239.225 698.473C239.225 698.473 239.225 698.474 239.225 698.474C239.225 698.475 239.225 698.475 239.225 698.476C239.225 698.476 239.225 698.477 239.225 698.478C239.225 698.478 239.225 698.479 239.225 698.479C239.225 698.48 239.225 698.48 239.225 698.481C239.225 698.481 239.225 698.482 239.225 698.482C239.225 698.483 239.225 698.484 239.225 698.484C239.225 698.485 239.225 698.485 239.225 698.486C239.225 698.486 239.225 698.487 239.225 698.487C239.225 698.488 239.225 698.489 239.225 698.489C239.225 698.49 239.225 698.49 239.225 698.491C239.225 698.491 239.225 698.492 239.225 698.492C239.225 698.493 239.225 698.494 239.225 698.494C239.225 698.495 239.225 698.495 239.225 698.496C239.225 698.496 239.225 698.497 239.225 698.497C239.225 698.498 239.225 698.499 239.225 698.499C239.225 698.5 239.225 698.5 239.225 698.501C239.225 698.501 239.225 698.502 239.225 698.502C239.225 698.503 239.225 698.504 239.225 698.504C239.225 698.505 239.225 698.505 239.225 698.506C239.225 698.506 239.225 698.507 239.225 698.507C239.225 698.508 239.225 698.509 239.225 698.509C239.225 698.51 239.225 698.51 239.225 698.511C239.225 698.511 239.225 698.512 239.225 698.512C239.225 698.513 239.225 698.514 239.225 698.514C239.225 698.515 239.225 698.515 239.225 698.516C239.225 698.516 239.225 698.517 239.225 698.517C239.225 698.518 239.225 698.519 239.225 698.519C239.225 698.52 239.225 698.52 239.225 698.521C239.225 698.521 239.225 698.522 239.225 698.522C239.225 698.523 239.225 698.524 239.225 698.524C239.225 698.525 239.225 698.525 239.225 698.526C239.225 698.526 239.225 698.527 239.225 698.528C239.225 698.528 239.225 698.529 239.225 698.529C239.225 698.53 239.225 698.53 239.225 698.531C239.225 698.531 239.225 698.532 239.225 698.533C239.225 698.533 239.225 698.534 239.225 698.534C239.225 698.535 239.225 698.535 239.225 698.536C239.225 698.536 239.225 698.537 239.225 698.538C239.225 698.538 239.225 698.539 239.225 698.539C239.225 698.54 239.225 698.54 239.225 698.541C239.225 698.542 239.225 698.542 239.225 698.543C239.225 698.543 239.225 698.544 239.225 698.544C239.225 698.545 239.225 698.545 239.225 698.546C239.225 698.547 239.225 698.547 239.225 698.548C239.225 698.548 239.225 698.549 239.225 698.549C239.225 698.55 239.225 698.551 239.225 698.551C239.225 698.552 239.225 698.552 239.225 698.553C239.225 698.553 239.225 698.554 239.225 698.554C239.225 698.555 239.225 698.556 239.225 698.556C239.225 698.557 239.225 698.557 239.225 698.558C239.225 698.558 239.225 698.559 239.225 698.56C239.225 698.56 239.225 698.561 239.225 698.561C239.225 698.562 239.225 698.562 239.225 698.563C239.225 698.564 239.225 698.564 239.225 698.565C239.225 698.565 239.225 698.566 239.225 698.566C239.225 698.567 239.225 698.568 239.225 698.568C239.225 698.569 239.225 698.569 239.225 698.57C239.225 698.57 239.225 698.571 239.225 698.571C239.225 698.572 239.225 698.573 239.225 698.573C239.225 698.574 239.225 698.574 239.225 698.575C239.225 698.575 239.225 698.576 239.225 698.577C239.225 698.577 239.225 698.578 239.225 698.578C239.225 698.579 239.225 698.579 239.225 698.58C239.225 698.581 239.225 698.581 239.225 698.582C239.225 698.582 239.225 698.583 239.225 698.583C239.225 698.584 239.225 698.585 239.225 698.585C239.225 698.586 239.225 698.586 239.225 698.587C239.225 698.587 239.225 698.588 239.225 698.589C239.225 698.589 239.225 698.59 239.225 698.59C239.225 698.591 239.225 698.591 239.225 698.592C239.225 698.593 239.225 698.593 239.225 698.594C239.225 698.594 239.225 698.595 239.225 698.595C239.225 698.596 239.225 698.597 239.225 698.597C239.225 698.598 239.225 698.598 239.225 698.599C239.225 698.599 239.225 698.6 239.225 698.601C239.225 698.601 239.225 698.602 239.225 698.602C239.225 698.603 239.225 698.603 239.225 698.604C239.225 698.605 239.225 698.605 239.225 698.606C239.225 698.606 239.225 698.607 239.225 698.607C239.225 698.608 239.225 698.609 239.225 698.609C239.225 698.61 239.225 698.61 239.225 698.611C239.225 698.611 239.225 698.612 239.225 698.613C239.225 698.613 239.225 698.614 239.225 698.614C239.225 698.615 239.225 698.616 239.225 698.616C239.225 698.617 239.225 698.617 239.225 698.618C239.225 698.618 239.225 698.619 239.225 698.62C239.225 698.62 239.225 698.621 239.225 698.621C239.225 698.622 239.225 698.622 239.225 698.623C239.225 698.624 239.225 698.624 239.225 698.625C239.225 698.625 239.225 698.626 239.225 698.626C239.225 698.627 239.225 698.628 239.225 698.628C239.225 698.629 239.225 698.629 239.225 698.63C239.225 698.631 239.225 698.631 239.225 698.632C239.225 698.632 239.225 698.633 239.225 698.633C239.225 698.634 239.225 698.635 239.225 698.635C239.225 698.636 239.225 698.636 239.225 698.637C239.225 698.637 239.225 698.638 239.225 698.639C239.225 698.639 239.225 698.64 239.225 698.64C239.225 698.641 239.225 698.642 239.225 698.642C239.225 698.643 239.225 698.643 239.225 698.644C239.225 698.644 239.225 698.645 239.225 698.646C239.225 698.646 239.225 698.647 239.225 698.647C239.225 698.648 239.225 698.648 239.225 698.649C239.225 698.65 239.225 698.65 239.225 698.651C239.225 698.651 239.225 698.652 239.225 698.653C239.225 698.653 239.225 698.654 239.225 698.654C239.225 698.655 239.225 698.655 239.225 698.656C239.225 698.657 239.225 698.657 239.225 698.658C239.225 698.658 239.225 698.659 239.225 698.66C239.225 698.66 239.225 698.661 239.225 698.661C239.225 698.662 239.225 698.662 239.225 698.663C239.225 698.664 239.225 698.664 239.225 698.665C239.225 698.665 239.225 698.666 239.225 698.667C239.225 698.667 239.225 698.668 239.225 698.668C239.225 698.669 239.225 698.669 239.225 698.67C239.225 698.671 239.225 698.671 239.225 698.672C239.225 698.672 239.225 698.673 239.225 698.674C239.225 698.674 239.225 698.675 239.225 698.675C239.225 698.676 239.225 698.677 239.225 698.677C239.225 698.678 239.225 698.678 239.225 698.679C239.225 698.679 239.225 698.68 239.225 698.681C239.225 698.681 239.225 698.682 239.225 698.682C239.225 698.683 239.225 698.684 239.225 698.684C239.225 698.685 239.225 698.685 239.225 698.686C239.225 698.686 239.225 698.687 239.225 698.688C239.225 698.688 239.225 698.689 239.225 698.689C239.225 698.69 239.225 698.691 239.225 698.691C239.225 698.692 239.225 698.692 239.225 698.693C239.225 698.694 239.225 698.694 239.225 698.695C239.225 698.695 239.225 698.696 239.225 698.697C239.225 698.697 239.225 698.698 239.225 698.698C239.225 698.699 239.225 698.699 239.225 698.7C239.225 698.701 239.225 698.701 239.225 698.702C239.225 698.702 239.225 698.703 239.225 698.704C239.225 698.704 239.225 698.705 239.225 698.705C239.225 698.706 239.225 698.707 239.225 698.707C239.225 698.708 239.225 698.708 239.225 698.709C239.225 698.71 239.225 698.71 239.225 698.711C239.225 698.711 239.225 698.712 239.225 698.712C239.225 698.713 239.225 698.714 239.225 698.714C239.225 698.715 239.225 698.715 239.225 698.716C239.225 698.717 239.225 698.717 239.225 698.718C239.225 698.718 239.225 698.719 239.225 698.72C239.225 698.72 239.225 698.721 239.225 698.721C239.225 698.722 239.225 698.723 239.225 698.723C239.225 698.724 239.225 698.724 239.225 698.725C239.225 698.726 239.225 698.726 239.225 698.727C239.225 698.727 239.225 698.728 239.225 698.729C239.225 698.729 239.225 698.73 239.225 698.73C239.225 698.731 239.225 698.731 239.225 698.732C239.225 698.733 239.225 698.733 239.225 698.734C239.225 698.734 239.225 698.735 239.225 698.736C239.225 698.736 239.225 698.737 239.225 698.737C239.225 698.738 239.225 698.739 239.225 698.739C239.225 698.74 239.225 698.74 239.225 698.741C239.225 698.742 239.225 698.742 239.225 698.743C239.225 698.743 239.225 698.744 239.225 698.745C239.225 698.745 239.225 698.746 239.225 698.746C239.225 698.747 239.225 698.748 239.225 698.748C239.225 698.749 239.225 698.749 239.225 698.75C239.225 698.751 239.225 698.751 239.225 698.752C239.225 698.752 239.225 698.753 239.225 698.754C239.225 698.754 239.225 698.755 239.225 698.755C239.225 698.756 239.225 698.757 239.225 698.757C239.225 698.758 239.225 698.758 239.225 698.759C239.225 698.76 239.225 698.76 239.225 698.761C239.225 698.761 239.225 698.762 239.225 698.763C239.225 698.763 239.225 698.764 239.225 698.764C239.225 698.765 239.225 698.766 239.225 698.766C239.225 698.767 239.225 698.767 239.225 698.768C239.225 698.769 239.225 698.769 239.225 698.77C239.225 698.77 239.225 698.771 239.225 698.772C239.225 698.772 239.225 698.773 239.225 698.773C239.225 698.774 239.225 698.775 239.225 698.775C239.225 698.776 239.225 698.776 239.225 698.777C239.225 698.778 239.225 698.778 239.225 698.779C239.225 698.779 239.225 698.78 239.225 698.781C239.225 698.781 239.225 698.782 239.225 698.782C239.225 698.783 239.225 698.784 239.225 698.784C239.225 698.785 239.225 698.786 239.225 698.786C239.225 698.787 239.225 698.787 239.225 698.788C239.225 698.789 239.225 698.789 239.225 698.79C239.225 698.79 239.225 698.791 239.225 698.792C239.225 698.792 239.225 698.793 239.225 698.793C239.225 698.794 239.225 698.795 239.225 698.795C239.225 698.796 239.225 698.796 239.225 698.797C239.225 698.798 239.225 698.798 239.225 698.799C239.225 698.799 239.225 698.8 239.225 698.801C239.225 698.801 239.225 698.802 239.225 698.802C239.225 698.803 239.225 698.804 239.225 698.804C239.225 698.805 239.225 698.806 239.225 698.806C239.225 698.807 239.225 698.807 239.225 698.808C239.225 698.809 239.225 698.809 239.225 698.81C239.225 698.81 239.225 698.811 239.225 698.812C239.225 698.812 239.225 698.813 239.225 698.813C239.225 698.814 239.225 698.815 239.225 698.815C239.225 698.816 239.225 698.816 239.225 698.817C239.225 698.818 239.225 698.818 239.225 698.819C239.225 698.82 239.225 698.82 239.225 698.821C239.225 698.821 239.225 698.822 239.225 698.823C239.225 698.823 239.225 698.824 239.225 698.824C239.225 698.825 239.225 698.826 239.225 698.826C239.225 698.827 239.225 698.827 239.225 698.828C239.225 698.829 239.225 698.829 239.225 698.83C239.225 698.831 239.225 698.831 239.225 698.832C239.225 698.832 239.225 698.833 239.225 698.834C239.225 698.834 239.225 698.835 239.225 698.835C239.225 698.836 239.225 698.837 239.225 698.837C239.225 698.838 239.225 698.839 239.225 698.839C239.225 698.84 239.225 698.84 239.225 698.841C239.225 698.842 239.225 698.842 239.225 698.843C239.225 698.843 239.225 698.844 239.225 698.845C239.225 698.845 239.225 698.846 239.225 698.847C239.225 698.847 239.225 698.848 239.225 698.848C239.225 698.849 239.225 698.85 239.225 698.85C239.225 698.851 239.225 698.851 239.225 698.852C239.225 698.853 239.225 698.853 239.225 698.854C239.225 698.855 239.225 698.855 239.225 698.856C239.225 698.856 239.225 698.857 239.225 698.858C239.225 698.858 239.225 698.859 239.225 698.859C239.225 698.86 239.225 698.861 239.225 698.861C239.225 698.862 239.225 698.863 239.225 698.863C239.225 698.864 239.225 698.864 239.225 698.865C239.225 698.866 239.225 698.866 239.225 698.867C239.225 698.867 239.225 698.868 239.225 698.869C239.225 698.869 239.225 698.87 239.225 698.871C239.225 698.871 239.225 698.872 239.225 698.872C239.225 698.873 239.225 698.874 239.225 698.874C239.225 698.875 239.225 698.876 239.225 698.876C239.225 698.877 239.225 698.877 239.225 698.878C239.225 698.879 239.225 698.879 239.225 698.88C239.225 698.881 239.225 698.881 239.225 698.882C239.225 698.882 239.225 698.883 239.225 698.884C239.225 698.884 239.225 698.885 239.225 698.885C239.225 698.886 239.225 698.887 239.225 698.887C239.225 698.888 239.225 698.889 239.225 698.889C239.225 698.89 239.225 698.89 239.225 698.891C239.225 698.892 239.225 698.892 239.225 698.893C239.225 698.894 239.225 698.894 239.225 698.895C239.225 698.895 239.225 698.896 239.225 698.897C239.225 698.897 239.225 698.898 239.225 698.899C239.225 698.899 239.225 698.9 239.225 698.9C239.225 698.901 239.225 698.902 239.225 698.902C239.225 698.903 239.225 698.904 239.225 698.904C239.225 698.905 239.225 698.905 239.225 698.906C239.225 698.907 239.225 698.907 239.225 698.908C239.225 698.909 239.225 698.909 239.225 698.91C239.225 698.91 239.225 698.911 239.225 698.912C239.225 698.912 239.225 698.913 239.225 698.914C239.225 698.914 239.225 698.915 239.225 698.915C239.225 698.916 239.225 698.917 239.225 698.917C239.225 698.918 239.225 698.919 239.225 698.919C239.225 698.92 239.225 698.92 239.225 698.921C239.225 698.922 239.225 698.922 239.225 698.923C239.225 698.924 239.225 698.924 239.225 698.925C239.225 698.925 239.225 698.926 239.225 698.927C239.225 698.927 239.225 698.928 239.225 698.929C239.225 698.929 239.225 698.93 239.225 698.93C239.225 698.931 239.225 698.932 239.225 698.932C239.225 698.933 239.225 698.934 239.225 698.934C239.225 698.935 239.225 698.936 239.225 698.936C239.225 698.937 239.225 698.937 239.225 698.938C239.225 698.939 239.225 698.939 239.225 698.94C239.225 698.941 239.225 698.941 239.225 698.942C239.225 698.942 239.225 698.943 239.225 698.944C239.225 698.944 239.225 698.945 239.225 698.946C239.225 698.946 239.225 698.947 239.225 698.948C239.225 698.948 239.225 698.949 239.225 698.949C239.225 698.95 239.225 698.951 239.225 698.951C239.225 698.952 239.225 698.953 239.225 698.953C239.225 698.954 239.225 698.954 239.225 698.955C239.225 698.956 239.225 698.956 239.225 698.957C239.225 698.958 239.225 698.958 239.225 698.959C239.225 698.96 239.225 698.96 239.225 698.961C239.225 698.961 239.225 698.962 239.225 698.963C239.225 698.963 239.225 698.964 239.225 698.965C239.225 698.965 239.225 698.966 239.225 698.966C239.225 698.967 239.225 698.968 239.225 698.968C239.225 698.969 239.225 698.97 239.225 698.97C239.225 698.971 239.225 698.972 239.225 698.972C239.225 698.973 239.225 698.973 239.225 698.974C239.225 698.975 239.225 698.975 239.225 698.976C239.225 698.977 239.225 698.977 239.225 698.978C239.225 698.979 239.225 698.979 239.225 698.98C239.225 698.98 239.225 698.981 239.225 698.982C239.225 698.982 239.225 698.983 239.225 698.984C239.225 698.984 239.225 698.985 239.225 698.986C239.225 698.986 239.225 698.987 239.225 698.987C239.225 698.988 239.225 698.989 239.225 698.989C239.225 698.99 239.225 698.991 239.225 698.991C239.225 698.992 239.225 698.993 239.225 698.993C239.225 698.994 239.225 698.995 239.225 698.995C239.225 698.996 239.225 698.996 239.225 698.997C239.225 698.998 239.225 698.998 239.225 698.999C239.225 699 239.225 699 239.225 699.001C239.225 699.002 239.225 699.002 239.225 699.003C239.225 699.003 239.225 699.004 239.225 699.005C239.225 699.005 239.225 699.006 239.225 699.007C239.225 699.007 239.225 699.008 239.225 699.009C239.225 699.009 239.225 699.01 239.225 699.011C239.225 699.011 239.225 699.012 239.225 699.012C239.225 699.013 239.225 699.014 239.225 699.014C239.225 699.015 239.225 699.016 239.225 699.016C239.225 699.017 239.225 699.018 239.225 699.018C239.225 699.019 239.225 699.02 239.225 699.02C239.225 699.021 239.225 699.021 239.225 699.022C239.225 699.023 239.225 699.023 239.225 699.024C239.225 699.025 239.225 699.025 239.225 699.026C239.225 699.027 239.225 699.027 239.225 699.028C239.225 699.029 239.225 699.029 239.225 699.03C239.225 699.03 239.225 699.031 239.225 699.032C239.225 699.032 239.225 699.033 239.225 699.034C239.225 699.034 239.225 699.035 239.225 699.036C239.225 699.036 239.225 699.037 239.225 699.038C239.225 699.038 239.225 699.039 239.225 699.04C239.225 699.04 239.225 699.041 239.225 699.041C239.225 699.042 239.225 699.043 239.225 699.043C239.225 699.044 239.225 699.045 239.225 699.045C239.225 699.046 239.225 699.047 239.225 699.047C239.225 699.048 239.225 699.049 239.225 699.049C239.225 699.05 239.225 699.051 239.225 699.051C239.225 699.052 239.225 699.052 239.225 699.053C239.225 699.054 239.225 699.054 239.225 699.055C239.225 699.056 239.225 699.056 239.225 699.057C239.225 699.058 239.225 699.058 239.225 699.059C239.225 699.06 239.225 699.06 239.225 699.061C239.225 699.062 239.225 699.062 239.225 699.063C239.225 699.063 239.225 699.064 239.225 699.065C239.225 699.065 239.225 699.066 239.225 699.067C239.225 699.067 239.225 699.068 239.225 699.069C239.225 699.069 239.225 699.07 239.225 699.071C239.225 699.071 239.225 699.072 239.225 699.073C239.225 699.073 239.225 699.074 239.225 699.075C239.225 699.075 239.225 699.076 239.225 699.077C239.225 699.077 239.225 699.078 239.225 699.078C239.225 699.079 239.225 699.08 239.225 699.08C239.225 699.081 239.225 699.082 239.225 699.082C239.225 699.083 239.225 699.084 239.225 699.084C239.225 699.085 239.225 699.086 239.225 699.086C239.225 699.087 239.225 699.088 239.225 699.088C239.225 699.089 239.225 699.09 239.225 699.09C239.225 699.091 239.225 699.092 239.225 699.092C239.225 699.093 239.225 699.094 239.225 699.094C239.225 699.095 239.225 699.095 239.225 699.096C239.225 699.097 239.225 699.097 239.225 699.098C239.225 699.099 239.225 699.099 239.225 699.1C239.225 699.101 239.225 699.101 239.225 699.102C239.225 699.103 239.225 699.103 239.225 699.104C239.225 699.105 239.225 699.105 239.225 699.106C239.225 699.107 239.225 699.107 239.225 699.108C239.225 699.109 239.225 699.109 239.225 699.11C239.225 699.111 239.225 699.111 239.225 699.112C239.225 699.113 239.225 699.113 239.225 699.114C239.225 699.115 239.225 699.115 239.225 699.116C239.225 699.116 239.225 699.117 239.225 699.118C239.225 699.118 239.225 699.119 239.225 699.12C239.225 699.12 239.225 699.121 239.225 699.122C239.225 699.122 239.225 699.123 239.225 699.124C239.225 699.124 239.225 699.125 239.225 699.126C239.225 699.126 239.225 699.127 239.225 699.128C239.225 699.128 239.225 699.129 239.225 699.13C239.225 699.13 239.225 699.131 239.225 699.132C239.225 699.132 239.225 699.133 239.225 699.134C239.225 699.134 239.225 699.135 239.225 699.136C239.225 699.136 239.225 699.137 239.225 699.138C239.225 699.138 239.225 699.139 239.225 699.14C239.225 699.14 239.225 699.141 239.225 699.142C239.225 699.142 239.225 699.143 239.225 699.144C239.225 699.144 239.225 699.145 239.225 699.146C239.225 699.146 239.225 699.147 239.225 699.148C239.225 699.148 239.225 699.149 239.225 699.15C239.225 699.15 239.225 699.151 239.225 699.152C239.225 699.152 239.225 699.153 239.225 699.154C239.225 699.154 239.225 699.155 239.225 699.155C239.225 699.156 239.225 699.157 239.225 699.157C239.225 699.158 239.225 699.159 239.225 699.159C239.225 699.16 239.225 699.161 239.225 699.161C239.225 699.162 239.225 699.163 239.225 699.163C239.225 699.164 239.225 699.165 239.225 699.165C239.225 699.166 239.225 699.167 239.225 699.167C239.225 699.168 239.225 699.169 239.225 699.169C239.225 699.17 239.225 699.171 239.225 699.171C239.225 699.172 239.225 699.173 239.225 699.173C239.225 699.174 239.225 699.175 239.225 699.175C239.225 699.176 239.225 699.177 239.225 699.177C239.225 699.178 239.225 699.179 239.225 699.179C239.225 699.18 239.225 699.181 239.225 699.181C239.225 699.182 239.225 699.183 239.225 699.183C239.225 699.184 239.225 699.185 239.225 699.185C239.225 699.186 239.225 699.187 239.225 699.187C239.225 699.188 239.225 699.189 239.225 699.19C239.225 699.19 239.225 699.191 239.225 699.192C239.225 699.192 239.225 699.193 239.225 699.194C239.225 699.194 239.225 699.195 239.225 699.196C239.225 699.196 239.225 699.197 239.225 699.198C239.225 699.198 239.225 699.199 239.225 699.2C239.225 699.2 239.225 699.201 239.225 699.202C239.225 699.202 239.225 699.203 239.225 699.204C239.225 699.204 239.225 699.205 239.225 699.206C239.225 699.206 239.225 699.207 239.225 699.208C239.225 699.208 239.225 699.209 239.225 699.21C239.225 699.21 239.225 699.211 239.225 699.212C239.225 699.212 239.225 699.213 239.225 699.214C239.225 699.214 239.225 699.215 239.225 699.216C239.225 699.216 239.225 699.217 239.225 699.218C239.225 699.218 239.225 699.219 239.225 699.22C239.225 699.22 239.225 699.221 239.225 699.222C239.225 699.222 239.225 699.223 239.225 699.224C239.225 699.224 239.225 699.225 239.225 699.226C239.225 699.226 239.225 699.227 239.225 699.228C239.225 699.229 239.225 699.229 239.225 699.23C239.225 699.231 239.225 699.231 239.225 699.232C239.225 699.233 239.225 699.233 239.225 699.234C239.225 699.235 239.225 699.235 239.225 699.236C239.225 699.237 239.225 699.237 239.225 699.238C239.225 699.239 239.225 699.239 239.225 699.24H241.225C241.225 699.239 241.225 699.239 241.225 699.238C241.225 699.237 241.225 699.237 241.225 699.236C241.225 699.235 241.225 699.235 241.225 699.234C241.225 699.233 241.225 699.233 241.225 699.232C241.225 699.231 241.225 699.231 241.225 699.23C241.225 699.229 241.225 699.229 241.225 699.228C241.225 699.227 241.225 699.226 241.225 699.226C241.225 699.225 241.225 699.224 241.225 699.224C241.225 699.223 241.225 699.222 241.225 699.222C241.225 699.221 241.225 699.22 241.225 699.22C241.225 699.219 241.225 699.218 241.225 699.218C241.225 699.217 241.225 699.216 241.225 699.216C241.225 699.215 241.225 699.214 241.225 699.214C241.225 699.213 241.225 699.212 241.225 699.212C241.225 699.211 241.225 699.21 241.225 699.21C241.225 699.209 241.225 699.208 241.225 699.208C241.225 699.207 241.225 699.206 241.225 699.206C241.225 699.205 241.225 699.204 241.225 699.204C241.225 699.203 241.225 699.202 241.225 699.202C241.225 699.201 241.225 699.2 241.225 699.2C241.225 699.199 241.225 699.198 241.225 699.198C241.225 699.197 241.225 699.196 241.225 699.196C241.225 699.195 241.225 699.194 241.225 699.194C241.225 699.193 241.225 699.192 241.225 699.192C241.225 699.191 241.225 699.19 241.225 699.19C241.225 699.189 241.225 699.188 241.225 699.187C241.225 699.187 241.225 699.186 241.225 699.185C241.225 699.185 241.225 699.184 241.225 699.183C241.225 699.183 241.225 699.182 241.225 699.181C241.225 699.181 241.225 699.18 241.225 699.179C241.225 699.179 241.225 699.178 241.225 699.177C241.225 699.177 241.225 699.176 241.225 699.175C241.225 699.175 241.225 699.174 241.225 699.173C241.225 699.173 241.225 699.172 241.225 699.171C241.225 699.171 241.225 699.17 241.225 699.169C241.225 699.169 241.225 699.168 241.225 699.167C241.225 699.167 241.225 699.166 241.225 699.165C241.225 699.165 241.225 699.164 241.225 699.163C241.225 699.163 241.225 699.162 241.225 699.161C241.225 699.161 241.225 699.16 241.225 699.159C241.225 699.159 241.225 699.158 241.225 699.157C241.225 699.157 241.225 699.156 241.225 699.155C241.225 699.155 241.225 699.154 241.225 699.154C241.225 699.153 241.225 699.152 241.225 699.152C241.225 699.151 241.225 699.15 241.225 699.15C241.225 699.149 241.225 699.148 241.225 699.148C241.225 699.147 241.225 699.146 241.225 699.146C241.225 699.145 241.225 699.144 241.225 699.144C241.225 699.143 241.225 699.142 241.225 699.142C241.225 699.141 241.225 699.14 241.225 699.14C241.225 699.139 241.225 699.138 241.225 699.138C241.225 699.137 241.225 699.136 241.225 699.136C241.225 699.135 241.225 699.134 241.225 699.134C241.225 699.133 241.225 699.132 241.225 699.132C241.225 699.131 241.225 699.13 241.225 699.13C241.225 699.129 241.225 699.128 241.225 699.128C241.225 699.127 241.225 699.126 241.225 699.126C241.225 699.125 241.225 699.124 241.225 699.124C241.225 699.123 241.225 699.122 241.225 699.122C241.225 699.121 241.225 699.12 241.225 699.12C241.225 699.119 241.225 699.118 241.225 699.118C241.225 699.117 241.225 699.116 241.225 699.116C241.225 699.115 241.225 699.115 241.225 699.114C241.225 699.113 241.225 699.113 241.225 699.112C241.225 699.111 241.225 699.111 241.225 699.11C241.225 699.109 241.225 699.109 241.225 699.108C241.225 699.107 241.225 699.107 241.225 699.106C241.225 699.105 241.225 699.105 241.225 699.104C241.225 699.103 241.225 699.103 241.225 699.102C241.225 699.101 241.225 699.101 241.225 699.1C241.225 699.099 241.225 699.099 241.225 699.098C241.225 699.097 241.225 699.097 241.225 699.096C241.225 699.095 241.225 699.095 241.225 699.094C241.225 699.094 241.225 699.093 241.225 699.092C241.225 699.092 241.225 699.091 241.225 699.09C241.225 699.09 241.225 699.089 241.225 699.088C241.225 699.088 241.225 699.087 241.225 699.086C241.225 699.086 241.225 699.085 241.225 699.084C241.225 699.084 241.225 699.083 241.225 699.082C241.225 699.082 241.225 699.081 241.225 699.08C241.225 699.08 241.225 699.079 241.225 699.078C241.225 699.078 241.225 699.077 241.225 699.077C241.225 699.076 241.225 699.075 241.225 699.075C241.225 699.074 241.225 699.073 241.225 699.073C241.225 699.072 241.225 699.071 241.225 699.071C241.225 699.07 241.225 699.069 241.225 699.069C241.225 699.068 241.225 699.067 241.225 699.067C241.225 699.066 241.225 699.065 241.225 699.065C241.225 699.064 241.225 699.063 241.225 699.063C241.225 699.062 241.225 699.062 241.225 699.061C241.225 699.06 241.225 699.06 241.225 699.059C241.225 699.058 241.225 699.058 241.225 699.057C241.225 699.056 241.225 699.056 241.225 699.055C241.225 699.054 241.225 699.054 241.225 699.053C241.225 699.052 241.225 699.052 241.225 699.051C241.225 699.051 241.225 699.05 241.225 699.049C241.225 699.049 241.225 699.048 241.225 699.047C241.225 699.047 241.225 699.046 241.225 699.045C241.225 699.045 241.225 699.044 241.225 699.043C241.225 699.043 241.225 699.042 241.225 699.041C241.225 699.041 241.225 699.04 241.225 699.04C241.225 699.039 241.225 699.038 241.225 699.038C241.225 699.037 241.225 699.036 241.225 699.036C241.225 699.035 241.225 699.034 241.225 699.034C241.225 699.033 241.225 699.032 241.225 699.032C241.225 699.031 241.225 699.03 241.225 699.03C241.225 699.029 241.225 699.029 241.225 699.028C241.225 699.027 241.225 699.027 241.225 699.026C241.225 699.025 241.225 699.025 241.225 699.024C241.225 699.023 241.225 699.023 241.225 699.022C241.225 699.021 241.225 699.021 241.225 699.02C241.225 699.02 241.225 699.019 241.225 699.018C241.225 699.018 241.225 699.017 241.225 699.016C241.225 699.016 241.225 699.015 241.225 699.014C241.225 699.014 241.225 699.013 241.225 699.012C241.225 699.012 241.225 699.011 241.225 699.011C241.225 699.01 241.225 699.009 241.225 699.009C241.225 699.008 241.225 699.007 241.225 699.007C241.225 699.006 241.225 699.005 241.225 699.005C241.225 699.004 241.225 699.003 241.225 699.003C241.225 699.002 241.225 699.002 241.225 699.001C241.225 699 241.225 699 241.225 698.999C241.225 698.998 241.225 698.998 241.225 698.997C241.225 698.996 241.225 698.996 241.225 698.995C241.225 698.995 241.225 698.994 241.225 698.993C241.225 698.993 241.225 698.992 241.225 698.991C241.225 698.991 241.225 698.99 241.225 698.989C241.225 698.989 241.225 698.988 241.225 698.987C241.225 698.987 241.225 698.986 241.225 698.986C241.225 698.985 241.225 698.984 241.225 698.984C241.225 698.983 241.225 698.982 241.225 698.982C241.225 698.981 241.225 698.98 241.225 698.98C241.225 698.979 241.225 698.979 241.225 698.978C241.225 698.977 241.225 698.977 241.225 698.976C241.225 698.975 241.225 698.975 241.225 698.974C241.225 698.973 241.225 698.973 241.225 698.972C241.225 698.972 241.225 698.971 241.225 698.97C241.225 698.97 241.225 698.969 241.225 698.968C241.225 698.968 241.225 698.967 241.225 698.966C241.225 698.966 241.225 698.965 241.225 698.965C241.225 698.964 241.225 698.963 241.225 698.963C241.225 698.962 241.225 698.961 241.225 698.961C241.225 698.96 241.225 698.96 241.225 698.959C241.225 698.958 241.225 698.958 241.225 698.957C241.225 698.956 241.225 698.956 241.225 698.955C241.225 698.954 241.225 698.954 241.225 698.953C241.225 698.953 241.225 698.952 241.225 698.951C241.225 698.951 241.225 698.95 241.225 698.949C241.225 698.949 241.225 698.948 241.225 698.948C241.225 698.947 241.225 698.946 241.225 698.946C241.225 698.945 241.225 698.944 241.225 698.944C241.225 698.943 241.225 698.942 241.225 698.942C241.225 698.941 241.225 698.941 241.225 698.94C241.225 698.939 241.225 698.939 241.225 698.938C241.225 698.937 241.225 698.937 241.225 698.936C241.225 698.936 241.225 698.935 241.225 698.934C241.225 698.934 241.225 698.933 241.225 698.932C241.225 698.932 241.225 698.931 241.225 698.93C241.225 698.93 241.225 698.929 241.225 698.929C241.225 698.928 241.225 698.927 241.225 698.927C241.225 698.926 241.225 698.925 241.225 698.925C241.225 698.924 241.225 698.924 241.225 698.923C241.225 698.922 241.225 698.922 241.225 698.921C241.225 698.92 241.225 698.92 241.225 698.919C241.225 698.919 241.225 698.918 241.225 698.917C241.225 698.917 241.225 698.916 241.225 698.915C241.225 698.915 241.225 698.914 241.225 698.914C241.225 698.913 241.225 698.912 241.225 698.912C241.225 698.911 241.225 698.91 241.225 698.91C241.225 698.909 241.225 698.909 241.225 698.908C241.225 698.907 241.225 698.907 241.225 698.906C241.225 698.905 241.225 698.905 241.225 698.904C241.225 698.904 241.225 698.903 241.225 698.902C241.225 698.902 241.225 698.901 241.225 698.9C241.225 698.9 241.225 698.899 241.225 698.899C241.225 698.898 241.225 698.897 241.225 698.897C241.225 698.896 241.225 698.895 241.225 698.895C241.225 698.894 241.225 698.894 241.225 698.893C241.225 698.892 241.225 698.892 241.225 698.891C241.225 698.89 241.225 698.89 241.225 698.889C241.225 698.889 241.225 698.888 241.225 698.887C241.225 698.887 241.225 698.886 241.225 698.885C241.225 698.885 241.225 698.884 241.225 698.884C241.225 698.883 241.225 698.882 241.225 698.882C241.225 698.881 241.225 698.881 241.225 698.88C241.225 698.879 241.225 698.879 241.225 698.878C241.225 698.877 241.225 698.877 241.225 698.876C241.225 698.876 241.225 698.875 241.225 698.874C241.225 698.874 241.225 698.873 241.225 698.872C241.225 698.872 241.225 698.871 241.225 698.871C241.225 698.87 241.225 698.869 241.225 698.869C241.225 698.868 241.225 698.867 241.225 698.867C241.225 698.866 241.225 698.866 241.225 698.865C241.225 698.864 241.225 698.864 241.225 698.863C241.225 698.863 241.225 698.862 241.225 698.861C241.225 698.861 241.225 698.86 241.225 698.859C241.225 698.859 241.225 698.858 241.225 698.858C241.225 698.857 241.225 698.856 241.225 698.856C241.225 698.855 241.225 698.855 241.225 698.854C241.225 698.853 241.225 698.853 241.225 698.852C241.225 698.851 241.225 698.851 241.225 698.85C241.225 698.85 241.225 698.849 241.225 698.848C241.225 698.848 241.225 698.847 241.225 698.847C241.225 698.846 241.225 698.845 241.225 698.845C241.225 698.844 241.225 698.843 241.225 698.843C241.225 698.842 241.225 698.842 241.225 698.841C241.225 698.84 241.225 698.84 241.225 698.839C241.225 698.839 241.225 698.838 241.225 698.837C241.225 698.837 241.225 698.836 241.225 698.835C241.225 698.835 241.225 698.834 241.225 698.834C241.225 698.833 241.225 698.832 241.225 698.832C241.225 698.831 241.225 698.831 241.225 698.83C241.225 698.829 241.225 698.829 241.225 698.828C241.225 698.827 241.225 698.827 241.225 698.826C241.225 698.826 241.225 698.825 241.225 698.824C241.225 698.824 241.225 698.823 241.225 698.823C241.225 698.822 241.225 698.821 241.225 698.821C241.225 698.82 241.225 698.82 241.225 698.819C241.225 698.818 241.225 698.818 241.225 698.817C241.225 698.816 241.225 698.816 241.225 698.815C241.225 698.815 241.225 698.814 241.225 698.813C241.225 698.813 241.225 698.812 241.225 698.812C241.225 698.811 241.225 698.81 241.225 698.81C241.225 698.809 241.225 698.809 241.225 698.808C241.225 698.807 241.225 698.807 241.225 698.806C241.225 698.806 241.225 698.805 241.225 698.804C241.225 698.804 241.225 698.803 241.225 698.802C241.225 698.802 241.225 698.801 241.225 698.801C241.225 698.8 241.225 698.799 241.225 698.799C241.225 698.798 241.225 698.798 241.225 698.797C241.225 698.796 241.225 698.796 241.225 698.795C241.225 698.795 241.225 698.794 241.225 698.793C241.225 698.793 241.225 698.792 241.225 698.792C241.225 698.791 241.225 698.79 241.225 698.79C241.225 698.789 241.225 698.789 241.225 698.788C241.225 698.787 241.225 698.787 241.225 698.786C241.225 698.786 241.225 698.785 241.225 698.784C241.225 698.784 241.225 698.783 241.225 698.782C241.225 698.782 241.225 698.781 241.225 698.781C241.225 698.78 241.225 698.779 241.225 698.779C241.225 698.778 241.225 698.778 241.225 698.777C241.225 698.776 241.225 698.776 241.225 698.775C241.225 698.775 241.225 698.774 241.225 698.773C241.225 698.773 241.225 698.772 241.225 698.772C241.225 698.771 241.225 698.77 241.225 698.77C241.225 698.769 241.225 698.769 241.225 698.768C241.225 698.767 241.225 698.767 241.225 698.766C241.225 698.766 241.225 698.765 241.225 698.764C241.225 698.764 241.225 698.763 241.225 698.763C241.225 698.762 241.225 698.761 241.225 698.761C241.225 698.76 241.225 698.76 241.225 698.759C241.225 698.758 241.225 698.758 241.225 698.757C241.225 698.757 241.225 698.756 241.225 698.755C241.225 698.755 241.225 698.754 241.225 698.754C241.225 698.753 241.225 698.752 241.225 698.752C241.225 698.751 241.225 698.751 241.225 698.75C241.225 698.749 241.225 698.749 241.225 698.748C241.225 698.748 241.225 698.747 241.225 698.746C241.225 698.746 241.225 698.745 241.225 698.745C241.225 698.744 241.225 698.743 241.225 698.743C241.225 698.742 241.225 698.742 241.225 698.741C241.225 698.74 241.225 698.74 241.225 698.739C241.225 698.739 241.225 698.738 241.225 698.737C241.225 698.737 241.225 698.736 241.225 698.736C241.225 698.735 241.225 698.734 241.225 698.734C241.225 698.733 241.225 698.733 241.225 698.732C241.225 698.731 241.225 698.731 241.225 698.73C241.225 698.73 241.225 698.729 241.225 698.729C241.225 698.728 241.225 698.727 241.225 698.727C241.225 698.726 241.225 698.726 241.225 698.725C241.225 698.724 241.225 698.724 241.225 698.723C241.225 698.723 241.225 698.722 241.225 698.721C241.225 698.721 241.225 698.72 241.225 698.72C241.225 698.719 241.225 698.718 241.225 698.718C241.225 698.717 241.225 698.717 241.225 698.716C241.225 698.715 241.225 698.715 241.225 698.714C241.225 698.714 241.225 698.713 241.225 698.712C241.225 698.712 241.225 698.711 241.225 698.711C241.225 698.71 241.225 698.71 241.225 698.709C241.225 698.708 241.225 698.708 241.225 698.707C241.225 698.707 241.225 698.706 241.225 698.705C241.225 698.705 241.225 698.704 241.225 698.704C241.225 698.703 241.225 698.702 241.225 698.702C241.225 698.701 241.225 698.701 241.225 698.7C241.225 698.699 241.225 698.699 241.225 698.698C241.225 698.698 241.225 698.697 241.225 698.697C241.225 698.696 241.225 698.695 241.225 698.695C241.225 698.694 241.225 698.694 241.225 698.693C241.225 698.692 241.225 698.692 241.225 698.691C241.225 698.691 241.225 698.69 241.225 698.689C241.225 698.689 241.225 698.688 241.225 698.688C241.225 698.687 241.225 698.686 241.225 698.686C241.225 698.685 241.225 698.685 241.225 698.684C241.225 698.684 241.225 698.683 241.225 698.682C241.225 698.682 241.225 698.681 241.225 698.681C241.225 698.68 241.225 698.679 241.225 698.679C241.225 698.678 241.225 698.678 241.225 698.677C241.225 698.677 241.225 698.676 241.225 698.675C241.225 698.675 241.225 698.674 241.225 698.674C241.225 698.673 241.225 698.672 241.225 698.672C241.225 698.671 241.225 698.671 241.225 698.67C241.225 698.669 241.225 698.669 241.225 698.668C241.225 698.668 241.225 698.667 241.225 698.667C241.225 698.666 241.225 698.665 241.225 698.665C241.225 698.664 241.225 698.664 241.225 698.663C241.225 698.662 241.225 698.662 241.225 698.661C241.225 698.661 241.225 698.66 241.225 698.66C241.225 698.659 241.225 698.658 241.225 698.658C241.225 698.657 241.225 698.657 241.225 698.656C241.225 698.655 241.225 698.655 241.225 698.654C241.225 698.654 241.225 698.653 241.225 698.653C241.225 698.652 241.225 698.651 241.225 698.651C241.225 698.65 241.225 698.65 241.225 698.649C241.225 698.648 241.225 698.648 241.225 698.647C241.225 698.647 241.225 698.646 241.225 698.646C241.225 698.645 241.225 698.644 241.225 698.644C241.225 698.643 241.225 698.643 241.225 698.642C241.225 698.642 241.225 698.641 241.225 698.64C241.225 698.64 241.225 698.639 241.225 698.639C241.225 698.638 241.225 698.637 241.225 698.637C241.225 698.636 241.225 698.636 241.225 698.635C241.225 698.635 241.225 698.634 241.225 698.633C241.225 698.633 241.225 698.632 241.225 698.632C241.225 698.631 241.225 698.631 241.225 698.63C241.225 698.629 241.225 698.629 241.225 698.628C241.225 698.628 241.225 698.627 241.225 698.626C241.225 698.626 241.225 698.625 241.225 698.625C241.225 698.624 241.225 698.624 241.225 698.623C241.225 698.622 241.225 698.622 241.225 698.621C241.225 698.621 241.225 698.62 241.225 698.62C241.225 698.619 241.225 698.618 241.225 698.618C241.225 698.617 241.225 698.617 241.225 698.616C241.225 698.616 241.225 698.615 241.225 698.614C241.225 698.614 241.225 698.613 241.225 698.613C241.225 698.612 241.225 698.611 241.225 698.611C241.225 698.61 241.225 698.61 241.225 698.609C241.225 698.609 241.225 698.608 241.225 698.607C241.225 698.607 241.225 698.606 241.225 698.606C241.225 698.605 241.225 698.605 241.225 698.604C241.225 698.603 241.225 698.603 241.225 698.602C241.225 698.602 241.225 698.601 241.225 698.601C241.225 698.6 241.225 698.599 241.225 698.599C241.225 698.598 241.225 698.598 241.225 698.597C241.225 698.597 241.225 698.596 241.225 698.595C241.225 698.595 241.225 698.594 241.225 698.594C241.225 698.593 241.225 698.593 241.225 698.592C241.225 698.591 241.225 698.591 241.225 698.59C241.225 698.59 241.225 698.589 241.225 698.589C241.225 698.588 241.225 698.587 241.225 698.587C241.225 698.586 241.225 698.586 241.225 698.585C241.225 698.585 241.225 698.584 241.225 698.583C241.225 698.583 241.225 698.582 241.225 698.582C241.225 698.581 241.225 698.581 241.225 698.58C241.225 698.579 241.225 698.579 241.225 698.578C241.225 698.578 241.225 698.577 241.225 698.577C241.225 698.576 241.225 698.575 241.225 698.575C241.225 698.574 241.225 698.574 241.225 698.573C241.225 698.573 241.225 698.572 241.225 698.571C241.225 698.571 241.225 698.57 241.225 698.57C241.225 698.569 241.225 698.569 241.225 698.568C241.225 698.568 241.225 698.567 241.225 698.566C241.225 698.566 241.225 698.565 241.225 698.565C241.225 698.564 241.225 698.564 241.225 698.563C241.225 698.562 241.225 698.562 241.225 698.561C241.225 698.561 241.225 698.56 241.225 698.56C241.225 698.559 241.225 698.558 241.225 698.558C241.225 698.557 241.225 698.557 241.225 698.556C241.225 698.556 241.225 698.555 241.225 698.554C241.225 698.554 241.225 698.553 241.225 698.553C241.225 698.552 241.225 698.552 241.225 698.551C241.225 698.551 241.225 698.55 241.225 698.549C241.225 698.549 241.225 698.548 241.225 698.548C241.225 698.547 241.225 698.547 241.225 698.546C241.225 698.545 241.225 698.545 241.225 698.544C241.225 698.544 241.225 698.543 241.225 698.543C241.225 698.542 241.225 698.542 241.225 698.541C241.225 698.54 241.225 698.54 241.225 698.539C241.225 698.539 241.225 698.538 241.225 698.538C241.225 698.537 241.225 698.536 241.225 698.536C241.225 698.535 241.225 698.535 241.225 698.534C241.225 698.534 241.225 698.533 241.225 698.533C241.225 698.532 241.225 698.531 241.225 698.531C241.225 698.53 241.225 698.53 241.225 698.529C241.225 698.529 241.225 698.528 241.225 698.528C241.225 698.527 241.225 698.526 241.225 698.526C241.225 698.525 241.225 698.525 241.225 698.524C241.225 698.524 241.225 698.523 241.225 698.522C241.225 698.522 241.225 698.521 241.225 698.521C241.225 698.52 241.225 698.52 241.225 698.519C241.225 698.519 241.225 698.518 241.225 698.517C241.225 698.517 241.225 698.516 241.225 698.516C241.225 698.515 241.225 698.515 241.225 698.514C241.225 698.514 241.225 698.513 241.225 698.512C241.225 698.512 241.225 698.511 241.225 698.511C241.225 698.51 241.225 698.51 241.225 698.509C241.225 698.509 241.225 698.508 241.225 698.507C241.225 698.507 241.225 698.506 241.225 698.506C241.225 698.505 241.225 698.505 241.225 698.504C241.225 698.504 241.225 698.503 241.225 698.502C241.225 698.502 241.225 698.501 241.225 698.501C241.225 698.5 241.225 698.5 241.225 698.499C241.225 698.499 241.225 698.498 241.225 698.497C241.225 698.497 241.225 698.496 241.225 698.496C241.225 698.495 241.225 698.495 241.225 698.494C241.225 698.494 241.225 698.493 241.225 698.492C241.225 698.492 241.225 698.491 241.225 698.491C241.225 698.49 241.225 698.49 241.225 698.489C241.225 698.489 241.225 698.488 241.225 698.487C241.225 698.487 241.225 698.486 241.225 698.486C241.225 698.485 241.225 698.485 241.225 698.484C241.225 698.484 241.225 698.483 241.225 698.482C241.225 698.482 241.225 698.481 241.225 698.481C241.225 698.48 241.225 698.48 241.225 698.479C241.225 698.479 241.225 698.478 241.225 698.478C241.225 698.477 241.225 698.476 241.225 698.476C241.225 698.475 241.225 698.475 241.225 698.474C241.225 698.474 241.225 698.473 241.225 698.473C241.225 698.472 241.225 698.471 241.225 698.471C241.225 698.47 241.225 698.47 241.225 698.469C241.225 698.469 241.225 698.468 241.225 698.468C241.225 698.467 241.225 698.467 241.225 698.466C241.225 698.465 241.225 698.465 241.225 698.464C241.225 698.464 241.225 698.463 241.225 698.463C241.225 698.462 241.225 698.462 241.225 698.461C241.225 698.46 241.225 698.46 241.225 698.459C241.225 698.459 241.225 698.458 241.225 698.458C241.225 698.457 241.225 698.457 241.225 698.456C241.225 698.456 241.225 698.455 241.225 698.454C241.225 698.454 241.225 698.453 241.225 698.453C241.225 698.452 241.225 698.452 241.225 698.451C241.225 698.451 241.225 698.45 241.225 698.45C241.225 698.449 241.225 698.448 241.225 698.448C241.225 698.447 241.225 698.447 241.225 698.446C241.225 698.446 241.225 698.445 241.225 698.445C241.225 698.444 241.225 698.444 241.225 698.443C241.225 698.442 241.225 698.442 241.225 698.441C241.225 698.441 241.225 698.44 241.225 698.44C241.225 698.439 241.225 698.439 241.225 698.438C241.225 698.438 241.225 698.437 241.225 698.437C241.225 698.436 241.225 698.435 241.225 698.435C241.225 698.434 241.225 698.434 241.225 698.433C241.225 698.433 241.225 698.432 241.225 698.432C241.225 698.431 241.225 698.431 241.225 698.43C241.225 698.429 241.225 698.429 241.225 698.428C241.225 698.428 241.225 698.427 241.225 698.427C241.225 698.426 241.225 698.426 241.225 698.425C241.225 698.425 241.225 698.424 241.225 698.423C241.225 698.423 241.225 698.422 241.225 698.422C241.225 698.421 241.225 698.421 241.225 698.42C241.225 698.42 241.225 698.419 241.225 698.419C241.225 698.418 241.225 698.418 241.225 698.417C241.225 698.416 241.225 698.416 241.225 698.415C241.225 698.415 241.225 698.414 241.225 698.414C241.225 698.413 241.225 698.413 241.225 698.412C241.225 698.412 241.225 698.411 241.225 698.411C241.225 698.41 241.225 698.409 241.225 698.409C241.225 698.408 241.225 698.408 241.225 698.407C241.225 698.407 241.225 698.406 241.225 698.406C241.225 698.405 241.225 698.405 241.225 698.404C241.225 698.404 241.225 698.403 241.225 698.402C241.225 698.402 241.225 698.401 241.225 698.401C241.225 698.4 241.225 698.4 241.225 698.399C241.225 698.399 241.225 698.398 241.225 698.398C241.225 698.397 241.225 698.397 241.225 698.396C241.225 698.396 241.225 698.395 241.225 698.394C241.225 698.394 241.225 698.393 241.225 698.393C241.225 698.392 241.225 698.392 241.225 698.391C241.225 698.391 241.225 698.39 241.225 698.39C241.225 698.389 241.225 698.389 241.225 698.388C241.225 698.387 241.225 698.387 241.225 698.386C241.225 698.386 241.225 698.385 241.225 698.385C241.225 698.384 241.225 698.384 241.225 698.383C241.225 698.383 241.225 698.382 241.225 698.382C241.225 698.381 241.225 698.381 241.225 698.38C241.225 698.38 241.225 698.379 241.225 698.378C241.225 698.378 241.225 698.377 241.225 698.377C241.225 698.376 241.225 698.376 241.225 698.375C241.225 698.375 241.225 698.374 241.225 698.374C241.225 698.373 241.225 698.373 241.225 698.372C241.225 698.372 241.225 698.371 241.225 698.37C241.225 698.37 241.225 698.369 241.225 698.369C241.225 698.368 241.225 698.368 241.225 698.367C241.225 698.367 241.225 698.366 241.225 698.366C241.225 698.365 241.225 698.365 241.225 698.364C241.225 698.364 241.225 698.363 241.225 698.363C241.225 698.362 241.225 698.361 241.225 698.361C241.225 698.36 241.225 698.36 241.225 698.359C241.225 698.359 241.225 698.358 241.225 698.358C241.225 698.357 241.225 698.357 241.225 698.356C241.225 698.356 241.225 698.355 241.225 698.355C241.225 698.354 241.225 698.354 241.225 698.353C241.225 698.352 241.225 698.352 241.225 698.351C241.225 698.351 241.225 698.35 241.225 698.35C241.225 698.349 241.225 698.349 241.225 698.348C241.225 698.348 241.225 698.347 241.225 698.347C241.225 698.346 241.225 698.346 241.225 698.345C241.225 698.345 241.225 698.344 241.225 698.344C241.225 698.343 241.225 698.342 241.225 698.342C241.225 698.341 241.225 698.341 241.225 698.34C241.225 698.34 241.225 698.339 241.225 698.339C241.225 698.338 241.225 698.338 241.225 698.337C241.225 698.337 241.225 698.336 241.225 698.336C241.225 698.335 241.225 698.335 241.225 698.334C241.225 698.334 241.225 698.333 241.225 698.333C241.225 698.332 241.225 698.331 241.225 698.331C241.225 698.33 241.225 698.33 241.225 698.329C241.225 698.329 241.225 698.328 241.225 698.328C241.225 698.327 241.225 698.327 241.225 698.326C241.225 698.326 241.225 698.325 241.225 698.325C241.225 698.324 241.225 698.324 241.225 698.323C241.225 698.323 241.225 698.322 241.225 698.322C241.225 698.321 241.225 698.321 241.225 698.32H239.225ZM239.225 699.24C239.225 699.505 239.203 699.787 239.157 700.088L241.134 700.392C241.194 700 241.225 699.615 241.225 699.24H239.225ZM240.145 699.24H223.785V701.24H240.145V699.24ZM224.785 700.24V696.96H222.785V700.24H224.785ZM223.785 697.96H234.785V695.96H223.785V697.96ZM235.783 696.899C235.69 695.37 235.13 694.077 234.044 693.127L232.727 694.633C233.348 695.176 233.721 695.936 233.787 697.021L235.783 696.899ZM234.056 693.138C233.022 692.204 231.733 691.76 230.265 691.76V693.76C231.304 693.76 232.095 694.062 232.715 694.622L234.056 693.138ZM230.265 691.76C229.194 691.76 228.188 692.014 227.262 692.524L228.228 694.276C228.85 693.933 229.523 693.76 230.265 693.76V691.76ZM227.286 692.512C226.312 693.015 225.56 693.799 225.022 694.811L226.788 695.749C227.157 695.055 227.632 694.585 228.205 694.288L227.286 692.512ZM225.011 694.833C224.494 695.867 224.265 697.112 224.265 698.52H226.265C226.265 697.314 226.463 696.4 226.8 695.727L225.011 694.833ZM224.265 698.52V699.68H226.265V698.52H224.265ZM224.265 699.68C224.265 700.896 224.488 702.01 224.965 702.996L226.765 702.124C226.443 701.457 226.265 700.651 226.265 699.68H224.265ZM224.983 703.031C225.491 703.983 226.2 704.745 227.106 705.295L228.144 703.585C227.557 703.229 227.093 702.737 226.748 702.089L224.983 703.031ZM227.129 705.308C228.048 705.833 229.091 706.08 230.225 706.08V704.08C229.387 704.08 228.696 703.9 228.121 703.572L227.129 705.308ZM230.225 706.08C231.354 706.08 232.375 705.835 233.22 705.272L232.111 703.608C231.676 703.898 231.07 704.08 230.225 704.08V706.08ZM233.204 705.282C234.016 704.763 234.641 704.079 235.047 703.233L233.244 702.367C233.01 702.855 232.648 703.264 232.126 703.598L233.204 705.282ZM234.145 703.8H239.665V701.8H234.145V703.8ZM238.707 702.515C238.375 703.628 237.819 704.636 237.03 705.544L238.54 706.856C239.511 705.738 240.209 704.479 240.624 703.085L238.707 702.515ZM237.03 705.544C236.248 706.445 235.286 707.161 234.129 707.691L234.962 709.509C236.365 708.866 237.562 707.982 238.54 706.856L237.03 705.544ZM234.129 707.691C232.994 708.211 231.712 708.48 230.265 708.48V710.48C231.965 710.48 233.537 710.162 234.962 709.509L234.129 707.691ZM259.502 707.68L258.979 708.532L258.986 708.537L258.992 708.54L259.502 707.68ZM254.862 702.6L253.963 703.038L253.966 703.045L253.97 703.052L254.862 702.6ZM254.862 687.48L253.967 687.033L253.963 687.042L254.862 687.48ZM259.502 682.36L258.984 681.504L258.979 681.508L259.502 682.36ZM275.062 683.04L275.676 682.251L275.062 683.04ZM279.102 690.16V691.16H280.291L280.087 689.989L279.102 690.16ZM273.222 690.16L272.248 690.386L272.427 691.16H273.222V690.16ZM271.022 686.68L270.407 687.468L270.417 687.477L270.428 687.485L271.022 686.68ZM262.422 686.6L262.972 687.435L262.977 687.432L262.422 686.6ZM259.702 689.92L260.613 690.333L260.616 690.326L259.702 689.92ZM259.702 700.16L260.616 699.754L259.702 700.16ZM262.422 703.48L261.872 704.315L261.88 704.321L262.422 703.48ZM271.022 703.48L271.599 704.296L271.606 704.292L271.612 704.287L271.022 703.48ZM273.182 700.16V699.16H272.398L272.211 699.922L273.182 700.16ZM279.102 700.16L280.085 700.34L280.302 699.16H279.102V700.16ZM275.062 707L274.454 706.206L275.062 707ZM266.742 708.48C264.087 708.48 261.857 707.912 260.011 706.82L258.992 708.54C261.2 709.848 263.797 710.48 266.742 710.48V708.48ZM260.025 706.828C258.188 705.701 256.767 704.149 255.754 702.148L253.97 703.052C255.144 705.371 256.816 707.206 258.979 708.532L260.025 706.828ZM255.761 702.162C254.771 700.133 254.262 697.768 254.262 695.04H252.262C252.262 698.019 252.819 700.694 253.963 703.038L255.761 702.162ZM254.262 695.04C254.262 692.312 254.771 689.947 255.761 687.918L253.963 687.042C252.819 689.386 252.262 692.061 252.262 695.04H254.262ZM255.756 687.927C256.77 685.9 258.191 684.337 260.025 683.212L258.979 681.508C256.813 682.836 255.141 684.686 253.967 687.033L255.756 687.927ZM260.02 683.215C261.864 682.099 264.091 681.52 266.742 681.52V679.52C263.793 679.52 261.193 680.167 258.984 681.504L260.02 683.215ZM266.742 681.52C269.96 681.52 272.502 682.316 274.448 683.829L275.676 682.251C273.302 680.404 270.297 679.52 266.742 679.52V681.52ZM274.448 683.829C276.384 685.336 277.62 687.474 278.117 690.331L280.087 689.989C279.517 686.713 278.059 684.104 275.676 682.251L274.448 683.829ZM279.102 689.16H273.222V691.16H279.102V689.16ZM274.196 689.934C273.801 688.234 272.947 686.858 271.616 685.875L270.428 687.485C271.337 688.155 271.949 689.1 272.248 690.386L274.196 689.934ZM271.637 685.892C270.323 684.866 268.647 684.4 266.702 684.4V686.4C268.33 686.4 269.534 686.787 270.407 687.468L271.637 685.892ZM266.702 684.4C264.881 684.4 263.255 684.843 261.867 685.768L262.977 687.432C263.989 686.757 265.216 686.4 266.702 686.4V684.4ZM261.872 685.765C260.52 686.656 259.496 687.921 258.788 689.514L260.616 690.326C261.188 689.039 261.977 688.091 262.972 687.435L261.872 685.765ZM258.791 689.507C258.078 691.082 257.742 692.937 257.742 695.04H259.742C259.742 693.143 260.046 691.585 260.613 690.333L258.791 689.507ZM257.742 695.04C257.742 697.119 258.079 698.97 258.788 700.566L260.616 699.754C260.045 698.47 259.742 696.908 259.742 695.04H257.742ZM258.788 700.566C259.496 702.159 260.52 703.424 261.872 704.315L262.972 702.645C261.977 701.989 261.188 701.041 260.616 699.754L258.788 700.566ZM261.88 704.321C263.266 705.214 264.887 705.64 266.702 705.64V703.64C265.21 703.64 263.978 703.293 262.964 702.639L261.88 704.321ZM266.702 705.64C268.627 705.64 270.289 705.223 271.599 704.296L270.444 702.664C269.568 703.283 268.35 703.64 266.702 703.64V705.64ZM271.612 704.287C272.91 703.337 273.755 702.022 274.153 700.398L272.211 699.922C271.916 701.125 271.32 702.023 270.431 702.673L271.612 704.287ZM273.182 701.16H279.102V699.16H273.182V701.16ZM278.118 699.98C277.626 702.665 276.399 704.717 274.454 706.206L275.67 707.794C278.044 705.976 279.512 703.468 280.085 700.34L278.118 699.98ZM274.454 706.206C272.508 707.696 269.964 708.48 266.742 708.48V710.48C270.293 710.48 273.296 709.611 275.67 707.794L274.454 706.206ZM287.913 708.16L287.401 709.019L287.41 709.024L287.419 709.029L287.913 708.16ZM284.273 704.44L283.397 704.922L283.402 704.931L283.407 704.939L284.273 704.44ZM284.273 693.44L283.403 692.947L283.4 692.952L284.273 693.44ZM287.953 689.72L288.448 690.589L288.459 690.583L287.953 689.72ZM298.353 689.72L297.841 690.579L297.85 690.584L297.859 690.589L298.353 689.72ZM301.993 693.44L301.117 693.922L301.122 693.931L301.127 693.939L301.993 693.44ZM301.993 704.44L301.123 703.947L301.12 703.952L301.993 704.44ZM298.353 708.16L298.848 709.029L298.859 709.023L298.353 708.16ZM295.513 704.16L295.003 703.3L294.996 703.304L294.989 703.308L295.513 704.16ZM297.193 702.2L296.293 701.764L296.288 701.775L296.283 701.786L297.193 702.2ZM297.193 695.68L296.283 696.094L296.29 696.111L296.299 696.127L297.193 695.68ZM295.513 693.72L294.966 694.557L294.984 694.569L295.003 694.58L295.513 693.72ZM290.793 693.72L291.303 694.58L291.315 694.573L291.326 694.566L290.793 693.72ZM289.073 695.68L288.173 695.244L288.168 695.256L289.073 695.68ZM289.073 702.2L288.163 702.614L288.168 702.625L288.173 702.636L289.073 702.2ZM290.753 704.16L290.229 705.012L290.236 705.016L290.243 705.02L290.753 704.16ZM293.113 708.48C291.352 708.48 289.792 708.078 288.408 707.291L287.419 709.029C289.128 710.002 291.034 710.48 293.113 710.48V708.48ZM288.425 707.301C287.056 706.484 285.963 705.37 285.14 703.941L283.407 704.939C284.396 706.657 285.73 708.022 287.401 709.019L288.425 707.301ZM285.149 703.958C284.36 702.523 283.953 700.866 283.953 698.96H281.953C281.953 701.161 282.426 703.157 283.397 704.922L285.149 703.958ZM283.953 698.96C283.953 696.995 284.362 695.329 285.146 693.928L283.4 692.952C282.424 694.698 281.953 696.711 281.953 698.96H283.953ZM285.143 693.933C285.964 692.484 287.063 691.377 288.448 690.589L287.459 688.851C285.75 689.823 284.396 691.196 283.403 692.947L285.143 693.933ZM288.459 690.583C289.841 689.772 291.398 689.36 293.153 689.36V687.36C291.068 687.36 289.158 687.854 287.447 688.857L288.459 690.583ZM293.153 689.36C294.938 689.36 296.491 689.774 297.841 690.579L298.865 688.861C297.175 687.853 295.262 687.36 293.153 687.36V689.36ZM297.859 690.589C299.24 691.375 300.323 692.479 301.117 693.922L302.869 692.958C301.903 691.201 300.559 689.825 298.848 688.851L297.859 690.589ZM301.127 693.939C301.934 695.34 302.353 696.989 302.353 698.92H304.353C304.353 696.691 303.866 694.687 302.86 692.941L301.127 693.939ZM302.353 698.92C302.353 700.85 301.934 702.516 301.123 703.947L302.863 704.933C303.866 703.164 304.353 701.15 304.353 698.92H302.353ZM301.12 703.952C300.327 705.371 299.24 706.481 297.847 707.297L298.859 709.023C300.56 708.026 301.9 706.656 302.866 704.928L301.12 703.952ZM297.859 707.291C296.477 708.077 294.903 708.48 293.113 708.48V710.48C295.216 710.48 297.136 710.003 298.848 709.029L297.859 707.291ZM293.113 705.8C294.183 705.8 295.169 705.546 296.037 705.012L294.989 703.308C294.471 703.627 293.856 703.8 293.113 703.8V705.8ZM296.023 705.02C296.945 704.474 297.632 703.65 298.103 702.614L296.283 701.786C295.954 702.51 295.521 702.993 295.003 703.3L296.023 705.02ZM298.093 702.636C298.604 701.583 298.833 700.329 298.833 698.92H296.833C296.833 700.124 296.636 701.057 296.293 701.764L298.093 702.636ZM298.833 698.92C298.833 697.512 298.604 696.267 298.088 695.233L296.299 696.127C296.635 696.8 296.833 697.714 296.833 698.92H298.833ZM298.103 695.266C297.632 694.23 296.945 693.406 296.023 692.86L295.003 694.58C295.521 694.887 295.954 695.37 296.283 696.094L298.103 695.266ZM296.06 692.883C295.194 692.317 294.215 692.04 293.153 692.04V694.04C293.851 694.04 294.446 694.217 294.966 694.557L296.06 692.883ZM293.153 692.04C292.112 692.04 291.14 692.32 290.26 692.874L291.326 694.566C291.886 694.214 292.488 694.04 293.153 694.04V692.04ZM290.283 692.86C289.368 693.402 288.671 694.218 288.173 695.244L289.973 696.116C290.329 695.382 290.779 694.891 291.303 694.58L290.283 692.86ZM288.168 695.256C287.686 696.283 287.473 697.52 287.473 698.92H289.473C289.473 697.707 289.66 696.784 289.979 696.104L288.168 695.256ZM287.473 698.92C287.473 700.322 287.687 701.567 288.163 702.614L289.983 701.786C289.659 701.073 289.473 700.131 289.473 698.92H287.473ZM288.173 702.636C288.666 703.653 289.343 704.467 290.229 705.012L291.277 703.308C290.776 703 290.333 702.507 289.973 701.764L288.173 702.636ZM290.243 705.02C291.121 705.54 292.084 705.8 293.113 705.8V703.8C292.435 703.8 291.825 703.633 291.263 703.3L290.243 705.02ZM312.327 708.16L311.815 709.019L311.824 709.024L311.833 709.029L312.327 708.16ZM308.687 704.44L307.811 704.922L307.816 704.931L307.821 704.939L308.687 704.44ZM308.687 693.44L307.817 692.947L307.814 692.952L308.687 693.44ZM312.367 689.72L312.862 690.589L312.873 690.583L312.367 689.72ZM322.767 689.72L322.255 690.579L322.264 690.584L322.273 690.589L322.767 689.72ZM326.407 693.44L325.531 693.922L325.536 693.931L325.541 693.939L326.407 693.44ZM326.407 704.44L325.537 703.947L325.534 703.952L326.407 704.44ZM322.767 708.16L323.262 709.029L323.273 709.023L322.767 708.16ZM319.927 704.16L319.417 703.3L319.41 703.304L319.403 703.308L319.927 704.16ZM321.607 702.2L320.707 701.764L320.702 701.775L320.697 701.786L321.607 702.2ZM321.607 695.68L320.697 696.094L320.704 696.111L320.713 696.127L321.607 695.68ZM319.927 693.72L319.38 694.557L319.398 694.569L319.417 694.58L319.927 693.72ZM315.207 693.72L315.717 694.58L315.729 694.573L315.74 694.566L315.207 693.72ZM313.487 695.68L312.587 695.244L312.582 695.256L313.487 695.68ZM313.487 702.2L312.577 702.614L312.582 702.625L312.587 702.636L313.487 702.2ZM315.167 704.16L314.643 705.012L314.65 705.016L314.657 705.02L315.167 704.16ZM317.527 708.48C315.766 708.48 314.206 708.078 312.822 707.291L311.833 709.029C313.542 710.002 315.448 710.48 317.527 710.48V708.48ZM312.839 707.301C311.47 706.484 310.377 705.37 309.554 703.941L307.821 704.939C308.81 706.657 310.144 708.022 311.815 709.019L312.839 707.301ZM309.563 703.958C308.774 702.523 308.367 700.866 308.367 698.96H306.367C306.367 701.161 306.84 703.157 307.811 704.922L309.563 703.958ZM308.367 698.96C308.367 696.995 308.776 695.329 309.56 693.928L307.814 692.952C306.838 694.698 306.367 696.711 306.367 698.96H308.367ZM309.557 693.933C310.378 692.484 311.477 691.377 312.862 690.589L311.873 688.851C310.164 689.823 308.81 691.196 307.817 692.947L309.557 693.933ZM312.873 690.583C314.255 689.772 315.812 689.36 317.567 689.36V687.36C315.482 687.36 313.572 687.854 311.861 688.857L312.873 690.583ZM317.567 689.36C319.352 689.36 320.905 689.774 322.255 690.579L323.279 688.861C321.589 687.853 319.676 687.36 317.567 687.36V689.36ZM322.273 690.589C323.654 691.375 324.738 692.479 325.531 693.922L327.283 692.958C326.317 691.201 324.973 689.825 323.262 688.851L322.273 690.589ZM325.541 693.939C326.348 695.34 326.767 696.989 326.767 698.92H328.767C328.767 696.691 328.28 694.687 327.274 692.941L325.541 693.939ZM326.767 698.92C326.767 700.85 326.348 702.516 325.537 703.947L327.277 704.933C328.28 703.164 328.767 701.15 328.767 698.92H326.767ZM325.534 703.952C324.741 705.371 323.654 706.481 322.261 707.297L323.273 709.023C324.974 708.026 326.314 706.656 327.28 704.928L325.534 703.952ZM322.273 707.291C320.891 708.077 319.317 708.48 317.527 708.48V710.48C319.631 710.48 321.55 710.003 323.262 709.029L322.273 707.291ZM317.527 705.8C318.597 705.8 319.583 705.546 320.451 705.012L319.403 703.308C318.885 703.627 318.27 703.8 317.527 703.8V705.8ZM320.437 705.02C321.359 704.474 322.046 703.65 322.518 702.614L320.697 701.786C320.368 702.51 319.935 702.993 319.417 703.3L320.437 705.02ZM322.507 702.636C323.018 701.583 323.247 700.329 323.247 698.92H321.247C321.247 700.124 321.05 701.057 320.707 701.764L322.507 702.636ZM323.247 698.92C323.247 697.512 323.018 696.267 322.502 695.233L320.713 696.127C321.049 696.8 321.247 697.714 321.247 698.92H323.247ZM322.518 695.266C322.046 694.23 321.359 693.406 320.437 692.86L319.417 694.58C319.935 694.887 320.368 695.37 320.697 696.094L322.518 695.266ZM320.474 692.883C319.608 692.317 318.629 692.04 317.567 692.04V694.04C318.266 694.04 318.86 694.217 319.38 694.557L320.474 692.883ZM317.567 692.04C316.526 692.04 315.554 692.32 314.674 692.874L315.74 694.566C316.3 694.214 316.902 694.04 317.567 694.04V692.04ZM314.697 692.86C313.782 693.402 313.085 694.218 312.587 695.244L314.387 696.116C314.743 695.382 315.193 694.891 315.717 694.58L314.697 692.86ZM312.582 695.256C312.1 696.283 311.887 697.52 311.887 698.92H313.887C313.887 697.707 314.074 696.784 314.393 696.104L312.582 695.256ZM311.887 698.92C311.887 700.322 312.101 701.567 312.577 702.614L314.398 701.786C314.074 701.073 313.887 700.131 313.887 698.92H311.887ZM312.587 702.636C313.08 703.653 313.757 704.467 314.643 705.012L315.691 703.308C315.19 703 314.747 702.507 314.387 701.764L312.587 702.636ZM314.657 705.02C315.535 705.54 316.498 705.8 317.527 705.8V703.8C316.85 703.8 316.24 703.633 315.677 703.3L314.657 705.02ZM332.421 709H331.421V710H332.421V709ZM332.421 680.2V679.2H331.421V680.2H332.421ZM337.821 680.2H338.821V679.2H337.821V680.2ZM337.821 709V710H338.821V709H337.821ZM333.421 709V680.2H331.421V709H333.421ZM332.421 681.2H337.821V679.2H332.421V681.2ZM336.821 680.2V709H338.821V680.2H336.821ZM337.821 708H332.421V710H337.821V708ZM352.619 709H351.619V710H352.619V709ZM352.619 681V680H351.619V681H352.619ZM358.019 681L358.851 680.445L358.555 680H358.019V681ZM370.899 700.32L370.067 700.875L371.899 703.623V700.32H370.899ZM370.899 681V680H369.899V681H370.899ZM376.299 681H377.299V680H376.299V681ZM376.299 709V710H377.299V709H376.299ZM370.899 709L370.068 709.555L370.365 710H370.899V709ZM358.019 689.72L358.851 689.165L357.019 686.423V689.72H358.019ZM358.019 709V710H359.019V709H358.019ZM353.619 709V681H351.619V709H353.619ZM352.619 682H358.019V680H352.619V682ZM357.187 681.555L370.067 700.875L371.731 699.765L358.851 680.445L357.187 681.555ZM371.899 700.32V681H369.899V700.32H371.899ZM370.899 682H376.299V680H370.899V682ZM375.299 681V709H377.299V681H375.299ZM376.299 708H370.899V710H376.299V708ZM371.731 708.445L358.851 689.165L357.188 690.275L370.068 709.555L371.731 708.445ZM357.019 689.72V709H359.019V689.72H357.019ZM358.019 708H352.619V710H358.019V708ZM385.96 708.16L385.448 709.019L385.457 709.024L385.465 709.029L385.96 708.16ZM382.32 704.44L381.444 704.922L381.449 704.931L381.454 704.939L382.32 704.44ZM382.32 693.44L381.45 692.947L381.447 692.952L382.32 693.44ZM386 689.72L386.495 690.589L386.506 690.583L386 689.72ZM396.4 689.72L395.888 690.579L395.897 690.584L395.905 690.589L396.4 689.72ZM400.04 693.44L399.164 693.922L399.169 693.931L399.174 693.939L400.04 693.44ZM400.04 704.44L399.17 703.947L399.167 703.952L400.04 704.44ZM396.4 708.16L396.895 709.029L396.906 709.023L396.4 708.16ZM393.56 704.16L393.05 703.3L393.043 703.304L393.036 703.308L393.56 704.16ZM395.24 702.2L394.34 701.764L394.335 701.775L394.33 701.786L395.24 702.2ZM395.24 695.68L394.33 696.094L394.337 696.111L394.346 696.127L395.24 695.68ZM393.56 693.72L393.013 694.557L393.031 694.569L393.05 694.58L393.56 693.72ZM388.84 693.72L389.35 694.58L389.361 694.573L389.373 694.566L388.84 693.72ZM387.12 695.68L386.22 695.244L386.215 695.256L387.12 695.68ZM387.12 702.2L386.21 702.614L386.215 702.625L386.22 702.636L387.12 702.2ZM388.8 704.16L388.276 705.012L388.283 705.016L388.29 705.02L388.8 704.16ZM391.16 708.48C389.399 708.48 387.839 708.078 386.455 707.291L385.465 709.029C387.175 710.002 389.081 710.48 391.16 710.48V708.48ZM386.472 707.301C385.103 706.484 384.01 705.37 383.186 703.941L381.454 704.939C382.443 706.657 383.777 708.022 385.448 709.019L386.472 707.301ZM383.196 703.958C382.407 702.523 382 700.866 382 698.96H380C380 701.161 380.473 703.157 381.444 704.922L383.196 703.958ZM382 698.96C382 696.995 382.409 695.329 383.193 693.928L381.447 692.952C380.471 694.698 380 696.711 380 698.96H382ZM383.19 693.933C384.011 692.484 385.11 691.377 386.495 690.589L385.505 688.851C383.797 689.823 382.442 691.196 381.45 692.947L383.19 693.933ZM386.506 690.583C387.888 689.772 389.445 689.36 391.2 689.36V687.36C389.115 687.36 387.205 687.854 385.494 688.857L386.506 690.583ZM391.2 689.36C392.985 689.36 394.538 689.774 395.888 690.579L396.912 688.861C395.222 687.853 393.308 687.36 391.2 687.36V689.36ZM395.905 690.589C397.287 691.375 398.37 692.479 399.164 693.922L400.916 692.958C399.95 691.201 398.606 689.825 396.895 688.851L395.905 690.589ZM399.174 693.939C399.981 695.34 400.4 696.989 400.4 698.92H402.4C402.4 696.691 401.913 694.687 400.906 692.941L399.174 693.939ZM400.4 698.92C400.4 700.85 399.981 702.516 399.17 703.947L400.91 704.933C401.913 703.164 402.4 701.15 402.4 698.92H400.4ZM399.167 703.952C398.374 705.371 397.287 706.481 395.894 707.297L396.906 709.023C398.607 708.026 399.946 706.656 400.913 704.928L399.167 703.952ZM395.905 707.291C394.523 708.077 392.95 708.48 391.16 708.48V710.48C393.263 710.48 395.183 710.003 396.895 709.029L395.905 707.291ZM391.16 705.8C392.23 705.8 393.216 705.546 394.084 705.012L393.036 703.308C392.518 703.627 391.903 703.8 391.16 703.8V705.8ZM394.07 705.02C394.992 704.474 395.679 703.65 396.15 702.614L394.33 701.786C394.001 702.51 393.568 702.993 393.05 703.3L394.07 705.02ZM396.14 702.636C396.651 701.583 396.88 700.329 396.88 698.92H394.88C394.88 700.124 394.683 701.057 394.34 701.764L396.14 702.636ZM396.88 698.92C396.88 697.512 396.651 696.267 396.134 695.233L394.346 696.127C394.682 696.8 394.88 697.714 394.88 698.92H396.88ZM396.15 695.266C395.679 694.23 394.992 693.406 394.07 692.86L393.05 694.58C393.568 694.887 394.001 695.37 394.33 696.094L396.15 695.266ZM394.107 692.883C393.241 692.317 392.262 692.04 391.2 692.04V694.04C391.898 694.04 392.492 694.217 393.013 694.557L394.107 692.883ZM391.2 692.04C390.159 692.04 389.187 692.32 388.307 692.874L389.373 694.566C389.933 694.214 390.535 694.04 391.2 694.04V692.04ZM388.33 692.86C387.415 693.402 386.718 694.218 386.22 695.244L388.02 696.116C388.376 695.382 388.826 694.891 389.35 694.58L388.33 692.86ZM386.215 695.256C385.733 696.283 385.52 697.52 385.52 698.92H387.52C387.52 697.707 387.707 696.784 388.025 696.104L386.215 695.256ZM385.52 698.92C385.52 700.322 385.734 701.567 386.21 702.614L388.03 701.786C387.706 701.073 387.52 700.131 387.52 698.92H385.52ZM386.22 702.636C386.713 703.653 387.39 704.467 388.276 705.012L389.324 703.308C388.823 703 388.38 702.507 388.02 701.764L386.22 702.636ZM388.29 705.02C389.168 705.54 390.131 705.8 391.16 705.8V703.8C390.482 703.8 389.872 703.633 389.31 703.3L388.29 705.02ZM409.35 709L408.391 709.282L408.601 710H409.35V709ZM403.43 688.84V687.84H402.094L402.471 689.122L403.43 688.84ZM408.75 688.84L409.722 688.607L409.539 687.84H408.75V688.84ZM412.67 705.2L412.63 706.199L413.95 706.252L413.642 704.967L412.67 705.2ZM411.67 705.16L410.706 704.895L410.373 706.109L411.63 706.159L411.67 705.16ZM416.15 688.84V687.84H415.388L415.186 688.575L416.15 688.84ZM422.15 688.84L423.114 688.575L422.912 687.84H422.15V688.84ZM426.63 705.16L426.668 706.159L427.928 706.111L427.594 704.895L426.63 705.16ZM425.59 705.2L424.618 704.965L424.307 706.25L425.628 706.199L425.59 705.2ZM429.55 688.84V687.84H428.763L428.578 688.605L429.55 688.84ZM434.87 688.84L435.829 689.122L436.206 687.84H434.87V688.84ZM428.95 709V710H429.699L429.909 709.282L428.95 709ZM423.35 709L422.388 709.273L422.594 710H423.35V709ZM418.59 692.2V691.2H417.267L417.628 692.473L418.59 692.2ZM419.71 692.2L420.672 692.473L421.033 691.2H419.71V692.2ZM414.95 709V710H415.706L415.912 709.273L414.95 709ZM410.309 708.718L404.389 688.558L402.471 689.122L408.391 709.282L410.309 708.718ZM403.43 689.84H408.75V687.84H403.43V689.84ZM407.778 689.073L411.698 705.433L413.642 704.967L409.722 688.607L407.778 689.073ZM412.71 704.201L411.71 704.161L411.63 706.159L412.63 706.199L412.71 704.201ZM412.634 705.425L417.114 689.105L415.186 688.575L410.706 704.895L412.634 705.425ZM416.15 689.84H422.15V687.84H416.15V689.84ZM421.186 689.105L425.666 705.425L427.594 704.895L423.114 688.575L421.186 689.105ZM426.592 704.161L425.552 704.201L425.628 706.199L426.668 706.159L426.592 704.161ZM426.562 705.435L430.522 689.075L428.578 688.605L424.618 704.965L426.562 705.435ZM429.55 689.84H434.87V687.84H429.55V689.84ZM433.911 688.558L427.991 708.718L429.909 709.282L435.829 689.122L433.911 688.558ZM428.95 708H423.35V710H428.95V708ZM424.312 708.727L419.552 691.927L417.628 692.473L422.388 709.273L424.312 708.727ZM418.59 693.2H419.71V691.2H418.59V693.2ZM418.748 691.927L413.988 708.727L415.912 709.273L420.672 692.473L418.748 691.927ZM414.95 708H409.35V710H414.95V708Z" fill="#FFFFF0" mask="url(#path-14-outside-1_1001_1925)"/>
<line x1="485" y1="694" x2="628" y2="694" stroke="#FFFFF0" stroke-width="10"/>
<defs>
<clipPath id="clip0_1001_1925">
<rect x="57" width="511" height="506" rx="253" fill="white"/>
</clipPath>
</defs>
</svg>
