<svg width="1400" height="506" viewBox="0 0 1400 506" fill="none" xmlns="http://www.w3.org/2000/svg">
<g clip-path="url(#clip0_915_2463)">
<path d="M19.7273 159.89C-42.296 263.705 22.8951 363.519 57.7416 404.553C112.962 351.62 200.462 368.135 237.309 383.01C311.737 417.478 366.357 411.734 384.364 404.553C523.616 314.689 509.744 204.001 485.402 159.89C428.18 24.8893 311.17 0.0297596 259.817 4.47507C94.9555 18.0162 27.3968 116.463 19.7273 159.89Z" fill="#80B2FF" stroke="#545454" stroke-width="10"/>
<path d="M379.827 235.054C344 268.5 289.994 247.72 267.539 242.192C245.149 172.921 283.327 145.054 319.827 124.054C356.327 103.054 401.827 117.554 433.827 112.554C427.827 186.554 396 219.956 379.827 235.054Z" fill="#9ACE96" stroke="#FFFFF0" stroke-width="5"/>
<path d="M59 410C78.8333 387.5 143.6 350.1 244 380.5C315.5 418 467.9 434.8 507.5 230" stroke="#545454" stroke-width="10"/>
<path d="M323.516 492.679C179.907 523.801 90.1684 448.693 62.5 407C104.903 352.241 193.664 366.525 237.5 379C414.311 467.244 493.193 324.595 506.527 244C515.728 393.306 388.353 471.997 323.516 492.679Z" fill="#E6ECCC" stroke="#545454"/>
<path d="M240 280.5C243.134 295.203 248.364 334.15 244.363 374.31" stroke="#FFFFF0" stroke-width="7"/>
<path d="M76.8189 54.3871C-44.9925 184.459 3.78577 343.667 48.6778 401C89.2816 367.541 172.088 386.71 199.057 387.582C-12.8066 187.665 231.888 79.4806 387 51.9467C253.128 -44.2477 125.899 1.9333 76.8189 54.3871Z" fill="#488EF8" stroke="#488EF8" stroke-width="10"/>
<path d="M292.97 396.994C165.514 336.83 83.8833 381.624 59 406.692C204.091 523.283 361.883 432.751 420 379.5C384.328 409.769 318.688 404.935 292.97 396.994Z" fill="#2E4E3F" stroke="#545454" stroke-width="10"/>
<path d="M101.5 226.103C136.3 260.903 207.667 252.167 230.5 248.5C258.5 181.301 228.5 150.5 209 135C175 107 116 127 65.5 122C65.5 179.2 88.5 211.5 101.5 226.103Z" fill="#9ACE96" stroke="#FFFFF0" stroke-width="5"/>
<path d="M133 167C176 180.5 222.3 191.7 239.5 282.5C256.5 248.5 309 187 381.5 145.5" stroke="#FFFFF0" stroke-width="5"/>
</g>
<rect x="5" y="5" width="501" height="496" rx="248" stroke="#545454" stroke-width="10"/>
<path d="M683.2 205.8V226H736.6V205.8H683.2ZM660.8 185.4H760.2V246.2H660.8V185.4ZM730.4 263.4L750.4 253.4C761 265.6 772.6 282.2 778.2 293.2L757.4 305C752.2 293.8 740.6 276.2 730.4 263.4ZM645.6 152.2H774V174.4H645.6V152.2ZM697 129.2H721.4V163.6H697V129.2ZM699 238.2H722.4V292.2C722.4 303.2 720.6 309.4 713 313C705.4 316.6 695.4 316.6 681.8 316.6C681 310 678.2 300.6 675.2 294.2C683.4 294.6 692.8 294.6 695.4 294.6C698.2 294.6 699 293.8 699 291.6V238.2ZM664.6 254.4L687.4 261.2C680 277.2 667.8 295.2 657.6 306.4C653.2 302.4 643.8 295.8 638.4 292.6C648.4 282.8 658.6 268.2 664.6 254.4ZM599.2 147.8L612.4 130C624.8 134.8 640.6 143 648.6 149.8L634.4 169.8C627.2 162.6 611.6 153.4 599.2 147.8ZM587.4 202L600.6 183.6C612.8 188.2 629.2 196 637.4 202.8L623.4 223C616 216.2 600 207.2 587.4 202ZM593.2 299.2C603.2 284 617.4 258.8 628.4 235.4L647 250.8C637.2 272 625.6 295 614.4 314.6L593.2 299.2ZM798.8 177H854.2V199H798.8V177ZM816.4 132H838.6V266H816.4V132ZM795.6 269C810.4 264.6 832.6 256.6 854 248.8L858.4 270.2C839.6 278.2 819.6 286.2 803 292.8L795.6 269ZM870 157H981.8V178.8H870V157ZM873.6 200.4H906.6V219.8H873.6V200.4ZM860.2 157H882.2V223.8C882.2 253.2 878.8 293.4 856.4 317.8C853 313.6 844 305.8 839 303C858.4 281.2 860.2 249.2 860.2 223.6V157ZM898 200.4H917.8C917.8 200.4 917.8 205.8 917.6 208.2C917 253.2 916.2 271 912.2 276.8C909 281 905.8 282.8 901 283.6C897 284.4 890.6 284.6 884 284.4C883.4 278.4 881.6 270 878.8 264.8C883.8 265.4 887.8 265.4 890 265.4C892.2 265.4 893.6 264.8 895 263C897 259.8 897.6 245.6 898 203.8V200.4ZM920.4 129H943C941.4 210.2 952 292.4 964.4 292.4C967.2 292.4 969 283 969.6 262.4C974 267.6 981 272.6 986.4 275C983.4 306.2 977.2 314.8 961.4 314.8C927.8 314.8 921 218.4 920.4 129ZM943.2 137.8L959.6 128.2C967 135.2 975.6 145 979.2 151.8L961.6 162.2C958.4 155.6 950.4 145.2 943.2 137.8ZM959.6 198.6L981.2 202.6C969 254.4 945.6 293.6 910 317.4C906.6 313.2 898.2 304.8 893.4 301.2C928.4 280.8 949.6 245.2 959.6 198.6ZM1028.4 177.8H1081.2V199H1028.4V177.8ZM1017.6 139H1040.4V287.6L1017.6 291.6V139ZM1003.8 282.8C1023 279 1052.6 271.8 1080.4 264.8L1083.2 287.4C1058.4 294.6 1031.4 302 1010.8 307.6L1003.8 282.8ZM1053.2 250.8L1072.6 241.4C1085 258.6 1098.4 281.2 1103.2 296.6L1082.2 307.4C1077.8 292 1065.2 268.4 1053.2 250.8ZM1028.2 139H1095.6V237.4H1028.2V215.2H1073.4V161.2H1028.2V139ZM1159.6 138.6H1184.4V260C1184.4 271.6 1182.6 279.2 1175.2 283.6C1168 288.2 1158.6 288.8 1145.4 288.8C1144.8 281.4 1141 269.4 1137.2 262.4C1145 263 1153.4 262.8 1156.2 262.8C1158.8 262.8 1159.6 262 1159.6 259.4V138.6ZM1106.6 138.6H1172.4V162.8H1131.2V316.8H1106.6V138.6ZM1291.6 150.4H1393.8V171.2H1291.6V150.4ZM1284.8 188.8H1399.8V210H1284.8V188.8ZM1285.2 227H1398.4V248H1285.2V227ZM1330.2 129H1353.8V202.4H1330.2V129ZM1355.6 208.8H1379V291.6C1379 303.2 1376.8 309.4 1369 312.8C1361 316.4 1350.2 316.8 1335.2 316.8C1334.4 310.2 1330.8 300.6 1327.6 294.4C1337.4 294.8 1348.4 294.8 1351.4 294.6C1354.6 294.6 1355.6 294 1355.6 291.2V208.8ZM1293.2 261.4L1312.4 250.4C1321.8 260.2 1332.4 273.4 1336.8 283.2L1316.2 295.2C1312.4 285.8 1302.4 271.6 1293.2 261.4ZM1229.8 141.4H1281.4V278.2H1229.8V256.8H1259V162.8H1229.8V141.4ZM1231 198.2H1269.8V219.2H1231V198.2ZM1218.6 141.4H1240.8V296H1218.6V141.4Z" fill="#545454"/>
<line x1="613.5" y1="382" x2="756.5" y2="382" stroke="#545454" stroke-width="10"/>
<path d="M803.916 405V360.2H822.284C825.399 360.2 828.023 360.691 830.156 361.672C832.289 362.653 833.889 364.019 834.956 365.768C836.065 367.475 836.62 369.459 836.62 371.72C836.62 373.981 836.129 375.88 835.148 377.416C834.167 378.952 832.865 380.147 831.244 381C829.665 381.811 827.916 382.28 825.996 382.408L827.02 381.704C829.068 381.789 830.881 382.344 832.46 383.368C834.081 384.349 835.34 385.672 836.236 387.336C837.175 389 837.644 390.813 837.644 392.776C837.644 395.165 837.068 397.277 835.916 399.112C834.764 400.947 833.1 402.397 830.924 403.464C828.748 404.488 826.081 405 822.924 405H803.916ZM812.556 397.96H821.516C823.863 397.96 825.676 397.427 826.956 396.36C828.236 395.293 828.876 393.757 828.876 391.752C828.876 389.747 828.215 388.189 826.892 387.08C825.569 385.928 823.735 385.352 821.388 385.352H812.556V397.96ZM812.556 378.888H820.876C823.137 378.888 824.844 378.376 825.996 377.352C827.191 376.328 827.788 374.877 827.788 373C827.788 371.165 827.191 369.736 825.996 368.712C824.844 367.645 823.116 367.112 820.812 367.112H812.556V378.888ZM860.025 405.768C856.782 405.768 853.902 405.085 851.385 403.72C848.91 402.312 846.969 400.371 845.561 397.896C844.195 395.379 843.513 392.477 843.513 389.192C843.513 385.821 844.195 382.856 845.561 380.296C846.969 377.693 848.91 375.667 851.385 374.216C853.859 372.723 856.739 371.976 860.025 371.976C863.225 371.976 866.019 372.68 868.409 374.088C870.798 375.496 872.654 377.395 873.977 379.784C875.299 382.173 875.961 384.883 875.961 387.912C875.961 388.339 875.961 388.829 875.961 389.384C875.961 389.896 875.918 390.429 875.833 390.984H849.657V385.736H867.257C867.129 383.645 866.382 382.003 865.017 380.808C863.694 379.613 862.03 379.016 860.025 379.016C858.574 379.016 857.23 379.357 855.993 380.04C854.755 380.68 853.774 381.683 853.049 383.048C852.366 384.413 852.025 386.141 852.025 388.232V390.088C852.025 391.837 852.345 393.373 852.985 394.696C853.667 395.976 854.606 396.979 855.801 397.704C856.995 398.387 858.382 398.728 859.961 398.728C861.539 398.728 862.841 398.387 863.865 397.704C864.931 397.021 865.721 396.147 866.233 395.08H875.065C874.467 397.085 873.465 398.899 872.057 400.52C870.649 402.141 868.921 403.421 866.873 404.36C864.825 405.299 862.542 405.768 860.025 405.768ZM918.387 405.768C913.907 405.768 910.046 404.808 906.803 402.888C903.603 400.925 901.128 398.216 899.379 394.76C897.672 391.261 896.819 387.229 896.819 382.664C896.819 378.099 897.672 374.067 899.379 370.568C901.128 367.069 903.603 364.339 906.803 362.376C910.046 360.413 913.907 359.432 918.387 359.432C923.806 359.432 928.243 360.776 931.699 363.464C935.155 366.152 937.31 369.949 938.163 374.856H928.755C928.2 372.467 927.027 370.611 925.235 369.288C923.486 367.923 921.182 367.24 918.323 367.24C915.678 367.24 913.395 367.88 911.475 369.16C909.598 370.397 908.147 372.168 907.123 374.472C906.099 376.733 905.587 379.464 905.587 382.664C905.587 385.821 906.099 388.552 907.123 390.856C908.147 393.16 909.598 394.931 911.475 396.168C913.395 397.405 915.678 398.024 918.323 398.024C921.182 398.024 923.486 397.405 925.235 396.168C926.984 394.888 928.136 393.117 928.691 390.856H938.163C937.31 395.507 935.155 399.155 931.699 401.8C928.243 404.445 923.806 405.768 918.387 405.768ZM960.581 405.768C957.509 405.768 954.736 405.064 952.261 403.656C949.829 402.205 947.888 400.221 946.437 397.704C945.029 395.144 944.325 392.221 944.325 388.936C944.325 385.565 945.029 382.621 946.437 380.104C947.888 377.544 949.85 375.56 952.325 374.152C954.8 372.701 957.573 371.976 960.645 371.976C963.76 371.976 966.533 372.701 968.965 374.152C971.44 375.56 973.381 377.544 974.789 380.104C976.24 382.621 976.965 385.544 976.965 388.872C976.965 392.2 976.24 395.144 974.789 397.704C973.381 400.221 971.44 402.205 968.965 403.656C966.49 405.064 963.696 405.768 960.581 405.768ZM960.581 398.28C962.032 398.28 963.312 397.939 964.421 397.256C965.573 396.573 966.469 395.528 967.109 394.12C967.792 392.712 968.133 390.963 968.133 388.872C968.133 386.781 967.792 385.053 967.109 383.688C966.469 382.28 965.573 381.235 964.421 380.552C963.312 379.827 962.053 379.464 960.645 379.464C959.28 379.464 958.021 379.827 956.869 380.552C955.717 381.235 954.8 382.28 954.117 383.688C953.477 385.053 953.157 386.781 953.157 388.872C953.157 390.963 953.477 392.712 954.117 394.12C954.8 395.528 955.696 396.573 956.805 397.256C957.957 397.939 959.216 398.28 960.581 398.28ZM999.644 405.768C996.572 405.768 993.798 405.064 991.324 403.656C988.892 402.205 986.95 400.221 985.5 397.704C984.092 395.144 983.388 392.221 983.388 388.936C983.388 385.565 984.092 382.621 985.5 380.104C986.95 377.544 988.913 375.56 991.388 374.152C993.862 372.701 996.636 371.976 999.708 371.976C1002.82 371.976 1005.6 372.701 1008.03 374.152C1010.5 375.56 1012.44 377.544 1013.85 380.104C1015.3 382.621 1016.03 385.544 1016.03 388.872C1016.03 392.2 1015.3 395.144 1013.85 397.704C1012.44 400.221 1010.5 402.205 1008.03 403.656C1005.55 405.064 1002.76 405.768 999.644 405.768ZM999.644 398.28C1001.09 398.28 1002.37 397.939 1003.48 397.256C1004.64 396.573 1005.53 395.528 1006.17 394.12C1006.85 392.712 1007.2 390.963 1007.2 388.872C1007.2 386.781 1006.85 385.053 1006.17 383.688C1005.53 382.28 1004.64 381.235 1003.48 380.552C1002.37 379.827 1001.12 379.464 999.708 379.464C998.342 379.464 997.084 379.827 995.932 380.552C994.78 381.235 993.862 382.28 993.18 383.688C992.54 385.053 992.22 386.781 992.22 388.872C992.22 390.963 992.54 392.712 993.18 394.12C993.862 395.528 994.758 396.573 995.868 397.256C997.02 397.939 998.278 398.28 999.644 398.28ZM1023.47 405V358.92H1032.11V405H1023.47ZM1055.79 405V360.2H1064.43L1085.04 391.112V360.2H1093.68V405H1085.04L1064.43 374.152V405H1055.79ZM1117.46 405.768C1114.38 405.768 1111.61 405.064 1109.14 403.656C1106.7 402.205 1104.76 400.221 1103.31 397.704C1101.9 395.144 1101.2 392.221 1101.2 388.936C1101.2 385.565 1101.9 382.621 1103.31 380.104C1104.76 377.544 1106.73 375.56 1109.2 374.152C1111.67 372.701 1114.45 371.976 1117.52 371.976C1120.63 371.976 1123.41 372.701 1125.84 374.152C1128.31 375.56 1130.26 377.544 1131.66 380.104C1133.11 382.621 1133.84 385.544 1133.84 388.872C1133.84 392.2 1133.11 395.144 1131.66 397.704C1130.26 400.221 1128.31 402.205 1125.84 403.656C1123.37 405.064 1120.57 405.768 1117.46 405.768ZM1117.46 398.28C1118.91 398.28 1120.19 397.939 1121.3 397.256C1122.45 396.573 1123.34 395.528 1123.98 394.12C1124.67 392.712 1125.01 390.963 1125.01 388.872C1125.01 386.781 1124.67 385.053 1123.98 383.688C1123.34 382.28 1122.45 381.235 1121.3 380.552C1120.19 379.827 1118.93 379.464 1117.52 379.464C1116.15 379.464 1114.9 379.827 1113.74 380.552C1112.59 381.235 1111.67 382.28 1110.99 383.688C1110.35 385.053 1110.03 386.781 1110.03 388.872C1110.03 390.963 1110.35 392.712 1110.99 394.12C1111.67 395.528 1112.57 396.573 1113.68 397.256C1114.83 397.939 1116.09 398.28 1117.46 398.28ZM1146.56 405L1137.09 372.744H1145.6L1151.87 398.92L1150.27 398.856L1157.44 372.744H1167.04L1174.21 398.856L1172.54 398.92L1178.88 372.744H1187.39L1177.92 405H1168.96L1161.34 378.12H1163.14L1155.52 405H1146.56Z" fill="#545454"/>
<line x1="1231.5" y1="382" x2="1374.5" y2="382" stroke="#545454" stroke-width="10"/>
<defs>
<clipPath id="clip0_915_2463">
<rect width="511" height="506" rx="253" fill="white"/>
</clipPath>
</defs>
</svg>
