<?xml version="1.0" encoding="UTF-8" standalone="no"?><svg  width="1225" height="693" xmlns="http://www.w3.org/2000/svg"><rect width="1225" height="693" x="0" y="0" fill="white"/><g transform="translate(220,575) scale(80,1)" stroke="gray" stroke-width=".013">
<path d="
M1,0 v-545
M2,0 v-545
M3,0 v-395
M4,0 v-300
M5,0 v-185
M6,0 v-185
M7,0 v-185
M8,0 v-185
M9,0 v-185
M10,0 v-60
M11,0 v-60
M12,0 v-60"/></g>

   <g id="BARS" stroke="black" stroke-width="2">

<g id="RAIN" transform="translate(300,210)">
 <path stroke="#cb181d" stroke-width="1" stroke-dasharray="4,8" d="
 M0,-153 h136
 M0,-102 h136
 M0,-51 h136"/><path fill="#cb181d" d="M126,-5 l20,10 v-153 l-20,-10 z"/><path fill="#cb181d" d="M10,5 h136 l-20,-10 H0"/><path fill="#ee3b2c" d="M46,-5 l20,10 v-70.9 l-20,-10 z"/><path fill="#ee3b2c" d="M10,5 h56 l-20,-10 H0"/><path fill="#fc9272" d="M30,-5 l20,10 v-53.2 l-20,-10 z"/><path fill="#fc9272" d="M10,5 h40 l-20,-10 H0"/><path fill="#ffcccc" d="M14,-5 l20,10 v-34.0 l-20,-10 z"/>
<path fill="#ffcccc" d="M10,5 h24 l-20-10 H-10 z"/></g><g id="DROUGHT" transform="translate(300,380)">
 <path stroke="#cb181d" stroke-width="1" stroke-dasharray="4,8" d="
 M0,-153 h248
 M0,-114.75 h248
 M0,-76.5 h248
 M0,-38.25 h248"/><path fill="#cb181d" d="M238,-5 l20,10 v-153 l-20,-10 z"/><path fill="#cb181d" d="M10,5 h247 l-20,-10 H0"/><path fill="#ee3b2c" d="M102,-5 l20,10 v-91.8 l-20,-10 z"/><path fill="#ee3b2c" d="M10,5 h112 l-20,-10 H0"/><path fill="#fc9272" d="M70,-5 l20,10 v-76.5 l-20,-10 z"/><path fill="#fc9272" d="M10,5 h80 l-20,-10 H0"/><path fill="#ffcccc" d="M46,-5 l20,10 v-45.9 l-20,-10 z"/>
<path fill="#ffcccc" d="M10,5 h56 l-20,-10 H-10 z"/></g><g id="HEAT" transform="translate(300,550)">
 <path stroke="#cb181d" stroke-width="1" stroke-dasharray="4,8" d="
 M0,-150 h672
 M0,-120 h672
 M0,-90 h672
 M0,-60 h672
 M0,-30 h672"/><path fill="#cb181d" d="M662,-5 l20,10 v-153 l-20,-10 z"/><path fill="#cb181d" d="M10,5 h672 l-20,-10 H0"/><path fill="#ee3b2c" d="M358,-5 l20,10 v-78 l-20,-10 z"/><path fill="#ee3b2c" d="M10,5 h368 l-20,-10 H0"/><path fill="#fc9272" d="M238,-5 l20,10 v-57 l-20,-10 z"/><path fill="#fc9272" d="M10,5 h247 l-20,-10 H0"/><path fill="#ffcccc" d="M134,-5 l20,10 v-36 l-20,-10 z"/><path fill="#ffcccc" d="M10,5 h144 l-20,-10 H-10 z"/></g>
   </g><path stroke="gray" stroke-width="2" d="
M300,565 h88000
M300,565 v-535
"/>
      <g id="TEXT" font-size="40" font-family="Liberation Sans,sans-serif" text-anchor="middle" fill="black" stroke="none" transform="translate(0,0)"> <g font-size="50"><text x="920" y="70">Extreme weather:</text><text x="920" y="120">more frequent, with</text><text x="920" y="170">more intense extremes</text><text x="150" y="140" >"10-year"</text><text x="150" y="190" >rainstorms</text><text x="150" y="310" >"10-year"</text><text x="150" y="360" >droughts</text><text x="150" y="475" >"10-year"</text>
<text x="150" y="525" >heat waves</text><text x="660" y="670" >Times more frequent than pre-industrial era</text>  <g transform="translate(300,620)" fill="#cb181d">
<text x="0" fill="black">1x</text>
<text x="80">2x</text>
<text x="160">3x</text>
<text x="240">4x</text>
<text x="320">5x</text>
<text x="720">10x</text>
</g>
 </g>

 <g id="LEGEND" transform="translate(5,-7)">
<rect fill="none" stroke="black" stroke-width="1" x="770" y="225" width="400" height="105"/><g stroke="black" stroke-width="3"><rect fill="#ffcccc" x="770" y="225" width="100" height="50"/><rect fill="#fc9272" x="870" y="225" width="100" height="50"/><rect fill="#ee3b2c" x="970" y="225" width="100" height="50"/><rect fill="#cb181d" x="1070" y="225" width="100" height="50"/>
</g><text x="820" y="265">1.0°</text>
<text x="920" y="265">1.5°</text>
<text x="1020" y="265" fill="white">2.0°</text>
<text x="1120" y="265" fill="white">4.0°</text>
<text x="970" y="315">Global warming (°C)</text>
 </g>

<g transform="translate(5,0)" text-anchor="start" fill="#cb181d">
<text x="445" y="75">▲</text>
<text x="485" y="75">30%</text>
<text x="485" y="115">wetter</text>
<text x="485" y="155">extreme</text>

<text x="557" y="245">▲</text>
<text x="597" y="245">1.0σ</text>
<text x="597" y="285">drier</text>
<text x="597" y="325">extreme</text>

<text x="982" y="415">▲</text>
<text x="1022" y="415">5.1 °C</text>
<text x="1022" y="455">hotter</text>
<text x="1022" y="495">extreme</text>
</g>
      </g></svg>